%TF.GenerationSoftware,KiCad,Pcbnew,(6.0.1-0)*%
%TF.CreationDate,2022-03-28T18:36:01+02:00*%
%TF.ProjectId,Ring_Light_PCB,52696e67-5f4c-4696-9768-745f5043422e,1.0*%
%TF.SameCoordinates,Original*%
%TF.FileFunction,Legend,Top*%
%TF.FilePolarity,Positive*%
%FSLAX46Y46*%
G04 Gerber Fmt 4.6, Leading zero omitted, Abs format (unit mm)*
G04 Created by KiCad (PCBNEW (6.0.1-0)) date 2022-03-28 18:36:01*
%MOMM*%
%LPD*%
G01*
G04 APERTURE LIST*
G04 Aperture macros list*
%AMRotRect*
0 Rectangle, with rotation*
0 The origin of the aperture is its center*
0 $1 length*
0 $2 width*
0 $3 Rotation angle, in degrees counterclockwise*
0 Add horizontal line*
21,1,$1,$2,0,0,$3*%
G04 Aperture macros list end*
%ADD10C,0.150000*%
%ADD11C,0.120000*%
%ADD12R,1.700000X1.700000*%
%ADD13O,1.700000X1.700000*%
%ADD14RotRect,1.800000X1.800000X210.000000*%
%ADD15C,1.800000*%
%ADD16C,2.200000*%
%ADD17RotRect,1.800000X1.800000X330.000000*%
%ADD18RotRect,1.800000X1.800000X240.000000*%
%ADD19RotRect,1.800000X1.800000X300.000000*%
%ADD20R,1.800000X1.800000*%
%ADD21RotRect,1.800000X1.800000X120.000000*%
%ADD22RotRect,1.800000X1.800000X150.000000*%
%ADD23RotRect,1.800000X1.800000X60.000000*%
%ADD24RotRect,1.800000X1.800000X30.000000*%
G04 APERTURE END LIST*
D10*
X112852380Y-71752380D02*
X112852380Y-70752380D01*
X113233333Y-70752380D01*
X113328571Y-70800000D01*
X113376190Y-70847619D01*
X113423809Y-70942857D01*
X113423809Y-71085714D01*
X113376190Y-71180952D01*
X113328571Y-71228571D01*
X113233333Y-71276190D01*
X112852380Y-71276190D01*
X113852380Y-71752380D02*
X113852380Y-70752380D01*
X114423809Y-71752380D01*
X114423809Y-70752380D01*
X114900000Y-71752380D02*
X114900000Y-70752380D01*
X115280952Y-70752380D01*
X115376190Y-70800000D01*
X115423809Y-70847619D01*
X115471428Y-70942857D01*
X115471428Y-71085714D01*
X115423809Y-71180952D01*
X115376190Y-71228571D01*
X115280952Y-71276190D01*
X114900000Y-71276190D01*
X116328571Y-71085714D02*
X116328571Y-71752380D01*
X116090476Y-70704761D02*
X115852380Y-71419047D01*
X116471428Y-71419047D01*
X116804761Y-70847619D02*
X116852380Y-70800000D01*
X116947619Y-70752380D01*
X117185714Y-70752380D01*
X117280952Y-70800000D01*
X117328571Y-70847619D01*
X117376190Y-70942857D01*
X117376190Y-71038095D01*
X117328571Y-71180952D01*
X116757142Y-71752380D01*
X117376190Y-71752380D01*
X118423809Y-71371428D02*
X118471428Y-71323809D01*
X118566666Y-71276190D01*
X118757142Y-71371428D01*
X118852380Y-71323809D01*
X118900000Y-71276190D01*
X120614285Y-71752380D02*
X120280952Y-71276190D01*
X120042857Y-71752380D02*
X120042857Y-70752380D01*
X120423809Y-70752380D01*
X120519047Y-70800000D01*
X120566666Y-70847619D01*
X120614285Y-70942857D01*
X120614285Y-71085714D01*
X120566666Y-71180952D01*
X120519047Y-71228571D01*
X120423809Y-71276190D01*
X120042857Y-71276190D01*
X121042857Y-71752380D02*
X121042857Y-70752380D01*
X121519047Y-71752380D02*
X121519047Y-70752380D01*
X122090476Y-71752380D01*
X122090476Y-70752380D01*
X123090476Y-70800000D02*
X122995238Y-70752380D01*
X122852380Y-70752380D01*
X122709523Y-70800000D01*
X122614285Y-70895238D01*
X122566666Y-70990476D01*
X122519047Y-71180952D01*
X122519047Y-71323809D01*
X122566666Y-71514285D01*
X122614285Y-71609523D01*
X122709523Y-71704761D01*
X122852380Y-71752380D01*
X122947619Y-71752380D01*
X123090476Y-71704761D01*
X123138095Y-71657142D01*
X123138095Y-71323809D01*
X122947619Y-71323809D01*
X124804761Y-71752380D02*
X124328571Y-71752380D01*
X124328571Y-70752380D01*
X125138095Y-71752380D02*
X125138095Y-70752380D01*
X126138095Y-70800000D02*
X126042857Y-70752380D01*
X125900000Y-70752380D01*
X125757142Y-70800000D01*
X125661904Y-70895238D01*
X125614285Y-70990476D01*
X125566666Y-71180952D01*
X125566666Y-71323809D01*
X125614285Y-71514285D01*
X125661904Y-71609523D01*
X125757142Y-71704761D01*
X125900000Y-71752380D01*
X125995238Y-71752380D01*
X126138095Y-71704761D01*
X126185714Y-71657142D01*
X126185714Y-71323809D01*
X125995238Y-71323809D01*
X126614285Y-71752380D02*
X126614285Y-70752380D01*
X126614285Y-71228571D02*
X127185714Y-71228571D01*
X127185714Y-71752380D02*
X127185714Y-70752380D01*
X127519047Y-70752380D02*
X128090476Y-70752380D01*
X127804761Y-71752380D02*
X127804761Y-70752380D01*
%TO.C,D11*%
X114874588Y-94423916D02*
X114374588Y-93557890D01*
X114580784Y-93438843D01*
X114728312Y-93408653D01*
X114858409Y-93443513D01*
X114947268Y-93502182D01*
X115083745Y-93643330D01*
X115155174Y-93767048D01*
X115209172Y-93955814D01*
X115215552Y-94062103D01*
X115180693Y-94192200D01*
X115080784Y-94304868D01*
X114874588Y-94423916D01*
X116194245Y-93662011D02*
X115699374Y-93947725D01*
X115946810Y-93804868D02*
X115446810Y-92938843D01*
X115435760Y-93110180D01*
X115400900Y-93240277D01*
X115342231Y-93329136D01*
X117019032Y-93185821D02*
X116524160Y-93471535D01*
X116771596Y-93328678D02*
X116271596Y-92462652D01*
X116260546Y-92633989D01*
X116225686Y-92764087D01*
X116167017Y-92852945D01*
%TO.C,D1*%
X142940399Y-99752274D02*
X142440399Y-100618299D01*
X142234203Y-100499252D01*
X142134294Y-100386584D01*
X142099435Y-100256486D01*
X142105814Y-100150198D01*
X142159813Y-99961431D01*
X142231242Y-99837713D01*
X142367719Y-99696565D01*
X142456578Y-99637896D01*
X142586675Y-99603037D01*
X142734203Y-99633226D01*
X142940399Y-99752274D01*
X141620741Y-98990369D02*
X142115613Y-99276083D01*
X141868177Y-99133226D02*
X141368177Y-99999252D01*
X141522084Y-99923153D01*
X141652182Y-99888293D01*
X141758470Y-99894673D01*
%TO.C,D4*%
X120247725Y-100965399D02*
X119381700Y-100465399D01*
X119500747Y-100259203D01*
X119613415Y-100159294D01*
X119743513Y-100124435D01*
X119849801Y-100130814D01*
X120038568Y-100184813D01*
X120162286Y-100256242D01*
X120303434Y-100392719D01*
X120362103Y-100481578D01*
X120396962Y-100611675D01*
X120366773Y-100759203D01*
X120247725Y-100965399D01*
X120384661Y-99394887D02*
X120962011Y-99728220D01*
X119935699Y-99410607D02*
X120435241Y-99973946D01*
X120744764Y-99437835D01*
%TO.C,D12*%
X136473916Y-105100411D02*
X135607890Y-105600411D01*
X135488843Y-105394215D01*
X135458653Y-105246687D01*
X135493513Y-105116590D01*
X135552182Y-105027731D01*
X135693330Y-104891254D01*
X135817048Y-104819825D01*
X136005814Y-104765827D01*
X136112103Y-104759447D01*
X136242200Y-104794306D01*
X136354868Y-104894215D01*
X136473916Y-105100411D01*
X135712011Y-103780754D02*
X135997725Y-104275625D01*
X135854868Y-104028189D02*
X134988843Y-104528189D01*
X135160180Y-104539239D01*
X135290277Y-104574099D01*
X135379136Y-104632768D01*
X134737988Y-103903220D02*
X134672939Y-103885790D01*
X134584081Y-103827121D01*
X134465033Y-103620925D01*
X134458653Y-103514637D01*
X134476083Y-103449588D01*
X134534752Y-103360729D01*
X134617231Y-103313110D01*
X134764758Y-103282921D01*
X135545344Y-103492078D01*
X135235821Y-102955967D01*
%TO.C,D5*%
X145461904Y-93352380D02*
X145461904Y-92352380D01*
X145700000Y-92352380D01*
X145842857Y-92400000D01*
X145938095Y-92495238D01*
X145985714Y-92590476D01*
X146033333Y-92780952D01*
X146033333Y-92923809D01*
X145985714Y-93114285D01*
X145938095Y-93209523D01*
X145842857Y-93304761D01*
X145700000Y-93352380D01*
X145461904Y-93352380D01*
X146938095Y-92352380D02*
X146461904Y-92352380D01*
X146414285Y-92828571D01*
X146461904Y-92780952D01*
X146557142Y-92733333D01*
X146795238Y-92733333D01*
X146890476Y-92780952D01*
X146938095Y-92828571D01*
X146985714Y-92923809D01*
X146985714Y-93161904D01*
X146938095Y-93257142D01*
X146890476Y-93304761D01*
X146795238Y-93352380D01*
X146557142Y-93352380D01*
X146461904Y-93304761D01*
X146414285Y-93257142D01*
%TO.C,D8*%
X127652380Y-104938095D02*
X126652380Y-104938095D01*
X126652380Y-104700000D01*
X126700000Y-104557142D01*
X126795238Y-104461904D01*
X126890476Y-104414285D01*
X127080952Y-104366666D01*
X127223809Y-104366666D01*
X127414285Y-104414285D01*
X127509523Y-104461904D01*
X127604761Y-104557142D01*
X127652380Y-104700000D01*
X127652380Y-104938095D01*
X127080952Y-103795238D02*
X127033333Y-103890476D01*
X126985714Y-103938095D01*
X126890476Y-103985714D01*
X126842857Y-103985714D01*
X126747619Y-103938095D01*
X126700000Y-103890476D01*
X126652380Y-103795238D01*
X126652380Y-103604761D01*
X126700000Y-103509523D01*
X126747619Y-103461904D01*
X126842857Y-103414285D01*
X126890476Y-103414285D01*
X126985714Y-103461904D01*
X127033333Y-103509523D01*
X127080952Y-103604761D01*
X127080952Y-103795238D01*
X127128571Y-103890476D01*
X127176190Y-103938095D01*
X127271428Y-103985714D01*
X127461904Y-103985714D01*
X127557142Y-103938095D01*
X127604761Y-103890476D01*
X127652380Y-103795238D01*
X127652380Y-103604761D01*
X127604761Y-103509523D01*
X127557142Y-103461904D01*
X127461904Y-103414285D01*
X127271428Y-103414285D01*
X127176190Y-103461904D01*
X127128571Y-103509523D01*
X127080952Y-103604761D01*
%TO.C,D10*%
X127598916Y-74450411D02*
X126732890Y-74950411D01*
X126613843Y-74744215D01*
X126583653Y-74596687D01*
X126618513Y-74466590D01*
X126677182Y-74377731D01*
X126818330Y-74241254D01*
X126942048Y-74169825D01*
X127130814Y-74115827D01*
X127237103Y-74109447D01*
X127367200Y-74144306D01*
X127479868Y-74244215D01*
X127598916Y-74450411D01*
X126837011Y-73130754D02*
X127122725Y-73625625D01*
X126979868Y-73378189D02*
X126113843Y-73878189D01*
X126285180Y-73889239D01*
X126415277Y-73924099D01*
X126504136Y-73982768D01*
X125661462Y-73094643D02*
X125613843Y-73012164D01*
X125607463Y-72905876D01*
X125624893Y-72840827D01*
X125683562Y-72751969D01*
X125824710Y-72615491D01*
X126030906Y-72496444D01*
X126219673Y-72442445D01*
X126325961Y-72436065D01*
X126391010Y-72453495D01*
X126479868Y-72512164D01*
X126527487Y-72594643D01*
X126533867Y-72700931D01*
X126516437Y-72765980D01*
X126457768Y-72854838D01*
X126316620Y-72991315D01*
X126110424Y-73110363D01*
X125921657Y-73164362D01*
X125815369Y-73170741D01*
X125750320Y-73153312D01*
X125661462Y-73094643D01*
%TO.C,D6*%
X135352380Y-74588095D02*
X134352380Y-74588095D01*
X134352380Y-74350000D01*
X134400000Y-74207142D01*
X134495238Y-74111904D01*
X134590476Y-74064285D01*
X134780952Y-74016666D01*
X134923809Y-74016666D01*
X135114285Y-74064285D01*
X135209523Y-74111904D01*
X135304761Y-74207142D01*
X135352380Y-74350000D01*
X135352380Y-74588095D01*
X134352380Y-73159523D02*
X134352380Y-73350000D01*
X134400000Y-73445238D01*
X134447619Y-73492857D01*
X134590476Y-73588095D01*
X134780952Y-73635714D01*
X135161904Y-73635714D01*
X135257142Y-73588095D01*
X135304761Y-73540476D01*
X135352380Y-73445238D01*
X135352380Y-73254761D01*
X135304761Y-73159523D01*
X135257142Y-73111904D01*
X135161904Y-73064285D01*
X134923809Y-73064285D01*
X134828571Y-73111904D01*
X134780952Y-73159523D01*
X134733333Y-73254761D01*
X134733333Y-73445238D01*
X134780952Y-73540476D01*
X134828571Y-73588095D01*
X134923809Y-73635714D01*
%TO.C,D3*%
X120615400Y-78077274D02*
X120115400Y-78943299D01*
X119909204Y-78824252D01*
X119809295Y-78711584D01*
X119774436Y-78581486D01*
X119780815Y-78475198D01*
X119834814Y-78286431D01*
X119906243Y-78162713D01*
X120042720Y-78021565D01*
X120131579Y-77962896D01*
X120261676Y-77928037D01*
X120409204Y-77958226D01*
X120615400Y-78077274D01*
X119331853Y-78490918D02*
X118795742Y-78181394D01*
X119274894Y-78018147D01*
X119151176Y-77946718D01*
X119092507Y-77857860D01*
X119075077Y-77792811D01*
X119081457Y-77686523D01*
X119200504Y-77480326D01*
X119289363Y-77421657D01*
X119354412Y-77404227D01*
X119460700Y-77410607D01*
X119708135Y-77553464D01*
X119766805Y-77642323D01*
X119784234Y-77707371D01*
%TO.C,D2*%
X142072725Y-78465399D02*
X141206700Y-77965399D01*
X141325747Y-77759203D01*
X141438415Y-77659294D01*
X141568513Y-77624435D01*
X141674801Y-77630814D01*
X141863568Y-77684813D01*
X141987286Y-77756242D01*
X142128434Y-77892719D01*
X142187103Y-77981578D01*
X142221962Y-78111675D01*
X142191773Y-78259203D01*
X142072725Y-78465399D01*
X141765369Y-77188232D02*
X141747939Y-77123183D01*
X141754319Y-77016895D01*
X141873367Y-76810699D01*
X141962225Y-76752030D01*
X142027274Y-76734600D01*
X142133562Y-76740980D01*
X142216040Y-76788599D01*
X142315949Y-76901266D01*
X142525106Y-77681852D01*
X142834630Y-77145741D01*
%TO.C,D9*%
X145711981Y-85560821D02*
X145211981Y-84694795D01*
X145418177Y-84575747D01*
X145565705Y-84545558D01*
X145695802Y-84580418D01*
X145784661Y-84639087D01*
X145921138Y-84780235D01*
X145992567Y-84903952D01*
X146046565Y-85092719D01*
X146052945Y-85199007D01*
X146018086Y-85329105D01*
X145918177Y-85441773D01*
X145711981Y-85560821D01*
X146619245Y-85037011D02*
X146784203Y-84941773D01*
X146842872Y-84852915D01*
X146860302Y-84787866D01*
X146871352Y-84616529D01*
X146817353Y-84427762D01*
X146626877Y-84097848D01*
X146538018Y-84039178D01*
X146472969Y-84021749D01*
X146366681Y-84028128D01*
X146201724Y-84123367D01*
X146143055Y-84212225D01*
X146125625Y-84277274D01*
X146132005Y-84383562D01*
X146251053Y-84589758D01*
X146339911Y-84648427D01*
X146404960Y-84665857D01*
X146511248Y-84659478D01*
X146676205Y-84564239D01*
X146734874Y-84475381D01*
X146752304Y-84410332D01*
X146745924Y-84304044D01*
%TO.C,D7*%
X115011904Y-85677380D02*
X115011904Y-84677380D01*
X115250000Y-84677380D01*
X115392857Y-84725000D01*
X115488095Y-84820238D01*
X115535714Y-84915476D01*
X115583333Y-85105952D01*
X115583333Y-85248809D01*
X115535714Y-85439285D01*
X115488095Y-85534523D01*
X115392857Y-85629761D01*
X115250000Y-85677380D01*
X115011904Y-85677380D01*
X115916666Y-84677380D02*
X116583333Y-84677380D01*
X116154761Y-85677380D01*
D11*
%TO.C,J1*%
X128395000Y-69330000D02*
X128395000Y-68000000D01*
X129725000Y-69330000D02*
X128395000Y-69330000D01*
X133595000Y-69330000D02*
X133595000Y-66670000D01*
X130995000Y-66670000D02*
X133595000Y-66670000D01*
X130995000Y-69330000D02*
X130995000Y-66670000D01*
X130995000Y-69330000D02*
X133595000Y-69330000D01*
%TO.C,D11*%
X120859673Y-96653009D02*
X119314673Y-93976991D01*
X119314758Y-93977138D02*
G75*
G03*
X115280963Y-98090400I-1444610J-2617862D01*
G01*
X115280501Y-98089600D02*
G75*
G03*
X120859588Y-96652862I2589647J1494600D01*
G01*
X120370148Y-96595000D02*
G75*
G03*
X120370148Y-96595000I-2500000J0D01*
G01*
%TO.C,D1*%
X142715327Y-93946991D02*
X141170327Y-96623009D01*
X146749037Y-98060400D02*
G75*
G03*
X142715242Y-93947138I-2589185J1495400D01*
G01*
X141170412Y-96622862D02*
G75*
G03*
X146749499Y-98059600I2989440J57862D01*
G01*
X146659852Y-96565000D02*
G75*
G03*
X146659852Y-96565000I-2500000J0D01*
G01*
%TO.C,D4*%
X126053009Y-100715327D02*
X123376991Y-99170327D01*
X121939600Y-104749037D02*
G75*
G03*
X126052862Y-100715242I1495400J2589185D01*
G01*
X123377138Y-99170412D02*
G75*
G03*
X121940400Y-104749499I57862J-2989440D01*
G01*
X125935000Y-102159852D02*
G75*
G03*
X125935000Y-102159852I-2500000J0D01*
G01*
%TO.C,D12*%
X138695509Y-99136145D02*
X136019491Y-100681145D01*
X140132100Y-104715317D02*
G75*
G03*
X138695362Y-99136230I-1494600J2589647D01*
G01*
X136019638Y-100681060D02*
G75*
G03*
X140132900Y-104714855I2617862J-1444610D01*
G01*
X141137500Y-102125670D02*
G75*
G03*
X141137500Y-102125670I-2500000J0D01*
G01*
%TO.C,D5*%
X143610000Y-87455000D02*
X143610000Y-90545000D01*
X143610000Y-90544830D02*
G75*
G03*
X149160000Y-88999538I2560000J1544830D01*
G01*
X149160000Y-89000462D02*
G75*
G03*
X143610000Y-87455170I-2990000J462D01*
G01*
X148670000Y-89000000D02*
G75*
G03*
X148670000Y-89000000I-2500000J0D01*
G01*
%TO.C,D8*%
X132545000Y-101610000D02*
X129455000Y-101610000D01*
X130999538Y-107160000D02*
G75*
G03*
X132544830Y-101610000I462J2990000D01*
G01*
X129455170Y-101610000D02*
G75*
G03*
X131000462Y-107160000I1544830J-2560000D01*
G01*
X133500000Y-104170000D02*
G75*
G03*
X133500000Y-104170000I-2500000J0D01*
G01*
%TO.C,D10*%
X123344491Y-78863855D02*
X126020509Y-77318855D01*
X126020362Y-77318940D02*
G75*
G03*
X121907100Y-73285145I-2617862J1444610D01*
G01*
X121907900Y-73284683D02*
G75*
G03*
X123344638Y-78863770I1494600J-2589647D01*
G01*
X125902500Y-75874330D02*
G75*
G03*
X125902500Y-75874330I-2500000J0D01*
G01*
%TO.C,D6*%
X129455000Y-76390000D02*
X132545000Y-76390000D01*
X132544830Y-76390000D02*
G75*
G03*
X130999538Y-70840000I-1544830J2560000D01*
G01*
X131000462Y-70840000D02*
G75*
G03*
X129455170Y-76390000I-462J-2990000D01*
G01*
X133500000Y-73830000D02*
G75*
G03*
X133500000Y-73830000I-2500000J0D01*
G01*
%TO.C,D3*%
X119244673Y-84123009D02*
X120789673Y-81446991D01*
X115210963Y-80009600D02*
G75*
G03*
X119244758Y-84122862I2589185J-1495400D01*
G01*
X120789588Y-81447138D02*
G75*
G03*
X115210501Y-80010400I-2989440J-57862D01*
G01*
X120300148Y-81505000D02*
G75*
G03*
X120300148Y-81505000I-2500000J0D01*
G01*
%TO.C,D2*%
X135939491Y-77268855D02*
X138615509Y-78813855D01*
X140052900Y-73235145D02*
G75*
G03*
X135939638Y-77268940I-1495400J-2589185D01*
G01*
X138615362Y-78813770D02*
G75*
G03*
X140052100Y-73234683I-57862J2989440D01*
G01*
X141057500Y-75824330D02*
G75*
G03*
X141057500Y-75824330I-2500000J0D01*
G01*
%TO.C,D9*%
X141156145Y-81374491D02*
X142701145Y-84050509D01*
X146735317Y-79937900D02*
G75*
G03*
X141156230Y-81374638I-2589647J-1494600D01*
G01*
X142701060Y-84050362D02*
G75*
G03*
X146734855Y-79937100I1444610J2617862D01*
G01*
X146645670Y-81432500D02*
G75*
G03*
X146645670Y-81432500I-2500000J0D01*
G01*
%TO.C,D7*%
X118375000Y-90545000D02*
X118375000Y-87455000D01*
X118375000Y-87455170D02*
G75*
G03*
X112825000Y-89000462I-2560000J-1544830D01*
G01*
X112825000Y-88999538D02*
G75*
G03*
X118375000Y-90544830I2990000J-462D01*
G01*
X118315000Y-89000000D02*
G75*
G03*
X118315000Y-89000000I-2500000J0D01*
G01*
%TD*%
%LPC*%
D12*
%TO.C,J1*%
X129725000Y-68000000D03*
D13*
X132265000Y-68000000D03*
%TD*%
D14*
%TO.C,D11*%
X118970000Y-95960000D03*
D15*
X116770295Y-97230000D03*
%TD*%
D16*
%TO.C,REF\u002A\u002A*%
X117000000Y-103000000D03*
%TD*%
D17*
%TO.C,D1*%
X143060000Y-95930000D03*
D15*
X145259705Y-97200000D03*
%TD*%
D18*
%TO.C,D4*%
X124070000Y-101060000D03*
D15*
X122800000Y-103259705D03*
%TD*%
D16*
%TO.C,REF\u002A\u002A*%
X145000000Y-103000000D03*
%TD*%
%TO.C,REF\u002A\u002A*%
X145000000Y-75000000D03*
%TD*%
D19*
%TO.C,D12*%
X138002500Y-101025818D03*
D15*
X139272500Y-103225523D03*
%TD*%
D20*
%TO.C,D5*%
X144900000Y-89000000D03*
D15*
X147440000Y-89000000D03*
%TD*%
D20*
%TO.C,D8*%
X131000000Y-102900000D03*
D15*
X131000000Y-105440000D03*
%TD*%
D21*
%TO.C,D10*%
X124037500Y-76974182D03*
D15*
X122767500Y-74774477D03*
%TD*%
D20*
%TO.C,D6*%
X131000000Y-75100000D03*
D15*
X131000000Y-72560000D03*
%TD*%
D22*
%TO.C,D3*%
X118900000Y-82140000D03*
D15*
X116700295Y-80870000D03*
%TD*%
D16*
%TO.C,REF\u002A\u002A*%
X117000000Y-75000000D03*
%TD*%
D23*
%TO.C,D2*%
X137922500Y-76924182D03*
D15*
X139192500Y-74724477D03*
%TD*%
D24*
%TO.C,D9*%
X143045818Y-82067500D03*
D15*
X145245523Y-80797500D03*
%TD*%
D20*
%TO.C,D7*%
X117085000Y-89000000D03*
D15*
X114545000Y-89000000D03*
%TD*%
M02*
