M48
; DRILL file {KiCad (6.0.1-0)} date Monday, 28 March 2022 at 18:36:08
; FORMAT={-:-/ absolute / metric / decimal}
; #@! TF.CreationDate,2022-03-28T18:36:08+02:00
; #@! TF.GenerationSoftware,Kicad,Pcbnew,(6.0.1-0)
; #@! TF.FileFunction,Plated,1,2,PTH
FMAT,2
METRIC
; #@! TA.AperFunction,Plated,PTH,ComponentDrill
T1C0.900
; #@! TA.AperFunction,Plated,PTH,ComponentDrill
T2C1.000
%
G90
G05
T1
X114.545Y-89.0
X116.7Y-80.87
X116.77Y-97.23
X117.085Y-89.0
X118.9Y-82.14
X118.97Y-95.96
X122.767Y-74.774
X122.8Y-103.26
X124.037Y-76.974
X124.07Y-101.06
X131.0Y-72.56
X131.0Y-75.1
X131.0Y-102.9
X131.0Y-105.44
X137.922Y-76.924
X138.002Y-101.026
X139.192Y-74.724
X139.272Y-103.226
X143.046Y-82.067
X143.06Y-95.93
X144.9Y-89.0
X145.246Y-80.797
X145.26Y-97.2
X147.44Y-89.0
T2
X129.725Y-68.0
X132.265Y-68.0
T0
M30
