%TF.GenerationSoftware,KiCad,Pcbnew,(6.0.1-0)*%
%TF.CreationDate,2022-03-28T18:36:01+02:00*%
%TF.ProjectId,Ring_Light_PCB,52696e67-5f4c-4696-9768-745f5043422e,1.0*%
%TF.SameCoordinates,Original*%
%TF.FileFunction,Copper,L2,Bot*%
%TF.FilePolarity,Positive*%
%FSLAX46Y46*%
G04 Gerber Fmt 4.6, Leading zero omitted, Abs format (unit mm)*
G04 Created by KiCad (PCBNEW (6.0.1-0)) date 2022-03-28 18:36:01*
%MOMM*%
%LPD*%
G01*
G04 APERTURE LIST*
G04 Aperture macros list*
%AMRoundRect*
0 Rectangle with rounded corners*
0 $1 Rounding radius*
0 $2 $3 $4 $5 $6 $7 $8 $9 X,Y pos of 4 corners*
0 Add a 4 corners polygon primitive as box body*
4,1,4,$2,$3,$4,$5,$6,$7,$8,$9,$2,$3,0*
0 Add four circle primitives for the rounded corners*
1,1,$1+$1,$2,$3*
1,1,$1+$1,$4,$5*
1,1,$1+$1,$6,$7*
1,1,$1+$1,$8,$9*
0 Add four rect primitives between the rounded corners*
20,1,$1+$1,$2,$3,$4,$5,0*
20,1,$1+$1,$4,$5,$6,$7,0*
20,1,$1+$1,$6,$7,$8,$9,0*
20,1,$1+$1,$8,$9,$2,$3,0*%
%AMRotRect*
0 Rectangle, with rotation*
0 The origin of the aperture is its center*
0 $1 length*
0 $2 width*
0 $3 Rotation angle, in degrees counterclockwise*
0 Add horizontal line*
21,1,$1,$2,0,0,$3*%
G04 Aperture macros list end*
%TA.AperFunction,ComponentPad*%
%ADD10R,1.700000X1.700000*%
%TD*%
%TA.AperFunction,ComponentPad*%
%ADD11O,1.700000X1.700000*%
%TD*%
%TA.AperFunction,ComponentPad*%
%ADD12RotRect,1.800000X1.800000X210.000000*%
%TD*%
%TA.AperFunction,ComponentPad*%
%ADD13C,1.800000*%
%TD*%
%TA.AperFunction,ComponentPad*%
%ADD14RotRect,1.800000X1.800000X330.000000*%
%TD*%
%TA.AperFunction,ComponentPad*%
%ADD15RotRect,1.800000X1.800000X240.000000*%
%TD*%
%TA.AperFunction,ComponentPad*%
%ADD16RotRect,1.800000X1.800000X300.000000*%
%TD*%
%TA.AperFunction,ComponentPad*%
%ADD17R,1.800000X1.800000*%
%TD*%
%TA.AperFunction,ComponentPad*%
%ADD18RotRect,1.800000X1.800000X120.000000*%
%TD*%
%TA.AperFunction,ComponentPad*%
%ADD19RotRect,1.800000X1.800000X150.000000*%
%TD*%
%TA.AperFunction,ComponentPad*%
%ADD20RotRect,1.800000X1.800000X60.000000*%
%TD*%
%TA.AperFunction,ComponentPad*%
%ADD21RotRect,1.800000X1.800000X30.000000*%
%TD*%
%TA.AperFunction,SMDPad,CuDef*%
%ADD22C,1.000000*%
%TD*%
%TA.AperFunction,SMDPad,CuDef*%
%ADD23RoundRect,0.250000X-0.565685X-0.070711X-0.070711X-0.565685X0.565685X0.070711X0.070711X0.565685X0*%
%TD*%
%TA.AperFunction,SMDPad,CuDef*%
%ADD24RoundRect,0.250000X0.070711X-0.565685X0.565685X-0.070711X-0.070711X0.565685X-0.565685X0.070711X0*%
%TD*%
%TA.AperFunction,SMDPad,CuDef*%
%ADD25RoundRect,0.250000X-0.070711X0.565685X-0.565685X0.070711X0.070711X-0.565685X0.565685X-0.070711X0*%
%TD*%
%TA.AperFunction,SMDPad,CuDef*%
%ADD26RoundRect,0.250000X0.565685X0.070711X0.070711X0.565685X-0.565685X-0.070711X-0.070711X-0.565685X0*%
%TD*%
%TA.AperFunction,Conductor*%
%ADD27C,0.250000*%
%TD*%
G04 APERTURE END LIST*
D10*
%TO.P,J1,1,Pin_1*%
%TO.N,/Vin*%
X129725000Y-68000000D03*
D11*
%TO.P,J1,2,Pin_2*%
%TO.N,/Vout*%
X132265000Y-68000000D03*
%TD*%
D12*
%TO.P,D11,1,K*%
%TO.N,Net-(D11-Pad1)*%
X118970000Y-95960000D03*
D13*
%TO.P,D11,2,A*%
%TO.N,/Vin*%
X116770295Y-97230000D03*
%TD*%
D14*
%TO.P,D1,1,K*%
%TO.N,Net-(D1-Pad1)*%
X143060000Y-95930000D03*
D13*
%TO.P,D1,2,A*%
%TO.N,Net-(D1-Pad2)*%
X145259705Y-97200000D03*
%TD*%
D15*
%TO.P,D4,1,K*%
%TO.N,Net-(D4-Pad1)*%
X124070000Y-101060000D03*
D13*
%TO.P,D4,2,A*%
%TO.N,Net-(D4-Pad2)*%
X122800000Y-103259705D03*
%TD*%
D16*
%TO.P,D12,1,K*%
%TO.N,Net-(D12-Pad1)*%
X138002500Y-101025818D03*
D13*
%TO.P,D12,2,A*%
%TO.N,/Vin*%
X139272500Y-103225523D03*
%TD*%
D17*
%TO.P,D5,1,K*%
%TO.N,Net-(D1-Pad2)*%
X144900000Y-89000000D03*
D13*
%TO.P,D5,2,A*%
%TO.N,Net-(D5-Pad2)*%
X147440000Y-89000000D03*
%TD*%
D17*
%TO.P,D8,1,K*%
%TO.N,Net-(D4-Pad2)*%
X131000000Y-102900000D03*
D13*
%TO.P,D8,2,A*%
%TO.N,Net-(D12-Pad1)*%
X131000000Y-105440000D03*
%TD*%
D18*
%TO.P,D10,1,K*%
%TO.N,Net-(D10-Pad1)*%
X124037500Y-76974182D03*
D13*
%TO.P,D10,2,A*%
%TO.N,/Vin*%
X122767500Y-74774477D03*
%TD*%
D17*
%TO.P,D6,1,K*%
%TO.N,Net-(D2-Pad2)*%
X131000000Y-75100000D03*
D13*
%TO.P,D6,2,A*%
%TO.N,Net-(D10-Pad1)*%
X131000000Y-72560000D03*
%TD*%
D19*
%TO.P,D3,1,K*%
%TO.N,Net-(D3-Pad1)*%
X118900000Y-82140000D03*
D13*
%TO.P,D3,2,A*%
%TO.N,Net-(D3-Pad2)*%
X116700295Y-80870000D03*
%TD*%
D20*
%TO.P,D2,1,K*%
%TO.N,Net-(D2-Pad1)*%
X137922500Y-76924182D03*
D13*
%TO.P,D2,2,A*%
%TO.N,Net-(D2-Pad2)*%
X139192500Y-74724477D03*
%TD*%
D21*
%TO.P,D9,1,K*%
%TO.N,Net-(D5-Pad2)*%
X143045818Y-82067500D03*
D13*
%TO.P,D9,2,A*%
%TO.N,/Vin*%
X145245523Y-80797500D03*
%TD*%
D17*
%TO.P,D7,1,K*%
%TO.N,Net-(D3-Pad2)*%
X117085000Y-89000000D03*
D13*
%TO.P,D7,2,A*%
%TO.N,Net-(D11-Pad1)*%
X114545000Y-89000000D03*
%TD*%
D22*
%TO.P,FID2,*%
%TO.N,*%
X114000000Y-72000000D03*
%TD*%
D23*
%TO.P,R3,1*%
%TO.N,/Vout*%
X119792893Y-77892893D03*
%TO.P,R3,2*%
%TO.N,Net-(D3-Pad1)*%
X121207107Y-79307107D03*
%TD*%
D24*
%TO.P,R4,1*%
%TO.N,/Vout*%
X119792893Y-100207107D03*
%TO.P,R4,2*%
%TO.N,Net-(D4-Pad1)*%
X121207107Y-98792893D03*
%TD*%
D22*
%TO.P,FID1,*%
%TO.N,*%
X148000000Y-106000000D03*
%TD*%
D25*
%TO.P,R2,1*%
%TO.N,/Vout*%
X142207107Y-77792893D03*
%TO.P,R2,2*%
%TO.N,Net-(D2-Pad1)*%
X140792893Y-79207107D03*
%TD*%
D26*
%TO.P,R1,1*%
%TO.N,/Vout*%
X142214214Y-100214214D03*
%TO.P,R1,2*%
%TO.N,Net-(D1-Pad1)*%
X140800000Y-98800000D03*
%TD*%
D27*
%TO.N,Net-(D1-Pad1)*%
X140800000Y-98800000D02*
X140800000Y-98190000D01*
X140800000Y-98190000D02*
X143060000Y-95930000D01*
%TO.N,Net-(D2-Pad1)*%
X140205425Y-79207107D02*
X140792893Y-79207107D01*
X137922500Y-76924182D02*
X140205425Y-79207107D01*
%TO.N,Net-(D3-Pad1)*%
X121207107Y-79307107D02*
X121207107Y-79832893D01*
X121207107Y-79832893D02*
X118900000Y-82140000D01*
%TO.N,Net-(D4-Pad1)*%
X121207107Y-98792893D02*
X121802893Y-98792893D01*
X121802893Y-98792893D02*
X124070000Y-101060000D01*
%TD*%
%TA.AperFunction,Conductor*%
%TO.N,/Vout*%
G36*
X128573562Y-66528002D02*
G01*
X128620055Y-66581658D01*
X128630159Y-66651932D01*
X128600665Y-66716512D01*
X128581006Y-66734826D01*
X128547952Y-66759599D01*
X128511739Y-66786739D01*
X128424385Y-66903295D01*
X128373255Y-67039684D01*
X128366500Y-67101866D01*
X128366500Y-68898134D01*
X128373255Y-68960316D01*
X128424385Y-69096705D01*
X128511739Y-69213261D01*
X128628295Y-69300615D01*
X128764684Y-69351745D01*
X128826866Y-69358500D01*
X130623134Y-69358500D01*
X130685316Y-69351745D01*
X130821705Y-69300615D01*
X130938261Y-69213261D01*
X131025615Y-69096705D01*
X131069798Y-68978848D01*
X131112440Y-68922084D01*
X131179001Y-68897384D01*
X131248350Y-68912592D01*
X131283017Y-68940580D01*
X131308218Y-68969673D01*
X131315580Y-68976883D01*
X131479434Y-69112916D01*
X131487881Y-69118831D01*
X131671756Y-69226279D01*
X131681042Y-69230729D01*
X131880001Y-69306703D01*
X131889899Y-69309579D01*
X131993250Y-69330606D01*
X132007299Y-69329410D01*
X132011000Y-69319065D01*
X132011000Y-69318517D01*
X132519000Y-69318517D01*
X132523064Y-69332359D01*
X132536478Y-69334393D01*
X132543184Y-69333534D01*
X132553262Y-69331392D01*
X132757255Y-69270191D01*
X132766842Y-69266433D01*
X132958095Y-69172739D01*
X132966945Y-69167464D01*
X133140328Y-69043792D01*
X133148200Y-69037139D01*
X133299052Y-68886812D01*
X133305730Y-68878965D01*
X133430003Y-68706020D01*
X133435313Y-68697183D01*
X133529670Y-68506267D01*
X133533469Y-68496672D01*
X133595377Y-68292910D01*
X133597555Y-68282837D01*
X133598986Y-68271962D01*
X133596775Y-68257778D01*
X133583617Y-68254000D01*
X132537115Y-68254000D01*
X132521876Y-68258475D01*
X132520671Y-68259865D01*
X132519000Y-68267548D01*
X132519000Y-69318517D01*
X132011000Y-69318517D01*
X132011000Y-67872000D01*
X132031002Y-67803879D01*
X132084658Y-67757386D01*
X132137000Y-67746000D01*
X133583344Y-67746000D01*
X133596875Y-67742027D01*
X133598180Y-67732947D01*
X133556214Y-67565875D01*
X133552894Y-67556124D01*
X133467972Y-67360814D01*
X133463105Y-67351739D01*
X133347426Y-67172926D01*
X133341136Y-67164757D01*
X133197806Y-67007240D01*
X133190273Y-67000215D01*
X133023139Y-66868222D01*
X133014552Y-66862517D01*
X132828117Y-66759599D01*
X132818702Y-66755367D01*
X132811376Y-66752773D01*
X132753839Y-66711179D01*
X132727923Y-66645082D01*
X132741856Y-66575466D01*
X132791215Y-66524434D01*
X132853435Y-66508000D01*
X134409481Y-66508000D01*
X134477602Y-66528002D01*
X134524095Y-66581658D01*
X134534403Y-66617554D01*
X134553104Y-66759599D01*
X134556257Y-66783552D01*
X134641458Y-67167868D01*
X134642286Y-67170493D01*
X134642287Y-67170498D01*
X134702294Y-67360814D01*
X134759830Y-67543296D01*
X134910472Y-67906978D01*
X135092238Y-68256148D01*
X135303744Y-68588146D01*
X135394192Y-68706020D01*
X135541031Y-68897384D01*
X135543381Y-68900447D01*
X135809326Y-69190674D01*
X136099553Y-69456619D01*
X136101725Y-69458286D01*
X136101729Y-69458289D01*
X136158696Y-69502001D01*
X136411854Y-69696256D01*
X136743853Y-69907762D01*
X137093022Y-70089528D01*
X137456704Y-70240170D01*
X137459324Y-70240996D01*
X137459332Y-70240999D01*
X137829502Y-70357713D01*
X137829507Y-70357714D01*
X137832132Y-70358542D01*
X138216448Y-70443743D01*
X138219167Y-70444101D01*
X138219173Y-70444102D01*
X138365531Y-70463370D01*
X138606728Y-70495124D01*
X138609477Y-70495244D01*
X138609488Y-70495245D01*
X138830522Y-70504895D01*
X138969085Y-70510946D01*
X138977809Y-70511866D01*
X138977812Y-70511829D01*
X138982661Y-70512264D01*
X138987461Y-70513071D01*
X138993915Y-70513150D01*
X138995141Y-70513165D01*
X138995145Y-70513165D01*
X139000000Y-70513224D01*
X139027588Y-70509273D01*
X139045451Y-70508000D01*
X149366000Y-70508000D01*
X149434121Y-70528002D01*
X149480614Y-70581658D01*
X149492000Y-70634000D01*
X149492000Y-107366000D01*
X149471998Y-107434121D01*
X149418342Y-107480614D01*
X149366000Y-107492000D01*
X112634000Y-107492000D01*
X112565879Y-107471998D01*
X112519386Y-107418342D01*
X112508000Y-107366000D01*
X112508000Y-103000000D01*
X115386526Y-103000000D01*
X115406391Y-103252403D01*
X115407545Y-103257210D01*
X115407546Y-103257216D01*
X115445179Y-103413968D01*
X115465495Y-103498591D01*
X115467388Y-103503162D01*
X115467389Y-103503164D01*
X115543592Y-103687133D01*
X115562384Y-103732502D01*
X115694672Y-103948376D01*
X115859102Y-104140898D01*
X116051624Y-104305328D01*
X116267498Y-104437616D01*
X116272068Y-104439509D01*
X116272072Y-104439511D01*
X116496836Y-104532611D01*
X116501409Y-104534505D01*
X116568300Y-104550564D01*
X116742784Y-104592454D01*
X116742790Y-104592455D01*
X116747597Y-104593609D01*
X116847416Y-104601465D01*
X116934345Y-104608307D01*
X116934352Y-104608307D01*
X116936801Y-104608500D01*
X117063199Y-104608500D01*
X117065648Y-104608307D01*
X117065655Y-104608307D01*
X117152584Y-104601465D01*
X117252403Y-104593609D01*
X117257210Y-104592455D01*
X117257216Y-104592454D01*
X117431700Y-104550564D01*
X117498591Y-104534505D01*
X117503164Y-104532611D01*
X117727928Y-104439511D01*
X117727932Y-104439509D01*
X117732502Y-104437616D01*
X117948376Y-104305328D01*
X118140898Y-104140898D01*
X118305328Y-103948376D01*
X118437616Y-103732502D01*
X118456409Y-103687133D01*
X118532611Y-103503164D01*
X118532612Y-103503162D01*
X118534505Y-103498591D01*
X118554821Y-103413968D01*
X118592454Y-103257216D01*
X118592455Y-103257210D01*
X118593609Y-103252403D01*
X118613474Y-103000000D01*
X118593609Y-102747597D01*
X118588997Y-102728383D01*
X118546453Y-102551176D01*
X118534505Y-102501409D01*
X118480185Y-102370269D01*
X118439511Y-102272072D01*
X118439509Y-102272068D01*
X118437616Y-102267498D01*
X118305328Y-102051624D01*
X118140898Y-101859102D01*
X118133699Y-101852953D01*
X118035155Y-101768789D01*
X117948376Y-101694672D01*
X117732502Y-101562384D01*
X117727932Y-101560491D01*
X117727928Y-101560489D01*
X117503164Y-101467389D01*
X117503162Y-101467388D01*
X117498591Y-101465495D01*
X117413968Y-101445179D01*
X117257216Y-101407546D01*
X117257210Y-101407545D01*
X117252403Y-101406391D01*
X117152584Y-101398535D01*
X117065655Y-101391693D01*
X117065648Y-101391693D01*
X117063199Y-101391500D01*
X116936801Y-101391500D01*
X116934352Y-101391693D01*
X116934345Y-101391693D01*
X116847416Y-101398535D01*
X116747597Y-101406391D01*
X116742790Y-101407545D01*
X116742784Y-101407546D01*
X116586032Y-101445179D01*
X116501409Y-101465495D01*
X116496838Y-101467388D01*
X116496836Y-101467389D01*
X116272072Y-101560489D01*
X116272068Y-101560491D01*
X116267498Y-101562384D01*
X116051624Y-101694672D01*
X115964845Y-101768789D01*
X115866302Y-101852953D01*
X115859102Y-101859102D01*
X115694672Y-102051624D01*
X115562384Y-102267498D01*
X115560491Y-102272068D01*
X115560489Y-102272072D01*
X115519815Y-102370269D01*
X115465495Y-102501409D01*
X115453547Y-102551176D01*
X115411004Y-102728383D01*
X115406391Y-102747597D01*
X115386526Y-103000000D01*
X112508000Y-103000000D01*
X112508000Y-101171316D01*
X119194222Y-101171316D01*
X119194354Y-101173152D01*
X119198603Y-101179764D01*
X119360919Y-101342080D01*
X119365763Y-101346448D01*
X119440372Y-101407030D01*
X119451889Y-101414457D01*
X119597295Y-101487113D01*
X119610963Y-101492060D01*
X119768764Y-101529216D01*
X119783207Y-101530888D01*
X119945325Y-101530747D01*
X119959761Y-101529051D01*
X120117498Y-101491618D01*
X120131162Y-101486645D01*
X120276446Y-101413734D01*
X120287931Y-101406303D01*
X120361486Y-101346421D01*
X120366257Y-101342113D01*
X120454661Y-101253709D01*
X120462275Y-101239765D01*
X120462144Y-101237932D01*
X120457893Y-101231317D01*
X119805705Y-100579129D01*
X119791761Y-100571515D01*
X119789928Y-100571646D01*
X119783313Y-100575897D01*
X119201833Y-101157378D01*
X119194222Y-101171316D01*
X112508000Y-101171316D01*
X112508000Y-100056001D01*
X118469112Y-100056001D01*
X118469253Y-100218118D01*
X118470949Y-100232554D01*
X118508382Y-100390291D01*
X118513355Y-100403955D01*
X118586267Y-100549241D01*
X118593696Y-100560724D01*
X118653576Y-100634274D01*
X118657886Y-100639048D01*
X118817006Y-100798167D01*
X118830944Y-100805778D01*
X118832780Y-100805646D01*
X118839392Y-100801397D01*
X119420872Y-100219918D01*
X119428485Y-100205975D01*
X119428354Y-100204141D01*
X119424103Y-100197527D01*
X118771915Y-99545339D01*
X118757971Y-99537725D01*
X118756138Y-99537856D01*
X118749524Y-99542106D01*
X118657910Y-99633721D01*
X118653562Y-99638544D01*
X118592965Y-99713171D01*
X118585543Y-99724682D01*
X118512889Y-99870083D01*
X118507939Y-99883757D01*
X118470784Y-100041556D01*
X118469112Y-100056001D01*
X112508000Y-100056001D01*
X112508000Y-88965469D01*
X113132095Y-88965469D01*
X113132392Y-88970622D01*
X113132392Y-88970625D01*
X113138067Y-89069041D01*
X113145427Y-89196697D01*
X113146564Y-89201743D01*
X113146565Y-89201749D01*
X113176558Y-89334836D01*
X113196346Y-89422642D01*
X113198288Y-89427424D01*
X113198289Y-89427428D01*
X113281540Y-89632450D01*
X113283484Y-89637237D01*
X113404501Y-89834719D01*
X113556147Y-90009784D01*
X113734349Y-90157730D01*
X113934322Y-90274584D01*
X114150694Y-90357209D01*
X114155760Y-90358240D01*
X114155761Y-90358240D01*
X114208846Y-90369040D01*
X114377656Y-90403385D01*
X114507089Y-90408131D01*
X114603949Y-90411683D01*
X114603953Y-90411683D01*
X114609113Y-90411872D01*
X114614233Y-90411216D01*
X114614235Y-90411216D01*
X114688166Y-90401745D01*
X114838847Y-90382442D01*
X114843795Y-90380957D01*
X114843802Y-90380956D01*
X115055747Y-90317369D01*
X115060690Y-90315886D01*
X115141236Y-90276427D01*
X115264049Y-90216262D01*
X115264052Y-90216260D01*
X115268684Y-90213991D01*
X115457243Y-90079494D01*
X115502309Y-90034585D01*
X115564681Y-90000669D01*
X115635487Y-90005857D01*
X115692249Y-90048503D01*
X115709231Y-90079607D01*
X115734385Y-90146705D01*
X115821739Y-90263261D01*
X115938295Y-90350615D01*
X116074684Y-90401745D01*
X116136866Y-90408500D01*
X117954342Y-90408500D01*
X118022463Y-90428502D01*
X118068956Y-90482158D01*
X118079249Y-90517942D01*
X118150842Y-91058102D01*
X118280945Y-91749957D01*
X118281346Y-91751598D01*
X118281350Y-91751614D01*
X118447862Y-92432094D01*
X118448271Y-92433764D01*
X118652332Y-93107522D01*
X118699185Y-93236599D01*
X118891949Y-93767657D01*
X118891955Y-93767673D01*
X118892531Y-93769259D01*
X118893193Y-93770814D01*
X118893197Y-93770825D01*
X119056898Y-94155547D01*
X119065164Y-94226061D01*
X119033996Y-94289850D01*
X119003957Y-94313999D01*
X117444642Y-95214270D01*
X117394168Y-95251211D01*
X117301617Y-95363686D01*
X117244353Y-95497614D01*
X117226981Y-95642232D01*
X117228455Y-95651088D01*
X117228455Y-95651091D01*
X117238569Y-95711857D01*
X117230023Y-95782337D01*
X117184728Y-95837008D01*
X117117067Y-95858512D01*
X117092183Y-95856590D01*
X116908390Y-95823851D01*
X116908384Y-95823850D01*
X116903301Y-95822945D01*
X116830391Y-95822054D01*
X116676876Y-95820179D01*
X116676874Y-95820179D01*
X116671706Y-95820116D01*
X116442759Y-95855150D01*
X116222609Y-95927106D01*
X116218021Y-95929494D01*
X116218017Y-95929496D01*
X116021756Y-96031663D01*
X116017167Y-96034052D01*
X116013034Y-96037155D01*
X116013031Y-96037157D01*
X115845218Y-96163155D01*
X115831950Y-96173117D01*
X115828378Y-96176855D01*
X115678362Y-96333838D01*
X115671934Y-96340564D01*
X115541414Y-96531899D01*
X115443897Y-96741981D01*
X115382002Y-96965169D01*
X115357390Y-97195469D01*
X115357687Y-97200622D01*
X115357687Y-97200625D01*
X115367128Y-97364360D01*
X115370722Y-97426697D01*
X115371859Y-97431743D01*
X115371860Y-97431749D01*
X115390144Y-97512880D01*
X115421641Y-97652642D01*
X115423583Y-97657424D01*
X115423584Y-97657428D01*
X115506835Y-97862450D01*
X115508779Y-97867237D01*
X115629796Y-98064719D01*
X115781442Y-98239784D01*
X115959644Y-98387730D01*
X116159617Y-98504584D01*
X116375989Y-98587209D01*
X116381055Y-98588240D01*
X116381056Y-98588240D01*
X116434141Y-98599040D01*
X116602951Y-98633385D01*
X116733619Y-98638176D01*
X116829244Y-98641683D01*
X116829248Y-98641683D01*
X116834408Y-98641872D01*
X116839528Y-98641216D01*
X116839530Y-98641216D01*
X116912565Y-98631860D01*
X117064142Y-98612442D01*
X117069090Y-98610957D01*
X117069097Y-98610956D01*
X117281042Y-98547369D01*
X117285985Y-98545886D01*
X117347223Y-98515886D01*
X117489344Y-98446262D01*
X117489347Y-98446260D01*
X117493979Y-98443991D01*
X117682538Y-98309494D01*
X117846598Y-98146005D01*
X117981753Y-97957917D01*
X118028936Y-97862450D01*
X118082079Y-97754922D01*
X118082080Y-97754920D01*
X118084373Y-97750280D01*
X118116995Y-97642909D01*
X118155935Y-97583546D01*
X118220789Y-97554658D01*
X118290965Y-97565419D01*
X118317614Y-97582243D01*
X118373686Y-97628383D01*
X118507614Y-97685647D01*
X118652232Y-97703019D01*
X118661088Y-97701545D01*
X118661090Y-97701545D01*
X118788123Y-97680402D01*
X118788126Y-97680401D01*
X118795913Y-97679105D01*
X118853142Y-97653864D01*
X120045997Y-96965169D01*
X120412158Y-96753766D01*
X120481153Y-96737028D01*
X120548245Y-96760248D01*
X120577800Y-96789806D01*
X120606414Y-96829995D01*
X120606428Y-96830014D01*
X120607403Y-96831383D01*
X120608444Y-96832689D01*
X120608452Y-96832700D01*
X120980756Y-97299913D01*
X121007566Y-97365653D01*
X120994578Y-97435452D01*
X120945916Y-97487148D01*
X120911315Y-97501029D01*
X120875207Y-97509598D01*
X120717127Y-97588932D01*
X120711794Y-97593274D01*
X120711792Y-97593275D01*
X120638188Y-97653198D01*
X120638182Y-97653204D01*
X120635694Y-97655229D01*
X120069443Y-98221480D01*
X120067397Y-98224000D01*
X120006757Y-98298680D01*
X120006755Y-98298683D01*
X120002415Y-98304028D01*
X119923357Y-98462247D01*
X119921679Y-98469373D01*
X119921678Y-98469376D01*
X119887837Y-98613099D01*
X119882819Y-98634409D01*
X119882825Y-98641725D01*
X119882825Y-98641728D01*
X119882926Y-98757256D01*
X119862983Y-98825394D01*
X119809368Y-98871934D01*
X119757035Y-98883366D01*
X119640461Y-98883467D01*
X119626025Y-98885163D01*
X119468288Y-98922596D01*
X119454624Y-98927569D01*
X119309340Y-99000480D01*
X119297855Y-99007911D01*
X119224300Y-99067793D01*
X119219529Y-99072101D01*
X119131125Y-99160505D01*
X119123511Y-99174449D01*
X119123642Y-99176282D01*
X119127893Y-99182897D01*
X120813871Y-100868875D01*
X120827815Y-100876489D01*
X120829648Y-100876358D01*
X120836262Y-100872108D01*
X120927876Y-100780493D01*
X120932224Y-100775670D01*
X120992821Y-100701043D01*
X121000243Y-100689532D01*
X121072897Y-100544131D01*
X121077847Y-100530457D01*
X121115002Y-100372658D01*
X121116674Y-100358213D01*
X121116574Y-100243244D01*
X121136517Y-100175106D01*
X121190132Y-100128567D01*
X121242463Y-100117135D01*
X121366915Y-100117027D01*
X121452961Y-100096608D01*
X121531886Y-100077878D01*
X121531887Y-100077878D01*
X121539007Y-100076188D01*
X121567713Y-100061782D01*
X121690938Y-99999940D01*
X121697087Y-99996854D01*
X121778520Y-99930557D01*
X121780787Y-99928290D01*
X121780797Y-99928281D01*
X121822492Y-99886586D01*
X121884804Y-99852560D01*
X121955619Y-99857625D01*
X122000682Y-99886586D01*
X122642618Y-100528522D01*
X122676644Y-100590834D01*
X122671579Y-100661649D01*
X122662645Y-100680611D01*
X122376136Y-101176858D01*
X122350895Y-101234087D01*
X122349599Y-101241874D01*
X122349598Y-101241877D01*
X122330719Y-101355308D01*
X122326981Y-101377768D01*
X122344353Y-101522386D01*
X122401617Y-101656314D01*
X122447580Y-101712172D01*
X122475418Y-101777480D01*
X122463527Y-101847474D01*
X122415683Y-101899928D01*
X122389429Y-101911995D01*
X122252314Y-101956811D01*
X122247726Y-101959199D01*
X122247722Y-101959201D01*
X122081294Y-102045838D01*
X122046872Y-102063757D01*
X122042739Y-102066860D01*
X122042736Y-102066862D01*
X121880493Y-102188678D01*
X121861655Y-102202822D01*
X121701639Y-102370269D01*
X121571119Y-102561604D01*
X121473602Y-102771686D01*
X121411707Y-102994874D01*
X121387095Y-103225174D01*
X121387392Y-103230327D01*
X121387392Y-103230330D01*
X121393067Y-103328746D01*
X121400427Y-103456402D01*
X121401564Y-103461448D01*
X121401565Y-103461454D01*
X121433741Y-103604228D01*
X121451346Y-103682347D01*
X121453288Y-103687129D01*
X121453289Y-103687133D01*
X121522660Y-103857973D01*
X121538484Y-103896942D01*
X121659501Y-104094424D01*
X121811147Y-104269489D01*
X121989349Y-104417435D01*
X122189322Y-104534289D01*
X122194147Y-104536131D01*
X122194148Y-104536132D01*
X122268665Y-104564588D01*
X122405694Y-104616914D01*
X122410760Y-104617945D01*
X122410761Y-104617945D01*
X122459584Y-104627878D01*
X122632656Y-104663090D01*
X122763324Y-104667881D01*
X122858949Y-104671388D01*
X122858953Y-104671388D01*
X122864113Y-104671577D01*
X122869233Y-104670921D01*
X122869235Y-104670921D01*
X122942270Y-104661565D01*
X123093847Y-104642147D01*
X123098795Y-104640662D01*
X123098802Y-104640661D01*
X123310747Y-104577074D01*
X123315690Y-104575591D01*
X123320324Y-104573321D01*
X123519049Y-104475967D01*
X123519052Y-104475965D01*
X123523684Y-104473696D01*
X123712243Y-104339199D01*
X123876303Y-104175710D01*
X124011458Y-103987622D01*
X124026277Y-103957639D01*
X124111784Y-103784627D01*
X124111785Y-103784625D01*
X124114078Y-103779985D01*
X124181408Y-103558376D01*
X124211640Y-103328746D01*
X124213327Y-103259705D01*
X124207032Y-103183139D01*
X124194773Y-103034023D01*
X124194772Y-103034017D01*
X124194349Y-103028872D01*
X124173567Y-102946135D01*
X124176371Y-102875194D01*
X124217084Y-102817031D01*
X124282780Y-102790112D01*
X124316456Y-102791150D01*
X124346976Y-102796230D01*
X124378910Y-102801545D01*
X124378912Y-102801545D01*
X124387768Y-102803019D01*
X124532386Y-102785647D01*
X124666314Y-102728383D01*
X124724443Y-102680551D01*
X124772684Y-102640856D01*
X124772686Y-102640854D01*
X124778789Y-102635832D01*
X124815730Y-102585358D01*
X125723854Y-101012441D01*
X125775236Y-100963448D01*
X125844950Y-100950012D01*
X125883316Y-100959935D01*
X126003785Y-101012441D01*
X126125267Y-101065389D01*
X126126854Y-101065981D01*
X126126862Y-101065984D01*
X126258585Y-101115102D01*
X126784882Y-101311353D01*
X127456833Y-101521286D01*
X128139154Y-101694573D01*
X128140801Y-101694898D01*
X128140816Y-101694901D01*
X128828178Y-101830379D01*
X128828183Y-101830380D01*
X128829848Y-101830708D01*
X129197711Y-101882735D01*
X129483145Y-101923105D01*
X129547793Y-101952449D01*
X129586314Y-102012087D01*
X129591500Y-102047863D01*
X129591500Y-103848134D01*
X129598255Y-103910316D01*
X129649385Y-104046705D01*
X129736739Y-104163261D01*
X129853295Y-104250615D01*
X129861704Y-104253767D01*
X129861705Y-104253768D01*
X129921164Y-104276058D01*
X129977929Y-104318699D01*
X130002629Y-104385261D01*
X129987422Y-104454609D01*
X129968029Y-104481091D01*
X129908971Y-104542892D01*
X129901639Y-104550564D01*
X129898725Y-104554836D01*
X129898724Y-104554837D01*
X129872276Y-104593609D01*
X129771119Y-104741899D01*
X129673602Y-104951981D01*
X129611707Y-105175169D01*
X129587095Y-105405469D01*
X129587392Y-105410622D01*
X129587392Y-105410625D01*
X129598971Y-105611452D01*
X129600427Y-105636697D01*
X129601564Y-105641743D01*
X129601565Y-105641749D01*
X129633741Y-105784523D01*
X129651346Y-105862642D01*
X129653288Y-105867424D01*
X129653289Y-105867428D01*
X129736540Y-106072450D01*
X129738484Y-106077237D01*
X129859501Y-106274719D01*
X130011147Y-106449784D01*
X130189349Y-106597730D01*
X130389322Y-106714584D01*
X130394147Y-106716426D01*
X130394148Y-106716427D01*
X130434482Y-106731829D01*
X130605694Y-106797209D01*
X130610760Y-106798240D01*
X130610761Y-106798240D01*
X130663846Y-106809040D01*
X130832656Y-106843385D01*
X130963324Y-106848176D01*
X131058949Y-106851683D01*
X131058953Y-106851683D01*
X131064113Y-106851872D01*
X131069233Y-106851216D01*
X131069235Y-106851216D01*
X131142270Y-106841860D01*
X131293847Y-106822442D01*
X131298795Y-106820957D01*
X131298802Y-106820956D01*
X131510747Y-106757369D01*
X131515690Y-106755886D01*
X131572531Y-106728040D01*
X131719049Y-106656262D01*
X131719052Y-106656260D01*
X131723684Y-106653991D01*
X131912243Y-106519494D01*
X132076303Y-106356005D01*
X132211458Y-106167917D01*
X132258641Y-106072450D01*
X132301385Y-105985963D01*
X146994757Y-105985963D01*
X147011175Y-106181483D01*
X147065258Y-106370091D01*
X147068076Y-106375574D01*
X147152123Y-106539113D01*
X147152126Y-106539117D01*
X147154944Y-106544601D01*
X147276818Y-106698369D01*
X147281511Y-106702363D01*
X147281512Y-106702364D01*
X147420858Y-106820956D01*
X147426238Y-106825535D01*
X147431616Y-106828541D01*
X147431618Y-106828542D01*
X147511876Y-106873396D01*
X147597513Y-106921257D01*
X147784118Y-106981889D01*
X147978946Y-107005121D01*
X147985081Y-107004649D01*
X147985083Y-107004649D01*
X148168434Y-106990541D01*
X148168438Y-106990540D01*
X148174576Y-106990068D01*
X148363556Y-106937303D01*
X148538689Y-106848837D01*
X148545426Y-106843574D01*
X148655763Y-106757369D01*
X148693303Y-106728040D01*
X148723084Y-106693539D01*
X148817485Y-106584173D01*
X148817485Y-106584172D01*
X148821509Y-106579511D01*
X148853901Y-106522492D01*
X148893329Y-106453086D01*
X148918425Y-106408909D01*
X148980358Y-106222732D01*
X149004949Y-106028071D01*
X149005341Y-106000000D01*
X148986194Y-105804728D01*
X148984413Y-105798829D01*
X148984412Y-105798824D01*
X148931265Y-105622793D01*
X148929484Y-105616894D01*
X148837370Y-105443653D01*
X148713361Y-105291602D01*
X148562180Y-105166535D01*
X148389585Y-105073213D01*
X148295869Y-105044203D01*
X148208039Y-105017015D01*
X148208036Y-105017014D01*
X148202152Y-105015193D01*
X148196027Y-105014549D01*
X148196026Y-105014549D01*
X148013147Y-104995327D01*
X148013146Y-104995327D01*
X148007019Y-104994683D01*
X147884383Y-105005844D01*
X147817759Y-105011907D01*
X147817758Y-105011907D01*
X147811618Y-105012466D01*
X147805704Y-105014207D01*
X147805702Y-105014207D01*
X147676734Y-105052165D01*
X147623393Y-105067864D01*
X147617928Y-105070721D01*
X147454972Y-105155912D01*
X147454968Y-105155915D01*
X147449512Y-105158767D01*
X147444712Y-105162627D01*
X147444711Y-105162627D01*
X147429112Y-105175169D01*
X147296600Y-105281711D01*
X147170480Y-105432016D01*
X147167516Y-105437408D01*
X147167513Y-105437412D01*
X147128135Y-105509041D01*
X147075956Y-105603954D01*
X147074095Y-105609821D01*
X147074094Y-105609823D01*
X147046292Y-105697466D01*
X147016628Y-105790978D01*
X146994757Y-105985963D01*
X132301385Y-105985963D01*
X132311784Y-105964922D01*
X132311785Y-105964920D01*
X132314078Y-105960280D01*
X132381408Y-105738671D01*
X132411640Y-105509041D01*
X132413327Y-105440000D01*
X132401519Y-105296376D01*
X132394773Y-105214318D01*
X132394772Y-105214312D01*
X132394349Y-105209167D01*
X132345626Y-105015193D01*
X132339184Y-104989544D01*
X132339183Y-104989540D01*
X132337925Y-104984533D01*
X132335866Y-104979797D01*
X132247630Y-104776868D01*
X132247628Y-104776865D01*
X132245570Y-104772131D01*
X132119764Y-104577665D01*
X132116282Y-104573838D01*
X132029848Y-104478848D01*
X131998796Y-104415002D01*
X132007192Y-104344504D01*
X132052369Y-104289736D01*
X132078812Y-104276067D01*
X132138297Y-104253767D01*
X132146705Y-104250615D01*
X132263261Y-104163261D01*
X132350615Y-104046705D01*
X132401745Y-103910316D01*
X132408500Y-103848134D01*
X132408500Y-102045338D01*
X132428502Y-101977217D01*
X132482158Y-101930724D01*
X132518162Y-101920402D01*
X132674735Y-101899928D01*
X133033969Y-101852953D01*
X133033980Y-101852951D01*
X133035672Y-101852730D01*
X133155684Y-101830379D01*
X133726079Y-101724148D01*
X133726081Y-101724148D01*
X133727754Y-101723836D01*
X134411852Y-101557703D01*
X134748908Y-101456261D01*
X135084338Y-101355308D01*
X135084349Y-101355304D01*
X135085965Y-101354818D01*
X135355307Y-101257583D01*
X135746529Y-101116349D01*
X135746549Y-101116341D01*
X135748120Y-101115774D01*
X135749669Y-101115118D01*
X135749710Y-101115102D01*
X136191909Y-100927854D01*
X136262437Y-100919710D01*
X136326172Y-100950990D01*
X136350159Y-100980880D01*
X137256770Y-102551176D01*
X137293711Y-102601650D01*
X137299814Y-102606672D01*
X137299816Y-102606674D01*
X137341357Y-102640856D01*
X137406186Y-102694201D01*
X137414443Y-102697732D01*
X137414444Y-102697732D01*
X137449472Y-102712709D01*
X137540114Y-102751465D01*
X137684732Y-102768837D01*
X137693588Y-102767363D01*
X137693590Y-102767363D01*
X137723190Y-102762436D01*
X137754733Y-102757186D01*
X137825212Y-102765732D01*
X137879884Y-102811026D01*
X137901388Y-102878688D01*
X137896837Y-102915147D01*
X137888244Y-102946135D01*
X137884207Y-102960692D01*
X137859595Y-103190992D01*
X137859892Y-103196145D01*
X137859892Y-103196148D01*
X137867729Y-103332064D01*
X137872927Y-103422220D01*
X137874064Y-103427266D01*
X137874065Y-103427272D01*
X137902456Y-103553249D01*
X137923846Y-103648165D01*
X137925788Y-103652947D01*
X137925789Y-103652951D01*
X137979257Y-103784627D01*
X138010984Y-103862760D01*
X138063710Y-103948801D01*
X138123706Y-104046705D01*
X138132001Y-104060242D01*
X138283647Y-104235307D01*
X138461849Y-104383253D01*
X138661822Y-104500107D01*
X138878194Y-104582732D01*
X138883260Y-104583763D01*
X138883261Y-104583763D01*
X138925979Y-104592454D01*
X139105156Y-104628908D01*
X139235824Y-104633699D01*
X139331449Y-104637206D01*
X139331453Y-104637206D01*
X139336613Y-104637395D01*
X139341733Y-104636739D01*
X139341735Y-104636739D01*
X139414770Y-104627383D01*
X139566347Y-104607965D01*
X139571295Y-104606480D01*
X139571302Y-104606479D01*
X139783247Y-104542892D01*
X139788190Y-104541409D01*
X139798962Y-104536132D01*
X139991549Y-104441785D01*
X139991552Y-104441783D01*
X139996184Y-104439514D01*
X140184743Y-104305017D01*
X140348803Y-104141528D01*
X140483958Y-103953440D01*
X140488544Y-103944162D01*
X140584284Y-103750445D01*
X140584285Y-103750443D01*
X140586578Y-103745803D01*
X140653908Y-103524194D01*
X140684140Y-103294564D01*
X140685827Y-103225523D01*
X140670083Y-103034023D01*
X140667286Y-103000000D01*
X143386526Y-103000000D01*
X143406391Y-103252403D01*
X143407545Y-103257210D01*
X143407546Y-103257216D01*
X143445179Y-103413968D01*
X143465495Y-103498591D01*
X143467388Y-103503162D01*
X143467389Y-103503164D01*
X143543592Y-103687133D01*
X143562384Y-103732502D01*
X143694672Y-103948376D01*
X143859102Y-104140898D01*
X144051624Y-104305328D01*
X144267498Y-104437616D01*
X144272068Y-104439509D01*
X144272072Y-104439511D01*
X144496836Y-104532611D01*
X144501409Y-104534505D01*
X144568300Y-104550564D01*
X144742784Y-104592454D01*
X144742790Y-104592455D01*
X144747597Y-104593609D01*
X144847416Y-104601465D01*
X144934345Y-104608307D01*
X144934352Y-104608307D01*
X144936801Y-104608500D01*
X145063199Y-104608500D01*
X145065648Y-104608307D01*
X145065655Y-104608307D01*
X145152584Y-104601465D01*
X145252403Y-104593609D01*
X145257210Y-104592455D01*
X145257216Y-104592454D01*
X145431700Y-104550564D01*
X145498591Y-104534505D01*
X145503164Y-104532611D01*
X145727928Y-104439511D01*
X145727932Y-104439509D01*
X145732502Y-104437616D01*
X145948376Y-104305328D01*
X146140898Y-104140898D01*
X146305328Y-103948376D01*
X146437616Y-103732502D01*
X146456409Y-103687133D01*
X146532611Y-103503164D01*
X146532612Y-103503162D01*
X146534505Y-103498591D01*
X146554821Y-103413968D01*
X146592454Y-103257216D01*
X146592455Y-103257210D01*
X146593609Y-103252403D01*
X146613474Y-103000000D01*
X146593609Y-102747597D01*
X146588997Y-102728383D01*
X146546453Y-102551176D01*
X146534505Y-102501409D01*
X146480185Y-102370269D01*
X146439511Y-102272072D01*
X146439509Y-102272068D01*
X146437616Y-102267498D01*
X146305328Y-102051624D01*
X146140898Y-101859102D01*
X146133699Y-101852953D01*
X146035155Y-101768789D01*
X145948376Y-101694672D01*
X145732502Y-101562384D01*
X145727932Y-101560491D01*
X145727928Y-101560489D01*
X145503164Y-101467389D01*
X145503162Y-101467388D01*
X145498591Y-101465495D01*
X145413968Y-101445179D01*
X145257216Y-101407546D01*
X145257210Y-101407545D01*
X145252403Y-101406391D01*
X145152584Y-101398535D01*
X145065655Y-101391693D01*
X145065648Y-101391693D01*
X145063199Y-101391500D01*
X144936801Y-101391500D01*
X144934352Y-101391693D01*
X144934345Y-101391693D01*
X144847416Y-101398535D01*
X144747597Y-101406391D01*
X144742790Y-101407545D01*
X144742784Y-101407546D01*
X144586032Y-101445179D01*
X144501409Y-101465495D01*
X144496838Y-101467388D01*
X144496836Y-101467389D01*
X144272072Y-101560489D01*
X144272068Y-101560491D01*
X144267498Y-101562384D01*
X144051624Y-101694672D01*
X143964845Y-101768789D01*
X143866302Y-101852953D01*
X143859102Y-101859102D01*
X143694672Y-102051624D01*
X143562384Y-102267498D01*
X143560491Y-102272068D01*
X143560489Y-102272072D01*
X143519815Y-102370269D01*
X143465495Y-102501409D01*
X143453547Y-102551176D01*
X143411004Y-102728383D01*
X143406391Y-102747597D01*
X143386526Y-103000000D01*
X140667286Y-103000000D01*
X140667273Y-102999841D01*
X140667272Y-102999835D01*
X140666849Y-102994690D01*
X140618436Y-102801948D01*
X140611684Y-102775067D01*
X140611683Y-102775063D01*
X140610425Y-102770056D01*
X140602805Y-102752531D01*
X140520130Y-102562391D01*
X140520128Y-102562388D01*
X140518070Y-102557654D01*
X140392264Y-102363188D01*
X140236387Y-102191881D01*
X140232336Y-102188682D01*
X140232332Y-102188678D01*
X140058677Y-102051534D01*
X140058672Y-102051531D01*
X140054623Y-102048333D01*
X140050107Y-102045840D01*
X140050104Y-102045838D01*
X139856379Y-101938896D01*
X139856375Y-101938894D01*
X139851855Y-101936399D01*
X139846986Y-101934675D01*
X139846982Y-101934673D01*
X139680936Y-101875873D01*
X139623400Y-101834279D01*
X139597484Y-101768181D01*
X139611418Y-101698565D01*
X139625696Y-101677047D01*
X139670883Y-101622132D01*
X139728147Y-101488204D01*
X139745519Y-101343586D01*
X139740240Y-101311867D01*
X139729799Y-101249136D01*
X141544832Y-101249136D01*
X141544963Y-101250969D01*
X141549213Y-101257583D01*
X141640828Y-101349197D01*
X141645651Y-101353545D01*
X141720278Y-101414142D01*
X141731789Y-101421564D01*
X141877190Y-101494218D01*
X141890864Y-101499168D01*
X142048663Y-101536323D01*
X142063108Y-101537995D01*
X142225225Y-101537854D01*
X142239661Y-101536158D01*
X142397398Y-101498725D01*
X142411062Y-101493752D01*
X142556348Y-101420840D01*
X142567831Y-101413411D01*
X142641381Y-101353531D01*
X142646155Y-101349221D01*
X142805274Y-101190101D01*
X142812885Y-101176163D01*
X142812753Y-101174327D01*
X142808504Y-101167715D01*
X142227025Y-100586235D01*
X142213082Y-100578622D01*
X142211248Y-100578753D01*
X142204634Y-100583004D01*
X141552446Y-101235192D01*
X141544832Y-101249136D01*
X139729799Y-101249136D01*
X139722902Y-101207695D01*
X139722901Y-101207692D01*
X139721605Y-101199905D01*
X139696364Y-101142676D01*
X138785699Y-99565358D01*
X138768961Y-99496363D01*
X138792181Y-99429271D01*
X138816467Y-99403681D01*
X139304761Y-99015970D01*
X139370548Y-98989275D01*
X139440324Y-99002385D01*
X139491935Y-99051137D01*
X139505707Y-99085554D01*
X139516705Y-99131900D01*
X139519987Y-99138439D01*
X139519987Y-99138440D01*
X139539569Y-99177459D01*
X139596039Y-99289980D01*
X139600381Y-99295313D01*
X139600382Y-99295315D01*
X139660305Y-99368919D01*
X139660311Y-99368925D01*
X139662336Y-99371413D01*
X140228587Y-99937664D01*
X140231107Y-99939710D01*
X140305787Y-100000350D01*
X140305790Y-100000352D01*
X140311135Y-100004692D01*
X140469354Y-100083750D01*
X140476480Y-100085428D01*
X140476483Y-100085429D01*
X140634392Y-100122611D01*
X140634396Y-100122611D01*
X140641516Y-100124288D01*
X140648832Y-100124282D01*
X140648835Y-100124282D01*
X140753772Y-100124190D01*
X140764363Y-100124181D01*
X140832501Y-100144124D01*
X140879041Y-100197739D01*
X140890473Y-100250072D01*
X140890574Y-100366646D01*
X140892270Y-100381082D01*
X140929703Y-100538819D01*
X140934676Y-100552483D01*
X141007587Y-100697767D01*
X141015018Y-100709252D01*
X141074900Y-100782807D01*
X141079208Y-100787578D01*
X141167612Y-100875982D01*
X141181556Y-100883596D01*
X141183389Y-100883465D01*
X141190004Y-100879214D01*
X141853872Y-100215346D01*
X142578622Y-100215346D01*
X142578753Y-100217179D01*
X142583004Y-100223794D01*
X143164485Y-100805274D01*
X143178423Y-100812885D01*
X143180259Y-100812753D01*
X143186871Y-100808504D01*
X143349187Y-100646188D01*
X143353555Y-100641344D01*
X143414137Y-100566735D01*
X143421564Y-100555218D01*
X143494220Y-100409812D01*
X143499167Y-100396144D01*
X143536323Y-100238343D01*
X143537995Y-100223900D01*
X143537854Y-100061782D01*
X143536158Y-100047346D01*
X143498725Y-99889609D01*
X143493752Y-99875945D01*
X143420841Y-99730661D01*
X143413410Y-99719176D01*
X143353528Y-99645621D01*
X143349220Y-99640850D01*
X143260816Y-99552446D01*
X143246872Y-99544832D01*
X143245039Y-99544963D01*
X143238424Y-99549214D01*
X142586236Y-100201402D01*
X142578622Y-100215346D01*
X141853872Y-100215346D01*
X142875982Y-99193236D01*
X142883596Y-99179292D01*
X142883465Y-99177459D01*
X142879215Y-99170845D01*
X142787600Y-99079231D01*
X142782777Y-99074883D01*
X142708150Y-99014286D01*
X142696639Y-99006864D01*
X142551238Y-98934210D01*
X142537564Y-98929260D01*
X142379765Y-98892105D01*
X142365320Y-98890433D01*
X142250351Y-98890533D01*
X142182213Y-98870590D01*
X142135674Y-98816975D01*
X142124242Y-98764642D01*
X142124236Y-98757256D01*
X142124134Y-98640192D01*
X142083295Y-98468100D01*
X142077069Y-98455693D01*
X142007047Y-98316169D01*
X142003961Y-98310020D01*
X141979109Y-98279494D01*
X141939695Y-98231081D01*
X141939689Y-98231075D01*
X141937664Y-98228587D01*
X141886586Y-98177509D01*
X141852560Y-98115197D01*
X141857625Y-98044382D01*
X141886586Y-97999319D01*
X142528522Y-97357383D01*
X142590834Y-97323357D01*
X142661649Y-97328422D01*
X142680617Y-97337359D01*
X142908094Y-97468693D01*
X143176858Y-97623864D01*
X143234087Y-97649105D01*
X143241874Y-97650401D01*
X143241877Y-97650402D01*
X143368910Y-97671545D01*
X143368912Y-97671545D01*
X143377768Y-97673019D01*
X143522386Y-97655647D01*
X143656314Y-97598383D01*
X143708758Y-97555229D01*
X143774069Y-97527390D01*
X143844063Y-97539281D01*
X143896517Y-97587125D01*
X143909054Y-97614851D01*
X143909914Y-97617595D01*
X143911051Y-97622642D01*
X143912993Y-97627424D01*
X143912995Y-97627431D01*
X143960869Y-97745329D01*
X143998189Y-97837237D01*
X144119206Y-98034719D01*
X144270852Y-98209784D01*
X144449054Y-98357730D01*
X144649027Y-98474584D01*
X144865399Y-98557209D01*
X144870465Y-98558240D01*
X144870466Y-98558240D01*
X144923551Y-98569040D01*
X145092361Y-98603385D01*
X145223029Y-98608176D01*
X145318654Y-98611683D01*
X145318658Y-98611683D01*
X145323818Y-98611872D01*
X145328938Y-98611216D01*
X145328940Y-98611216D01*
X145401975Y-98601860D01*
X145553552Y-98582442D01*
X145558500Y-98580957D01*
X145558507Y-98580956D01*
X145770452Y-98517369D01*
X145775395Y-98515886D01*
X145780029Y-98513616D01*
X145978754Y-98416262D01*
X145978757Y-98416260D01*
X145983389Y-98413991D01*
X146171948Y-98279494D01*
X146336008Y-98116005D01*
X146471163Y-97927917D01*
X146518346Y-97832450D01*
X146571489Y-97724922D01*
X146571490Y-97724920D01*
X146573783Y-97720280D01*
X146641113Y-97498671D01*
X146671345Y-97269041D01*
X146673032Y-97200000D01*
X146666737Y-97123434D01*
X146654478Y-96974318D01*
X146654477Y-96974312D01*
X146654054Y-96969167D01*
X146609002Y-96789806D01*
X146598889Y-96749544D01*
X146598888Y-96749540D01*
X146597630Y-96744533D01*
X146595571Y-96739797D01*
X146507335Y-96536868D01*
X146507333Y-96536865D01*
X146505275Y-96532131D01*
X146379469Y-96337665D01*
X146223592Y-96166358D01*
X146219541Y-96163159D01*
X146219537Y-96163155D01*
X146045882Y-96026011D01*
X146045877Y-96026008D01*
X146041828Y-96022810D01*
X146037312Y-96020317D01*
X146037309Y-96020315D01*
X145843584Y-95913373D01*
X145843580Y-95913371D01*
X145839060Y-95910876D01*
X145834191Y-95909152D01*
X145834187Y-95909150D01*
X145625608Y-95835288D01*
X145625604Y-95835287D01*
X145620733Y-95833562D01*
X145615640Y-95832655D01*
X145615637Y-95832654D01*
X145397800Y-95793851D01*
X145397794Y-95793850D01*
X145392711Y-95792945D01*
X145319801Y-95792054D01*
X145166286Y-95790179D01*
X145166284Y-95790179D01*
X145161116Y-95790116D01*
X145014702Y-95812521D01*
X144935180Y-95824689D01*
X144864817Y-95815221D01*
X144810743Y-95769216D01*
X144790126Y-95701278D01*
X144791831Y-95679452D01*
X144801545Y-95621090D01*
X144801545Y-95621088D01*
X144803019Y-95612232D01*
X144785647Y-95467614D01*
X144728383Y-95333686D01*
X144635832Y-95221211D01*
X144585358Y-95184270D01*
X143012592Y-94276233D01*
X142963599Y-94224851D01*
X142950163Y-94155137D01*
X142960174Y-94116569D01*
X143056179Y-93897343D01*
X143056862Y-93895784D01*
X143303977Y-93236599D01*
X143515083Y-92565015D01*
X143548661Y-92433764D01*
X143689144Y-91884628D01*
X143689561Y-91882998D01*
X143716025Y-91749957D01*
X143767081Y-91493277D01*
X143826901Y-91192542D01*
X143923698Y-90516638D01*
X143953155Y-90452040D01*
X144012860Y-90413624D01*
X144048425Y-90408500D01*
X145848134Y-90408500D01*
X145910316Y-90401745D01*
X146046705Y-90350615D01*
X146163261Y-90263261D01*
X146250615Y-90146705D01*
X146275180Y-90081178D01*
X146317822Y-90024414D01*
X146384383Y-89999714D01*
X146453732Y-90014921D01*
X146473647Y-90028464D01*
X146538724Y-90082492D01*
X146629349Y-90157730D01*
X146829322Y-90274584D01*
X147045694Y-90357209D01*
X147050760Y-90358240D01*
X147050761Y-90358240D01*
X147103846Y-90369040D01*
X147272656Y-90403385D01*
X147402089Y-90408131D01*
X147498949Y-90411683D01*
X147498953Y-90411683D01*
X147504113Y-90411872D01*
X147509233Y-90411216D01*
X147509235Y-90411216D01*
X147583166Y-90401745D01*
X147733847Y-90382442D01*
X147738795Y-90380957D01*
X147738802Y-90380956D01*
X147950747Y-90317369D01*
X147955690Y-90315886D01*
X148036236Y-90276427D01*
X148159049Y-90216262D01*
X148159052Y-90216260D01*
X148163684Y-90213991D01*
X148352243Y-90079494D01*
X148516303Y-89916005D01*
X148651458Y-89727917D01*
X148698641Y-89632450D01*
X148751784Y-89524922D01*
X148751785Y-89524920D01*
X148754078Y-89520280D01*
X148821408Y-89298671D01*
X148851640Y-89069041D01*
X148853327Y-89000000D01*
X148847032Y-88923434D01*
X148834773Y-88774318D01*
X148834772Y-88774312D01*
X148834349Y-88769167D01*
X148777925Y-88544533D01*
X148775866Y-88539797D01*
X148687630Y-88336868D01*
X148687628Y-88336865D01*
X148685570Y-88332131D01*
X148559764Y-88137665D01*
X148403887Y-87966358D01*
X148399836Y-87963159D01*
X148399832Y-87963155D01*
X148226177Y-87826011D01*
X148226172Y-87826008D01*
X148222123Y-87822810D01*
X148217607Y-87820317D01*
X148217604Y-87820315D01*
X148023879Y-87713373D01*
X148023875Y-87713371D01*
X148019355Y-87710876D01*
X148014486Y-87709152D01*
X148014482Y-87709150D01*
X147805903Y-87635288D01*
X147805899Y-87635287D01*
X147801028Y-87633562D01*
X147795935Y-87632655D01*
X147795932Y-87632654D01*
X147578095Y-87593851D01*
X147578089Y-87593850D01*
X147573006Y-87592945D01*
X147500096Y-87592054D01*
X147346581Y-87590179D01*
X147346579Y-87590179D01*
X147341411Y-87590116D01*
X147112464Y-87625150D01*
X146892314Y-87697106D01*
X146887726Y-87699494D01*
X146887722Y-87699496D01*
X146691461Y-87801663D01*
X146686872Y-87804052D01*
X146682739Y-87807155D01*
X146682736Y-87807157D01*
X146534319Y-87918592D01*
X146501655Y-87943117D01*
X146484170Y-87961414D01*
X146422646Y-87996844D01*
X146351733Y-87993387D01*
X146293947Y-87952141D01*
X146275094Y-87918592D01*
X146253768Y-87861705D01*
X146253767Y-87861704D01*
X146250615Y-87853295D01*
X146163261Y-87736739D01*
X146046705Y-87649385D01*
X145910316Y-87598255D01*
X145848134Y-87591500D01*
X144046418Y-87591500D01*
X143978297Y-87571498D01*
X143931804Y-87517842D01*
X143921569Y-87482491D01*
X143842127Y-86898761D01*
X143842125Y-86898748D01*
X143841895Y-86897059D01*
X143833629Y-86853928D01*
X143709696Y-86207315D01*
X143709695Y-86207309D01*
X143709379Y-86205662D01*
X143703049Y-86180176D01*
X143540076Y-85524092D01*
X143540072Y-85524079D01*
X143539666Y-85522443D01*
X143396686Y-85056231D01*
X143333755Y-84851033D01*
X143333750Y-84851017D01*
X143333254Y-84849401D01*
X143090747Y-84188507D01*
X142955748Y-83874289D01*
X142947236Y-83803804D01*
X142978181Y-83739907D01*
X143008515Y-83715433D01*
X144571176Y-82813230D01*
X144621650Y-82776289D01*
X144714201Y-82663814D01*
X144771465Y-82529886D01*
X144788837Y-82385268D01*
X144783028Y-82350363D01*
X144777003Y-82314165D01*
X144785549Y-82243685D01*
X144830844Y-82189014D01*
X144898505Y-82167510D01*
X144926413Y-82170008D01*
X144967937Y-82178456D01*
X145078179Y-82200885D01*
X145208847Y-82205676D01*
X145304472Y-82209183D01*
X145304476Y-82209183D01*
X145309636Y-82209372D01*
X145314756Y-82208716D01*
X145314758Y-82208716D01*
X145387793Y-82199360D01*
X145539370Y-82179942D01*
X145544318Y-82178457D01*
X145544325Y-82178456D01*
X145756270Y-82114869D01*
X145761213Y-82113386D01*
X145765847Y-82111116D01*
X145964572Y-82013762D01*
X145964575Y-82013760D01*
X145969207Y-82011491D01*
X146157766Y-81876994D01*
X146321826Y-81713505D01*
X146328140Y-81704719D01*
X146347111Y-81678317D01*
X146456981Y-81525417D01*
X146463790Y-81511641D01*
X146557307Y-81322422D01*
X146557308Y-81322420D01*
X146559601Y-81317780D01*
X146626931Y-81096171D01*
X146657163Y-80866541D01*
X146658850Y-80797500D01*
X146645833Y-80639167D01*
X146640296Y-80571818D01*
X146640295Y-80571812D01*
X146639872Y-80566667D01*
X146601659Y-80414533D01*
X146584707Y-80347044D01*
X146584706Y-80347040D01*
X146583448Y-80342033D01*
X146509472Y-80171899D01*
X146493153Y-80134368D01*
X146493151Y-80134365D01*
X146491093Y-80129631D01*
X146365287Y-79935165D01*
X146209410Y-79763858D01*
X146205359Y-79760659D01*
X146205355Y-79760655D01*
X146031700Y-79623511D01*
X146031695Y-79623508D01*
X146027646Y-79620310D01*
X146023130Y-79617817D01*
X146023127Y-79617815D01*
X145829402Y-79510873D01*
X145829398Y-79510871D01*
X145824878Y-79508376D01*
X145820009Y-79506652D01*
X145820005Y-79506650D01*
X145611426Y-79432788D01*
X145611422Y-79432787D01*
X145606551Y-79431062D01*
X145601458Y-79430155D01*
X145601455Y-79430154D01*
X145383618Y-79391351D01*
X145383612Y-79391350D01*
X145378529Y-79390445D01*
X145305619Y-79389554D01*
X145152104Y-79387679D01*
X145152102Y-79387679D01*
X145146934Y-79387616D01*
X144917987Y-79422650D01*
X144697837Y-79494606D01*
X144693249Y-79496994D01*
X144693245Y-79496996D01*
X144496984Y-79599163D01*
X144492395Y-79601552D01*
X144488262Y-79604655D01*
X144488259Y-79604657D01*
X144311313Y-79737512D01*
X144307178Y-79740617D01*
X144147162Y-79908064D01*
X144144248Y-79912336D01*
X144144247Y-79912337D01*
X144100419Y-79976586D01*
X144016642Y-80099399D01*
X143919125Y-80309481D01*
X143917745Y-80314457D01*
X143899221Y-80381253D01*
X143861742Y-80441551D01*
X143797613Y-80472015D01*
X143727195Y-80462972D01*
X143697743Y-80444877D01*
X143666950Y-80419539D01*
X143642132Y-80399117D01*
X143508204Y-80341853D01*
X143363586Y-80324481D01*
X143354730Y-80325955D01*
X143354728Y-80325955D01*
X143227695Y-80347098D01*
X143227692Y-80347099D01*
X143219905Y-80348395D01*
X143162676Y-80373636D01*
X142314742Y-80863191D01*
X141605578Y-81272627D01*
X141536583Y-81289365D01*
X141469491Y-81266145D01*
X141440191Y-81236945D01*
X141366179Y-81133756D01*
X141366178Y-81133754D01*
X141365197Y-81132387D01*
X141018673Y-80700628D01*
X140991635Y-80634985D01*
X141004380Y-80565142D01*
X141052861Y-80513276D01*
X141087846Y-80499170D01*
X141095535Y-80497345D01*
X141124793Y-80490402D01*
X141241077Y-80432044D01*
X141276724Y-80414154D01*
X141282873Y-80411068D01*
X141290543Y-80404824D01*
X141361812Y-80346802D01*
X141361818Y-80346796D01*
X141364306Y-80344771D01*
X141930557Y-79778520D01*
X141963855Y-79737512D01*
X141993243Y-79701320D01*
X141993245Y-79701317D01*
X141997585Y-79695972D01*
X142076643Y-79537753D01*
X142078322Y-79530624D01*
X142115504Y-79372715D01*
X142115504Y-79372711D01*
X142117181Y-79365591D01*
X142117074Y-79242744D01*
X142137017Y-79174606D01*
X142190632Y-79128066D01*
X142242965Y-79116634D01*
X142359539Y-79116533D01*
X142373975Y-79114837D01*
X142531712Y-79077404D01*
X142545376Y-79072431D01*
X142690660Y-78999520D01*
X142702145Y-78992089D01*
X142775700Y-78932207D01*
X142780471Y-78927899D01*
X142868875Y-78839495D01*
X142876489Y-78825551D01*
X142876358Y-78823718D01*
X142872107Y-78817103D01*
X141849029Y-77794025D01*
X142571515Y-77794025D01*
X142571646Y-77795859D01*
X142575897Y-77802473D01*
X143228085Y-78454661D01*
X143242029Y-78462275D01*
X143243862Y-78462144D01*
X143250476Y-78457894D01*
X143342090Y-78366279D01*
X143346438Y-78361456D01*
X143407035Y-78286829D01*
X143414457Y-78275318D01*
X143487111Y-78129917D01*
X143492061Y-78116243D01*
X143529216Y-77958444D01*
X143530888Y-77943999D01*
X143530747Y-77781882D01*
X143529051Y-77767446D01*
X143491618Y-77609709D01*
X143486645Y-77596045D01*
X143413733Y-77450759D01*
X143406304Y-77439276D01*
X143346424Y-77365726D01*
X143342114Y-77360952D01*
X143182994Y-77201833D01*
X143169056Y-77194222D01*
X143167220Y-77194354D01*
X143160608Y-77198603D01*
X142579128Y-77780082D01*
X142571515Y-77794025D01*
X141849029Y-77794025D01*
X141186129Y-77131125D01*
X141172185Y-77123511D01*
X141170352Y-77123642D01*
X141163738Y-77127892D01*
X141072124Y-77219507D01*
X141067776Y-77224330D01*
X141007179Y-77298957D01*
X140999757Y-77310468D01*
X140927103Y-77455869D01*
X140922153Y-77469543D01*
X140884998Y-77627342D01*
X140883326Y-77641787D01*
X140883426Y-77756756D01*
X140863483Y-77824894D01*
X140809868Y-77871433D01*
X140757537Y-77882865D01*
X140633085Y-77882973D01*
X140596053Y-77891761D01*
X140468114Y-77922122D01*
X140468113Y-77922122D01*
X140460993Y-77923812D01*
X140454454Y-77927094D01*
X140454453Y-77927094D01*
X140382941Y-77962983D01*
X140302913Y-78003146D01*
X140297580Y-78007488D01*
X140297578Y-78007489D01*
X140223974Y-78067412D01*
X140223968Y-78067418D01*
X140221480Y-78069443D01*
X140181668Y-78109255D01*
X140119356Y-78143281D01*
X140048541Y-78138216D01*
X140003478Y-78109255D01*
X139349883Y-77455660D01*
X139315857Y-77393348D01*
X139320922Y-77322533D01*
X139329859Y-77303565D01*
X139332520Y-77298957D01*
X139616364Y-76807324D01*
X139637133Y-76760235D01*
X141537725Y-76760235D01*
X141537856Y-76762068D01*
X141542107Y-76768683D01*
X142194295Y-77420871D01*
X142208239Y-77428485D01*
X142210072Y-77428354D01*
X142216687Y-77424103D01*
X142798167Y-76842622D01*
X142805778Y-76828684D01*
X142805646Y-76826848D01*
X142801397Y-76820236D01*
X142639081Y-76657920D01*
X142634237Y-76653552D01*
X142559628Y-76592970D01*
X142548111Y-76585543D01*
X142402705Y-76512887D01*
X142389037Y-76507940D01*
X142231236Y-76470784D01*
X142216793Y-76469112D01*
X142054675Y-76469253D01*
X142040239Y-76470949D01*
X141882502Y-76508382D01*
X141868838Y-76513355D01*
X141723554Y-76586266D01*
X141712069Y-76593697D01*
X141638514Y-76653579D01*
X141633743Y-76657887D01*
X141545339Y-76746291D01*
X141537725Y-76760235D01*
X139637133Y-76760235D01*
X139641605Y-76750095D01*
X139652229Y-76686267D01*
X139664045Y-76615272D01*
X139664045Y-76615270D01*
X139665519Y-76606414D01*
X139648147Y-76461796D01*
X139590883Y-76327868D01*
X139544757Y-76271812D01*
X139516919Y-76206504D01*
X139528809Y-76136510D01*
X139576654Y-76084056D01*
X139605845Y-76071068D01*
X139682288Y-76048134D01*
X139708190Y-76040363D01*
X139712824Y-76038093D01*
X139911549Y-75940739D01*
X139911552Y-75940737D01*
X139916184Y-75938468D01*
X140104743Y-75803971D01*
X140268803Y-75640482D01*
X140403958Y-75452394D01*
X140428970Y-75401787D01*
X140504284Y-75249399D01*
X140504285Y-75249397D01*
X140506578Y-75244757D01*
X140573908Y-75023148D01*
X140576956Y-75000000D01*
X143386526Y-75000000D01*
X143406391Y-75252403D01*
X143407545Y-75257210D01*
X143407546Y-75257216D01*
X143430957Y-75354730D01*
X143465495Y-75498591D01*
X143467388Y-75503162D01*
X143467389Y-75503164D01*
X143522530Y-75636285D01*
X143562384Y-75732502D01*
X143694672Y-75948376D01*
X143859102Y-76140898D01*
X144051624Y-76305328D01*
X144267498Y-76437616D01*
X144272068Y-76439509D01*
X144272072Y-76439511D01*
X144496836Y-76532611D01*
X144501409Y-76534505D01*
X144586032Y-76554821D01*
X144742784Y-76592454D01*
X144742790Y-76592455D01*
X144747597Y-76593609D01*
X144847416Y-76601465D01*
X144934345Y-76608307D01*
X144934352Y-76608307D01*
X144936801Y-76608500D01*
X145063199Y-76608500D01*
X145065648Y-76608307D01*
X145065655Y-76608307D01*
X145152584Y-76601465D01*
X145252403Y-76593609D01*
X145257210Y-76592455D01*
X145257216Y-76592454D01*
X145413968Y-76554821D01*
X145498591Y-76534505D01*
X145503164Y-76532611D01*
X145727928Y-76439511D01*
X145727932Y-76439509D01*
X145732502Y-76437616D01*
X145948376Y-76305328D01*
X146140898Y-76140898D01*
X146305328Y-75948376D01*
X146437616Y-75732502D01*
X146477471Y-75636285D01*
X146532611Y-75503164D01*
X146532612Y-75503162D01*
X146534505Y-75498591D01*
X146569043Y-75354730D01*
X146592454Y-75257216D01*
X146592455Y-75257210D01*
X146593609Y-75252403D01*
X146613474Y-75000000D01*
X146593609Y-74747597D01*
X146591773Y-74739946D01*
X146544645Y-74543644D01*
X146534505Y-74501409D01*
X146458953Y-74319010D01*
X146439511Y-74272072D01*
X146439509Y-74272068D01*
X146437616Y-74267498D01*
X146305328Y-74051624D01*
X146140898Y-73859102D01*
X145948376Y-73694672D01*
X145732502Y-73562384D01*
X145727932Y-73560491D01*
X145727928Y-73560489D01*
X145503164Y-73467389D01*
X145503162Y-73467388D01*
X145498591Y-73465495D01*
X145413968Y-73445179D01*
X145257216Y-73407546D01*
X145257210Y-73407545D01*
X145252403Y-73406391D01*
X145152584Y-73398535D01*
X145065655Y-73391693D01*
X145065648Y-73391693D01*
X145063199Y-73391500D01*
X144936801Y-73391500D01*
X144934352Y-73391693D01*
X144934345Y-73391693D01*
X144847416Y-73398535D01*
X144747597Y-73406391D01*
X144742790Y-73407545D01*
X144742784Y-73407546D01*
X144586032Y-73445179D01*
X144501409Y-73465495D01*
X144496838Y-73467388D01*
X144496836Y-73467389D01*
X144272072Y-73560489D01*
X144272068Y-73560491D01*
X144267498Y-73562384D01*
X144051624Y-73694672D01*
X143859102Y-73859102D01*
X143694672Y-74051624D01*
X143562384Y-74267498D01*
X143560491Y-74272068D01*
X143560489Y-74272072D01*
X143541047Y-74319010D01*
X143465495Y-74501409D01*
X143455355Y-74543644D01*
X143408228Y-74739946D01*
X143406391Y-74747597D01*
X143386526Y-75000000D01*
X140576956Y-75000000D01*
X140604140Y-74793518D01*
X140605449Y-74739946D01*
X140605745Y-74727842D01*
X140605745Y-74727838D01*
X140605827Y-74724477D01*
X140599532Y-74647911D01*
X140587273Y-74498795D01*
X140587272Y-74498789D01*
X140586849Y-74493644D01*
X140542984Y-74319010D01*
X140531684Y-74274021D01*
X140531683Y-74274017D01*
X140530425Y-74269010D01*
X140527933Y-74263278D01*
X140440130Y-74061345D01*
X140440128Y-74061342D01*
X140438070Y-74056608D01*
X140312264Y-73862142D01*
X140295683Y-73843919D01*
X140201883Y-73740835D01*
X140156387Y-73690835D01*
X140152336Y-73687636D01*
X140152332Y-73687632D01*
X139978677Y-73550488D01*
X139978672Y-73550485D01*
X139974623Y-73547287D01*
X139970107Y-73544794D01*
X139970104Y-73544792D01*
X139776379Y-73437850D01*
X139776375Y-73437848D01*
X139771855Y-73435353D01*
X139766986Y-73433629D01*
X139766982Y-73433627D01*
X139558403Y-73359765D01*
X139558399Y-73359764D01*
X139553528Y-73358039D01*
X139548435Y-73357132D01*
X139548432Y-73357131D01*
X139330595Y-73318328D01*
X139330589Y-73318327D01*
X139325506Y-73317422D01*
X139252596Y-73316531D01*
X139099081Y-73314656D01*
X139099079Y-73314656D01*
X139093911Y-73314593D01*
X138864964Y-73349627D01*
X138644814Y-73421583D01*
X138640226Y-73423971D01*
X138640222Y-73423973D01*
X138461379Y-73517073D01*
X138439372Y-73528529D01*
X138435239Y-73531632D01*
X138435236Y-73531634D01*
X138258290Y-73664489D01*
X138254155Y-73667594D01*
X138094139Y-73835041D01*
X138091225Y-73839313D01*
X138091224Y-73839314D01*
X138072689Y-73866486D01*
X137963619Y-74026376D01*
X137866102Y-74236458D01*
X137804207Y-74459646D01*
X137779595Y-74689946D01*
X137779892Y-74695099D01*
X137779892Y-74695102D01*
X137788641Y-74846836D01*
X137792927Y-74921174D01*
X137794064Y-74926220D01*
X137794065Y-74926226D01*
X137809580Y-74995070D01*
X137814753Y-75018021D01*
X137819952Y-75041092D01*
X137815416Y-75111944D01*
X137773294Y-75169095D01*
X137706961Y-75194401D01*
X137676351Y-75193083D01*
X137642353Y-75187425D01*
X137613590Y-75182637D01*
X137613588Y-75182637D01*
X137604732Y-75181163D01*
X137460114Y-75198535D01*
X137383804Y-75231163D01*
X137357470Y-75242423D01*
X137326186Y-75255799D01*
X137296389Y-75280318D01*
X137219816Y-75343326D01*
X137219814Y-75343328D01*
X137213711Y-75348350D01*
X137176770Y-75398824D01*
X136309176Y-76901541D01*
X136262717Y-76982010D01*
X136211335Y-77031003D01*
X136141621Y-77044439D01*
X136103658Y-77034691D01*
X136036570Y-77005729D01*
X135832588Y-76917669D01*
X135830992Y-76917080D01*
X135830984Y-76917077D01*
X135533484Y-76807324D01*
X135172118Y-76674009D01*
X134514108Y-76470949D01*
X134501088Y-76466931D01*
X134501082Y-76466929D01*
X134499438Y-76466422D01*
X134497792Y-76466010D01*
X134497781Y-76466007D01*
X133818168Y-76295931D01*
X133818153Y-76295928D01*
X133816516Y-76295518D01*
X133814843Y-76295194D01*
X133814837Y-76295193D01*
X133127022Y-76162118D01*
X133127011Y-76162116D01*
X133125351Y-76161795D01*
X132850814Y-76123944D01*
X132517291Y-76077960D01*
X132452540Y-76048842D01*
X132413811Y-75989339D01*
X132408500Y-75953141D01*
X132408500Y-74151866D01*
X132401745Y-74089684D01*
X132350615Y-73953295D01*
X132263261Y-73836739D01*
X132146705Y-73749385D01*
X132138296Y-73746233D01*
X132138295Y-73746232D01*
X132079804Y-73724305D01*
X132023039Y-73681664D01*
X131998339Y-73615103D01*
X132013546Y-73545754D01*
X132035093Y-73517073D01*
X132072636Y-73479660D01*
X132072640Y-73479655D01*
X132076303Y-73476005D01*
X132211458Y-73287917D01*
X132258641Y-73192450D01*
X132311784Y-73084922D01*
X132311785Y-73084920D01*
X132314078Y-73080280D01*
X132381408Y-72858671D01*
X132411640Y-72629041D01*
X132411722Y-72625691D01*
X132413245Y-72563365D01*
X132413245Y-72563361D01*
X132413327Y-72560000D01*
X132400424Y-72403056D01*
X132394773Y-72334318D01*
X132394772Y-72334312D01*
X132394349Y-72329167D01*
X132366077Y-72216613D01*
X132339184Y-72109544D01*
X132339183Y-72109540D01*
X132337925Y-72104533D01*
X132335866Y-72099797D01*
X132247630Y-71896868D01*
X132247628Y-71896865D01*
X132245570Y-71892131D01*
X132119764Y-71697665D01*
X131963887Y-71526358D01*
X131959836Y-71523159D01*
X131959832Y-71523155D01*
X131786177Y-71386011D01*
X131786172Y-71386008D01*
X131782123Y-71382810D01*
X131777607Y-71380317D01*
X131777604Y-71380315D01*
X131583879Y-71273373D01*
X131583875Y-71273371D01*
X131579355Y-71270876D01*
X131574486Y-71269152D01*
X131574482Y-71269150D01*
X131365903Y-71195288D01*
X131365899Y-71195287D01*
X131361028Y-71193562D01*
X131355935Y-71192655D01*
X131355932Y-71192654D01*
X131138095Y-71153851D01*
X131138089Y-71153850D01*
X131133006Y-71152945D01*
X131060096Y-71152054D01*
X130906581Y-71150179D01*
X130906579Y-71150179D01*
X130901411Y-71150116D01*
X130672464Y-71185150D01*
X130452314Y-71257106D01*
X130447726Y-71259494D01*
X130447722Y-71259496D01*
X130251461Y-71361663D01*
X130246872Y-71364052D01*
X130242739Y-71367155D01*
X130242736Y-71367157D01*
X130133593Y-71449104D01*
X130061655Y-71503117D01*
X129901639Y-71670564D01*
X129898725Y-71674836D01*
X129898724Y-71674837D01*
X129883152Y-71697665D01*
X129771119Y-71861899D01*
X129673602Y-72071981D01*
X129611707Y-72295169D01*
X129587095Y-72525469D01*
X129587392Y-72530622D01*
X129587392Y-72530625D01*
X129593067Y-72629041D01*
X129600427Y-72756697D01*
X129601564Y-72761743D01*
X129601565Y-72761749D01*
X129633741Y-72904523D01*
X129651346Y-72982642D01*
X129653288Y-72987424D01*
X129653289Y-72987428D01*
X129736540Y-73192450D01*
X129738484Y-73197237D01*
X129859501Y-73394719D01*
X129938011Y-73485353D01*
X129971304Y-73523788D01*
X130000786Y-73588373D01*
X129990671Y-73658646D01*
X129944170Y-73712294D01*
X129920296Y-73724267D01*
X129884646Y-73737632D01*
X129853295Y-73749385D01*
X129736739Y-73836739D01*
X129649385Y-73953295D01*
X129598255Y-74089684D01*
X129591500Y-74151866D01*
X129591500Y-75953982D01*
X129571498Y-76022103D01*
X129517842Y-76068596D01*
X129482274Y-76078861D01*
X129344498Y-76097366D01*
X128921164Y-76154227D01*
X128921154Y-76154229D01*
X128919476Y-76154454D01*
X128917807Y-76154771D01*
X128917800Y-76154772D01*
X128645321Y-76206504D01*
X128227848Y-76285764D01*
X128146505Y-76305819D01*
X127545967Y-76453880D01*
X127545954Y-76453884D01*
X127544334Y-76454283D01*
X127542724Y-76454774D01*
X127542712Y-76454777D01*
X127167570Y-76569112D01*
X126870933Y-76659520D01*
X126209617Y-76900873D01*
X126208063Y-76901537D01*
X126208054Y-76901541D01*
X126119528Y-76939392D01*
X125840763Y-77058583D01*
X125770264Y-77066973D01*
X125706421Y-77035916D01*
X125682111Y-77005732D01*
X124783230Y-75448824D01*
X124746289Y-75398350D01*
X124740186Y-75393328D01*
X124740184Y-75393326D01*
X124667296Y-75333350D01*
X124633814Y-75305799D01*
X124499886Y-75248535D01*
X124355268Y-75231163D01*
X124346412Y-75232637D01*
X124346410Y-75232637D01*
X124287615Y-75242423D01*
X124217134Y-75233877D01*
X124162463Y-75188582D01*
X124140959Y-75120921D01*
X124146369Y-75081505D01*
X124147405Y-75078094D01*
X124148908Y-75073148D01*
X124179140Y-74843518D01*
X124180827Y-74774477D01*
X124173455Y-74684813D01*
X124162273Y-74548795D01*
X124162272Y-74548789D01*
X124161849Y-74543644D01*
X124105425Y-74319010D01*
X124103366Y-74314274D01*
X124015130Y-74111345D01*
X124015128Y-74111342D01*
X124013070Y-74106608D01*
X123887264Y-73912142D01*
X123731387Y-73740835D01*
X123727336Y-73737636D01*
X123727332Y-73737632D01*
X123553677Y-73600488D01*
X123553672Y-73600485D01*
X123549623Y-73597287D01*
X123545107Y-73594794D01*
X123545104Y-73594792D01*
X123351379Y-73487850D01*
X123351375Y-73487848D01*
X123346855Y-73485353D01*
X123341986Y-73483629D01*
X123341982Y-73483627D01*
X123133403Y-73409765D01*
X123133399Y-73409764D01*
X123128528Y-73408039D01*
X123123435Y-73407132D01*
X123123432Y-73407131D01*
X122905595Y-73368328D01*
X122905589Y-73368327D01*
X122900506Y-73367422D01*
X122827596Y-73366531D01*
X122674081Y-73364656D01*
X122674079Y-73364656D01*
X122668911Y-73364593D01*
X122439964Y-73399627D01*
X122219814Y-73471583D01*
X122215226Y-73473971D01*
X122215222Y-73473973D01*
X122031171Y-73569784D01*
X122014372Y-73578529D01*
X122010239Y-73581632D01*
X122010236Y-73581634D01*
X121833290Y-73714489D01*
X121829155Y-73717594D01*
X121825583Y-73721332D01*
X121686871Y-73866486D01*
X121669139Y-73885041D01*
X121666225Y-73889313D01*
X121666224Y-73889314D01*
X121650652Y-73912142D01*
X121538619Y-74076376D01*
X121441102Y-74286458D01*
X121379207Y-74509646D01*
X121354595Y-74739946D01*
X121354892Y-74745099D01*
X121354892Y-74745102D01*
X121360567Y-74843518D01*
X121367927Y-74971174D01*
X121369064Y-74976220D01*
X121369065Y-74976226D01*
X121392791Y-75081505D01*
X121418846Y-75197119D01*
X121420788Y-75201901D01*
X121420789Y-75201905D01*
X121482845Y-75354730D01*
X121505984Y-75411714D01*
X121627001Y-75609196D01*
X121778647Y-75784261D01*
X121956849Y-75932207D01*
X122156822Y-76049061D01*
X122360574Y-76126867D01*
X122417076Y-76169854D01*
X122441369Y-76236565D01*
X122425739Y-76305819D01*
X122412923Y-76324632D01*
X122369117Y-76377868D01*
X122311853Y-76511796D01*
X122294481Y-76656414D01*
X122295955Y-76665270D01*
X122295955Y-76665272D01*
X122313167Y-76768683D01*
X122318395Y-76800095D01*
X122343636Y-76857324D01*
X122697101Y-77469543D01*
X123243009Y-78415084D01*
X123259747Y-78484079D01*
X123236527Y-78551171D01*
X123207150Y-78580597D01*
X123150490Y-78621087D01*
X123149174Y-78622140D01*
X123149164Y-78622147D01*
X122674149Y-79002026D01*
X122608456Y-79028950D01*
X122538634Y-79016084D01*
X122486853Y-78967513D01*
X122482840Y-78960139D01*
X122414154Y-78823276D01*
X122411068Y-78817127D01*
X122385801Y-78786091D01*
X122346802Y-78738188D01*
X122346796Y-78738182D01*
X122344771Y-78735694D01*
X121778520Y-78169443D01*
X121704396Y-78109255D01*
X121701320Y-78106757D01*
X121701317Y-78106755D01*
X121695972Y-78102415D01*
X121537753Y-78023357D01*
X121530627Y-78021679D01*
X121530624Y-78021678D01*
X121372715Y-77984496D01*
X121372711Y-77984496D01*
X121365591Y-77982819D01*
X121358275Y-77982825D01*
X121358272Y-77982825D01*
X121253335Y-77982917D01*
X121242744Y-77982926D01*
X121174606Y-77962983D01*
X121128066Y-77909368D01*
X121116634Y-77857035D01*
X121116533Y-77740461D01*
X121114837Y-77726025D01*
X121077404Y-77568288D01*
X121072431Y-77554624D01*
X120999520Y-77409340D01*
X120992089Y-77397855D01*
X120932207Y-77324300D01*
X120927899Y-77319529D01*
X120839495Y-77231125D01*
X120825551Y-77223511D01*
X120823718Y-77223642D01*
X120817103Y-77227893D01*
X119131125Y-78913871D01*
X119123511Y-78927815D01*
X119123642Y-78929648D01*
X119127892Y-78936262D01*
X119219507Y-79027876D01*
X119224330Y-79032224D01*
X119298957Y-79092821D01*
X119310468Y-79100243D01*
X119455869Y-79172897D01*
X119469543Y-79177847D01*
X119627342Y-79215002D01*
X119641787Y-79216674D01*
X119756756Y-79216574D01*
X119824894Y-79236517D01*
X119871433Y-79290132D01*
X119882865Y-79342463D01*
X119882973Y-79466915D01*
X119892812Y-79508376D01*
X119910610Y-79583373D01*
X119923812Y-79639007D01*
X119927094Y-79645546D01*
X119927094Y-79645547D01*
X119952400Y-79695972D01*
X120003146Y-79797087D01*
X120007488Y-79802420D01*
X120007489Y-79802422D01*
X120067412Y-79876026D01*
X120067418Y-79876032D01*
X120069443Y-79878520D01*
X120078414Y-79887491D01*
X120112440Y-79949803D01*
X120107375Y-80020618D01*
X120078414Y-80065681D01*
X119431478Y-80712617D01*
X119369166Y-80746643D01*
X119298351Y-80741578D01*
X119279388Y-80732643D01*
X118783142Y-80446136D01*
X118725913Y-80420895D01*
X118718126Y-80419599D01*
X118718123Y-80419598D01*
X118591090Y-80398455D01*
X118591088Y-80398455D01*
X118582232Y-80396981D01*
X118437614Y-80414353D01*
X118303686Y-80471617D01*
X118270202Y-80499170D01*
X118249329Y-80516345D01*
X118184018Y-80544184D01*
X118114024Y-80532293D01*
X118061570Y-80484449D01*
X118047065Y-80449747D01*
X118042618Y-80432044D01*
X118038220Y-80414533D01*
X118034825Y-80406725D01*
X117947925Y-80206868D01*
X117947923Y-80206865D01*
X117945865Y-80202131D01*
X117820059Y-80007665D01*
X117792193Y-79977040D01*
X117700277Y-79876026D01*
X117664182Y-79836358D01*
X117660131Y-79833159D01*
X117660127Y-79833155D01*
X117486472Y-79696011D01*
X117486467Y-79696008D01*
X117482418Y-79692810D01*
X117477902Y-79690317D01*
X117477899Y-79690315D01*
X117284174Y-79583373D01*
X117284170Y-79583371D01*
X117279650Y-79580876D01*
X117274781Y-79579152D01*
X117274777Y-79579150D01*
X117066198Y-79505288D01*
X117066194Y-79505287D01*
X117061323Y-79503562D01*
X117056230Y-79502655D01*
X117056227Y-79502654D01*
X116838390Y-79463851D01*
X116838384Y-79463850D01*
X116833301Y-79462945D01*
X116760391Y-79462054D01*
X116606876Y-79460179D01*
X116606874Y-79460179D01*
X116601706Y-79460116D01*
X116372759Y-79495150D01*
X116152609Y-79567106D01*
X116148021Y-79569494D01*
X116148017Y-79569496D01*
X115951756Y-79671663D01*
X115947167Y-79674052D01*
X115943034Y-79677155D01*
X115943031Y-79677157D01*
X115776194Y-79802422D01*
X115761950Y-79813117D01*
X115601934Y-79980564D01*
X115599020Y-79984836D01*
X115599019Y-79984837D01*
X115583447Y-80007665D01*
X115471414Y-80171899D01*
X115373897Y-80381981D01*
X115312002Y-80605169D01*
X115287390Y-80835469D01*
X115287687Y-80840622D01*
X115287687Y-80840625D01*
X115289373Y-80869859D01*
X115300722Y-81066697D01*
X115301859Y-81071743D01*
X115301860Y-81071749D01*
X115315231Y-81131078D01*
X115351641Y-81292642D01*
X115353583Y-81297424D01*
X115353584Y-81297428D01*
X115403642Y-81420705D01*
X115438779Y-81507237D01*
X115559796Y-81704719D01*
X115711442Y-81879784D01*
X115889644Y-82027730D01*
X116089617Y-82144584D01*
X116094442Y-82146426D01*
X116094443Y-82146427D01*
X116149654Y-82167510D01*
X116305989Y-82227209D01*
X116311055Y-82228240D01*
X116311056Y-82228240D01*
X116364141Y-82239040D01*
X116532951Y-82273385D01*
X116663619Y-82278176D01*
X116759244Y-82281683D01*
X116759248Y-82281683D01*
X116764408Y-82281872D01*
X116769528Y-82281216D01*
X116769530Y-82281216D01*
X116842565Y-82271860D01*
X116994142Y-82252442D01*
X116999096Y-82250956D01*
X116999104Y-82250954D01*
X117007810Y-82248342D01*
X117078805Y-82247924D01*
X117138756Y-82285956D01*
X117168628Y-82350363D01*
X117168308Y-82389713D01*
X117156981Y-82457768D01*
X117174353Y-82602386D01*
X117231617Y-82736314D01*
X117324168Y-82848789D01*
X117374642Y-82885730D01*
X118955384Y-83798372D01*
X119004376Y-83849753D01*
X119017812Y-83919467D01*
X119007977Y-83957627D01*
X118926122Y-84146332D01*
X118681309Y-84806376D01*
X118680801Y-84808012D01*
X118680800Y-84808015D01*
X118652706Y-84898494D01*
X118472549Y-85478692D01*
X118300453Y-86161315D01*
X118165524Y-86852245D01*
X118077510Y-87482491D01*
X118077449Y-87482927D01*
X118048218Y-87547626D01*
X117988647Y-87586251D01*
X117952660Y-87591500D01*
X116136866Y-87591500D01*
X116074684Y-87598255D01*
X115938295Y-87649385D01*
X115821739Y-87736739D01*
X115734385Y-87853295D01*
X115731233Y-87861704D01*
X115731232Y-87861705D01*
X115710538Y-87916906D01*
X115667897Y-87973671D01*
X115601335Y-87998371D01*
X115531986Y-87983164D01*
X115509167Y-87966666D01*
X115508887Y-87966358D01*
X115376373Y-87861705D01*
X115331177Y-87826011D01*
X115331172Y-87826008D01*
X115327123Y-87822810D01*
X115322607Y-87820317D01*
X115322604Y-87820315D01*
X115128879Y-87713373D01*
X115128875Y-87713371D01*
X115124355Y-87710876D01*
X115119486Y-87709152D01*
X115119482Y-87709150D01*
X114910903Y-87635288D01*
X114910899Y-87635287D01*
X114906028Y-87633562D01*
X114900935Y-87632655D01*
X114900932Y-87632654D01*
X114683095Y-87593851D01*
X114683089Y-87593850D01*
X114678006Y-87592945D01*
X114605096Y-87592054D01*
X114451581Y-87590179D01*
X114451579Y-87590179D01*
X114446411Y-87590116D01*
X114217464Y-87625150D01*
X113997314Y-87697106D01*
X113992726Y-87699494D01*
X113992722Y-87699496D01*
X113796461Y-87801663D01*
X113791872Y-87804052D01*
X113787739Y-87807155D01*
X113787736Y-87807157D01*
X113639319Y-87918592D01*
X113606655Y-87943117D01*
X113446639Y-88110564D01*
X113443725Y-88114836D01*
X113443724Y-88114837D01*
X113428152Y-88137665D01*
X113316119Y-88301899D01*
X113218602Y-88511981D01*
X113156707Y-88735169D01*
X113132095Y-88965469D01*
X112508000Y-88965469D01*
X112508000Y-77883207D01*
X118469112Y-77883207D01*
X118469253Y-78045325D01*
X118470949Y-78059761D01*
X118508382Y-78217498D01*
X118513355Y-78231162D01*
X118586266Y-78376446D01*
X118593697Y-78387931D01*
X118653579Y-78461486D01*
X118657887Y-78466257D01*
X118746291Y-78554661D01*
X118760235Y-78562275D01*
X118762068Y-78562144D01*
X118768683Y-78557893D01*
X119420871Y-77905705D01*
X119428485Y-77891761D01*
X119428354Y-77889928D01*
X119424103Y-77883313D01*
X118842622Y-77301833D01*
X118828684Y-77294222D01*
X118826848Y-77294354D01*
X118820236Y-77298603D01*
X118657920Y-77460919D01*
X118653552Y-77465763D01*
X118592970Y-77540372D01*
X118585543Y-77551889D01*
X118512887Y-77697295D01*
X118507940Y-77710963D01*
X118470784Y-77868764D01*
X118469112Y-77883207D01*
X112508000Y-77883207D01*
X112508000Y-76930944D01*
X119194222Y-76930944D01*
X119194354Y-76932780D01*
X119198603Y-76939392D01*
X119780082Y-77520872D01*
X119794025Y-77528485D01*
X119795859Y-77528354D01*
X119802473Y-77524103D01*
X120454661Y-76871915D01*
X120462275Y-76857971D01*
X120462144Y-76856138D01*
X120457894Y-76849524D01*
X120366279Y-76757910D01*
X120361456Y-76753562D01*
X120286829Y-76692965D01*
X120275318Y-76685543D01*
X120129917Y-76612889D01*
X120116243Y-76607939D01*
X119958444Y-76570784D01*
X119943999Y-76569112D01*
X119781882Y-76569253D01*
X119767446Y-76570949D01*
X119609709Y-76608382D01*
X119596045Y-76613355D01*
X119450759Y-76686267D01*
X119439276Y-76693696D01*
X119365726Y-76753576D01*
X119360952Y-76757886D01*
X119201833Y-76917006D01*
X119194222Y-76930944D01*
X112508000Y-76930944D01*
X112508000Y-75000000D01*
X115386526Y-75000000D01*
X115406391Y-75252403D01*
X115407545Y-75257210D01*
X115407546Y-75257216D01*
X115430957Y-75354730D01*
X115465495Y-75498591D01*
X115467388Y-75503162D01*
X115467389Y-75503164D01*
X115522530Y-75636285D01*
X115562384Y-75732502D01*
X115694672Y-75948376D01*
X115859102Y-76140898D01*
X116051624Y-76305328D01*
X116267498Y-76437616D01*
X116272068Y-76439509D01*
X116272072Y-76439511D01*
X116496836Y-76532611D01*
X116501409Y-76534505D01*
X116586032Y-76554821D01*
X116742784Y-76592454D01*
X116742790Y-76592455D01*
X116747597Y-76593609D01*
X116847416Y-76601465D01*
X116934345Y-76608307D01*
X116934352Y-76608307D01*
X116936801Y-76608500D01*
X117063199Y-76608500D01*
X117065648Y-76608307D01*
X117065655Y-76608307D01*
X117152584Y-76601465D01*
X117252403Y-76593609D01*
X117257210Y-76592455D01*
X117257216Y-76592454D01*
X117413968Y-76554821D01*
X117498591Y-76534505D01*
X117503164Y-76532611D01*
X117727928Y-76439511D01*
X117727932Y-76439509D01*
X117732502Y-76437616D01*
X117948376Y-76305328D01*
X118140898Y-76140898D01*
X118305328Y-75948376D01*
X118437616Y-75732502D01*
X118477471Y-75636285D01*
X118532611Y-75503164D01*
X118532612Y-75503162D01*
X118534505Y-75498591D01*
X118569043Y-75354730D01*
X118592454Y-75257216D01*
X118592455Y-75257210D01*
X118593609Y-75252403D01*
X118613474Y-75000000D01*
X118593609Y-74747597D01*
X118591773Y-74739946D01*
X118544645Y-74543644D01*
X118534505Y-74501409D01*
X118458953Y-74319010D01*
X118439511Y-74272072D01*
X118439509Y-74272068D01*
X118437616Y-74267498D01*
X118305328Y-74051624D01*
X118140898Y-73859102D01*
X117948376Y-73694672D01*
X117732502Y-73562384D01*
X117727932Y-73560491D01*
X117727928Y-73560489D01*
X117503164Y-73467389D01*
X117503162Y-73467388D01*
X117498591Y-73465495D01*
X117413968Y-73445179D01*
X117257216Y-73407546D01*
X117257210Y-73407545D01*
X117252403Y-73406391D01*
X117152584Y-73398535D01*
X117065655Y-73391693D01*
X117065648Y-73391693D01*
X117063199Y-73391500D01*
X116936801Y-73391500D01*
X116934352Y-73391693D01*
X116934345Y-73391693D01*
X116847416Y-73398535D01*
X116747597Y-73406391D01*
X116742790Y-73407545D01*
X116742784Y-73407546D01*
X116586032Y-73445179D01*
X116501409Y-73465495D01*
X116496838Y-73467388D01*
X116496836Y-73467389D01*
X116272072Y-73560489D01*
X116272068Y-73560491D01*
X116267498Y-73562384D01*
X116051624Y-73694672D01*
X115859102Y-73859102D01*
X115694672Y-74051624D01*
X115562384Y-74267498D01*
X115560491Y-74272068D01*
X115560489Y-74272072D01*
X115541047Y-74319010D01*
X115465495Y-74501409D01*
X115455355Y-74543644D01*
X115408228Y-74739946D01*
X115406391Y-74747597D01*
X115386526Y-75000000D01*
X112508000Y-75000000D01*
X112508000Y-71985963D01*
X112994757Y-71985963D01*
X113011175Y-72181483D01*
X113065258Y-72370091D01*
X113068076Y-72375574D01*
X113152123Y-72539113D01*
X113152126Y-72539117D01*
X113154944Y-72544601D01*
X113276818Y-72698369D01*
X113426238Y-72825535D01*
X113431616Y-72828541D01*
X113431618Y-72828542D01*
X113467932Y-72848837D01*
X113597513Y-72921257D01*
X113784118Y-72981889D01*
X113978946Y-73005121D01*
X113985081Y-73004649D01*
X113985083Y-73004649D01*
X114168434Y-72990541D01*
X114168438Y-72990540D01*
X114174576Y-72990068D01*
X114363556Y-72937303D01*
X114538689Y-72848837D01*
X114568515Y-72825535D01*
X114650157Y-72761749D01*
X114693303Y-72728040D01*
X114723084Y-72693539D01*
X114817485Y-72584173D01*
X114817485Y-72584172D01*
X114821509Y-72579511D01*
X114918425Y-72408909D01*
X114980358Y-72222732D01*
X115004949Y-72028071D01*
X115005341Y-72000000D01*
X114986194Y-71804728D01*
X114984413Y-71798829D01*
X114984412Y-71798824D01*
X114931265Y-71622793D01*
X114929484Y-71616894D01*
X114837370Y-71443653D01*
X114713361Y-71291602D01*
X114562180Y-71166535D01*
X114389585Y-71073213D01*
X114295868Y-71044203D01*
X114208039Y-71017015D01*
X114208036Y-71017014D01*
X114202152Y-71015193D01*
X114196027Y-71014549D01*
X114196026Y-71014549D01*
X114013147Y-70995327D01*
X114013146Y-70995327D01*
X114007019Y-70994683D01*
X113884383Y-71005844D01*
X113817759Y-71011907D01*
X113817758Y-71011907D01*
X113811618Y-71012466D01*
X113805704Y-71014207D01*
X113805702Y-71014207D01*
X113676734Y-71052165D01*
X113623393Y-71067864D01*
X113617928Y-71070721D01*
X113454972Y-71155912D01*
X113454968Y-71155915D01*
X113449512Y-71158767D01*
X113444712Y-71162627D01*
X113444711Y-71162627D01*
X113417671Y-71184368D01*
X113296600Y-71281711D01*
X113170480Y-71432016D01*
X113167516Y-71437408D01*
X113167513Y-71437412D01*
X113129337Y-71506855D01*
X113075956Y-71603954D01*
X113016628Y-71790978D01*
X112994757Y-71985963D01*
X112508000Y-71985963D01*
X112508000Y-70634000D01*
X112528002Y-70565879D01*
X112581658Y-70519386D01*
X112634000Y-70508000D01*
X123118366Y-70508000D01*
X123139270Y-70509746D01*
X123159034Y-70513071D01*
X123165154Y-70513146D01*
X123166706Y-70513165D01*
X123166711Y-70513165D01*
X123171573Y-70513224D01*
X123176396Y-70512533D01*
X123179319Y-70512343D01*
X123187112Y-70511617D01*
X123562085Y-70495245D01*
X123562096Y-70495244D01*
X123564845Y-70495124D01*
X123806042Y-70463370D01*
X123952400Y-70444102D01*
X123952406Y-70444101D01*
X123955125Y-70443743D01*
X124339441Y-70358542D01*
X124342066Y-70357714D01*
X124342071Y-70357713D01*
X124712241Y-70240999D01*
X124712249Y-70240996D01*
X124714869Y-70240170D01*
X125078551Y-70089528D01*
X125427721Y-69907762D01*
X125759719Y-69696256D01*
X126012877Y-69502001D01*
X126069844Y-69458289D01*
X126069848Y-69458286D01*
X126072020Y-69456619D01*
X126362247Y-69190674D01*
X126628192Y-68900447D01*
X126630543Y-68897384D01*
X126777381Y-68706020D01*
X126867829Y-68588146D01*
X127079335Y-68256148D01*
X127261101Y-67906978D01*
X127411743Y-67543296D01*
X127469280Y-67360814D01*
X127529286Y-67170498D01*
X127529287Y-67170493D01*
X127530115Y-67167868D01*
X127615316Y-66783552D01*
X127618470Y-66759599D01*
X127637170Y-66617554D01*
X127665892Y-66552627D01*
X127725158Y-66513535D01*
X127762092Y-66508000D01*
X128505441Y-66508000D01*
X128573562Y-66528002D01*
G37*
%TD.AperFunction*%
%TD*%
M02*
