%TF.GenerationSoftware,KiCad,Pcbnew,(6.0.1-0)*%
%TF.CreationDate,2022-03-28T18:36:01+02:00*%
%TF.ProjectId,Ring_Light_PCB,52696e67-5f4c-4696-9768-745f5043422e,1.0*%
%TF.SameCoordinates,Original*%
%TF.FileFunction,Copper,L1,Top*%
%TF.FilePolarity,Positive*%
%FSLAX46Y46*%
G04 Gerber Fmt 4.6, Leading zero omitted, Abs format (unit mm)*
G04 Created by KiCad (PCBNEW (6.0.1-0)) date 2022-03-28 18:36:01*
%MOMM*%
%LPD*%
G01*
G04 APERTURE LIST*
G04 Aperture macros list*
%AMRotRect*
0 Rectangle, with rotation*
0 The origin of the aperture is its center*
0 $1 length*
0 $2 width*
0 $3 Rotation angle, in degrees counterclockwise*
0 Add horizontal line*
21,1,$1,$2,0,0,$3*%
G04 Aperture macros list end*
%TA.AperFunction,ComponentPad*%
%ADD10R,1.700000X1.700000*%
%TD*%
%TA.AperFunction,ComponentPad*%
%ADD11O,1.700000X1.700000*%
%TD*%
%TA.AperFunction,ComponentPad*%
%ADD12RotRect,1.800000X1.800000X210.000000*%
%TD*%
%TA.AperFunction,ComponentPad*%
%ADD13C,1.800000*%
%TD*%
%TA.AperFunction,ComponentPad*%
%ADD14RotRect,1.800000X1.800000X330.000000*%
%TD*%
%TA.AperFunction,ComponentPad*%
%ADD15RotRect,1.800000X1.800000X240.000000*%
%TD*%
%TA.AperFunction,ComponentPad*%
%ADD16RotRect,1.800000X1.800000X300.000000*%
%TD*%
%TA.AperFunction,ComponentPad*%
%ADD17R,1.800000X1.800000*%
%TD*%
%TA.AperFunction,ComponentPad*%
%ADD18RotRect,1.800000X1.800000X120.000000*%
%TD*%
%TA.AperFunction,ComponentPad*%
%ADD19RotRect,1.800000X1.800000X150.000000*%
%TD*%
%TA.AperFunction,ComponentPad*%
%ADD20RotRect,1.800000X1.800000X60.000000*%
%TD*%
%TA.AperFunction,ComponentPad*%
%ADD21RotRect,1.800000X1.800000X30.000000*%
%TD*%
%TA.AperFunction,Conductor*%
%ADD22C,0.250000*%
%TD*%
G04 APERTURE END LIST*
D10*
%TO.P,J1,1,Pin_1*%
%TO.N,/Vin*%
X129725000Y-68000000D03*
D11*
%TO.P,J1,2,Pin_2*%
%TO.N,/Vout*%
X132265000Y-68000000D03*
%TD*%
D12*
%TO.P,D11,1,K*%
%TO.N,Net-(D11-Pad1)*%
X118970000Y-95960000D03*
D13*
%TO.P,D11,2,A*%
%TO.N,/Vin*%
X116770295Y-97230000D03*
%TD*%
D14*
%TO.P,D1,1,K*%
%TO.N,Net-(D1-Pad1)*%
X143060000Y-95930000D03*
D13*
%TO.P,D1,2,A*%
%TO.N,Net-(D1-Pad2)*%
X145259705Y-97200000D03*
%TD*%
D15*
%TO.P,D4,1,K*%
%TO.N,Net-(D4-Pad1)*%
X124070000Y-101060000D03*
D13*
%TO.P,D4,2,A*%
%TO.N,Net-(D4-Pad2)*%
X122800000Y-103259705D03*
%TD*%
D16*
%TO.P,D12,1,K*%
%TO.N,Net-(D12-Pad1)*%
X138002500Y-101025818D03*
D13*
%TO.P,D12,2,A*%
%TO.N,/Vin*%
X139272500Y-103225523D03*
%TD*%
D17*
%TO.P,D5,1,K*%
%TO.N,Net-(D1-Pad2)*%
X144900000Y-89000000D03*
D13*
%TO.P,D5,2,A*%
%TO.N,Net-(D5-Pad2)*%
X147440000Y-89000000D03*
%TD*%
D17*
%TO.P,D8,1,K*%
%TO.N,Net-(D4-Pad2)*%
X131000000Y-102900000D03*
D13*
%TO.P,D8,2,A*%
%TO.N,Net-(D12-Pad1)*%
X131000000Y-105440000D03*
%TD*%
D18*
%TO.P,D10,1,K*%
%TO.N,Net-(D10-Pad1)*%
X124037500Y-76974182D03*
D13*
%TO.P,D10,2,A*%
%TO.N,/Vin*%
X122767500Y-74774477D03*
%TD*%
D17*
%TO.P,D6,1,K*%
%TO.N,Net-(D2-Pad2)*%
X131000000Y-75100000D03*
D13*
%TO.P,D6,2,A*%
%TO.N,Net-(D10-Pad1)*%
X131000000Y-72560000D03*
%TD*%
D19*
%TO.P,D3,1,K*%
%TO.N,Net-(D3-Pad1)*%
X118900000Y-82140000D03*
D13*
%TO.P,D3,2,A*%
%TO.N,Net-(D3-Pad2)*%
X116700295Y-80870000D03*
%TD*%
D20*
%TO.P,D2,1,K*%
%TO.N,Net-(D2-Pad1)*%
X137922500Y-76924182D03*
D13*
%TO.P,D2,2,A*%
%TO.N,Net-(D2-Pad2)*%
X139192500Y-74724477D03*
%TD*%
D21*
%TO.P,D9,1,K*%
%TO.N,Net-(D5-Pad2)*%
X143045818Y-82067500D03*
D13*
%TO.P,D9,2,A*%
%TO.N,/Vin*%
X145245523Y-80797500D03*
%TD*%
D17*
%TO.P,D7,1,K*%
%TO.N,Net-(D3-Pad2)*%
X117085000Y-89000000D03*
D13*
%TO.P,D7,2,A*%
%TO.N,Net-(D11-Pad1)*%
X114545000Y-89000000D03*
%TD*%
D22*
%TO.N,Net-(D1-Pad2)*%
X145259705Y-89359705D02*
X144900000Y-89000000D01*
X145259705Y-97200000D02*
X145259705Y-89359705D01*
%TO.N,Net-(D2-Pad2)*%
X131375523Y-74724477D02*
X131000000Y-75100000D01*
X139192500Y-74724477D02*
X131375523Y-74724477D01*
%TO.N,Net-(D3-Pad2)*%
X116700295Y-88615295D02*
X117085000Y-89000000D01*
X116700295Y-80870000D02*
X116700295Y-88615295D01*
%TO.N,Net-(D4-Pad2)*%
X130640295Y-103259705D02*
X131000000Y-102900000D01*
X122800000Y-103259705D02*
X130640295Y-103259705D01*
%TO.N,Net-(D5-Pad2)*%
X147425000Y-86446682D02*
X147425000Y-87000000D01*
X143045818Y-82067500D02*
X147425000Y-86446682D01*
X147425000Y-87000000D02*
X147440000Y-87015000D01*
X147440000Y-87015000D02*
X147440000Y-89000000D01*
%TO.N,Net-(D10-Pad1)*%
X124037500Y-76974182D02*
X128325000Y-72686682D01*
X128325000Y-72675000D02*
X128440000Y-72560000D01*
X128325000Y-72686682D02*
X128325000Y-72675000D01*
X128440000Y-72560000D02*
X131000000Y-72560000D01*
%TO.N,Net-(D11-Pad1)*%
X114545000Y-89000000D02*
X114545000Y-91535000D01*
X114545000Y-91535000D02*
X118970000Y-95960000D01*
%TO.N,Net-(D12-Pad1)*%
X132750000Y-105450000D02*
X132740000Y-105440000D01*
X138002500Y-101025818D02*
X133578318Y-105450000D01*
X133578318Y-105450000D02*
X132750000Y-105450000D01*
X132740000Y-105440000D02*
X131000000Y-105440000D01*
%TD*%
%TA.AperFunction,Conductor*%
%TO.N,/Vin*%
G36*
X128574396Y-66528002D02*
G01*
X128620889Y-66581658D01*
X128630993Y-66651932D01*
X128601499Y-66716512D01*
X128581840Y-66734826D01*
X128519276Y-66781715D01*
X128506715Y-66794276D01*
X128430214Y-66896351D01*
X128421676Y-66911946D01*
X128376522Y-67032394D01*
X128372895Y-67047649D01*
X128367369Y-67098514D01*
X128367000Y-67105328D01*
X128367000Y-67727885D01*
X128371475Y-67743124D01*
X128372865Y-67744329D01*
X128380548Y-67746000D01*
X129853000Y-67746000D01*
X129921121Y-67766002D01*
X129967614Y-67819658D01*
X129979000Y-67872000D01*
X129979000Y-69339884D01*
X129983475Y-69355123D01*
X129984865Y-69356328D01*
X129992548Y-69357999D01*
X130619669Y-69357999D01*
X130626490Y-69357629D01*
X130677352Y-69352105D01*
X130692604Y-69348479D01*
X130813054Y-69303324D01*
X130828649Y-69294786D01*
X130930724Y-69218285D01*
X130943285Y-69205724D01*
X131019786Y-69103649D01*
X131028324Y-69088054D01*
X131069225Y-68978952D01*
X131111867Y-68922188D01*
X131178428Y-68897488D01*
X131247777Y-68912696D01*
X131282444Y-68940684D01*
X131307865Y-68970031D01*
X131307869Y-68970035D01*
X131311250Y-68973938D01*
X131483126Y-69116632D01*
X131676000Y-69229338D01*
X131884692Y-69309030D01*
X131889760Y-69310061D01*
X131889763Y-69310062D01*
X131997017Y-69331883D01*
X132103597Y-69353567D01*
X132108772Y-69353757D01*
X132108774Y-69353757D01*
X132321673Y-69361564D01*
X132321677Y-69361564D01*
X132326837Y-69361753D01*
X132331957Y-69361097D01*
X132331959Y-69361097D01*
X132543288Y-69334025D01*
X132543289Y-69334025D01*
X132548416Y-69333368D01*
X132553366Y-69331883D01*
X132757429Y-69270661D01*
X132757434Y-69270659D01*
X132762384Y-69269174D01*
X132962994Y-69170896D01*
X133144860Y-69041173D01*
X133303096Y-68883489D01*
X133433453Y-68702077D01*
X133488687Y-68590320D01*
X133530136Y-68506453D01*
X133530137Y-68506451D01*
X133532430Y-68501811D01*
X133597370Y-68288069D01*
X133626529Y-68066590D01*
X133628156Y-68000000D01*
X133609852Y-67777361D01*
X133555431Y-67560702D01*
X133466354Y-67355840D01*
X133345014Y-67168277D01*
X133194670Y-67003051D01*
X133190619Y-66999852D01*
X133190615Y-66999848D01*
X133023414Y-66867800D01*
X133023410Y-66867798D01*
X133019359Y-66864598D01*
X132823789Y-66756638D01*
X132818919Y-66754913D01*
X132818909Y-66754909D01*
X132812874Y-66752772D01*
X132755338Y-66711178D01*
X132729423Y-66645080D01*
X132743358Y-66575464D01*
X132792717Y-66524433D01*
X132854935Y-66508000D01*
X134409481Y-66508000D01*
X134477602Y-66528002D01*
X134524095Y-66581658D01*
X134534403Y-66617554D01*
X134553043Y-66759137D01*
X134556257Y-66783552D01*
X134641458Y-67167868D01*
X134642286Y-67170493D01*
X134642287Y-67170498D01*
X134755419Y-67529305D01*
X134759830Y-67543296D01*
X134910472Y-67906978D01*
X135092238Y-68256148D01*
X135303744Y-68588146D01*
X135479592Y-68817316D01*
X135530369Y-68883489D01*
X135543381Y-68900447D01*
X135809326Y-69190674D01*
X136099553Y-69456619D01*
X136101725Y-69458286D01*
X136101729Y-69458289D01*
X136158696Y-69502001D01*
X136411854Y-69696256D01*
X136743853Y-69907762D01*
X137093022Y-70089528D01*
X137456704Y-70240170D01*
X137459324Y-70240996D01*
X137459332Y-70240999D01*
X137829502Y-70357713D01*
X137829507Y-70357714D01*
X137832132Y-70358542D01*
X138216448Y-70443743D01*
X138219167Y-70444101D01*
X138219173Y-70444102D01*
X138365531Y-70463370D01*
X138606728Y-70495124D01*
X138609477Y-70495244D01*
X138609488Y-70495245D01*
X138830522Y-70504895D01*
X138969085Y-70510946D01*
X138977809Y-70511866D01*
X138977812Y-70511829D01*
X138982661Y-70512264D01*
X138987461Y-70513071D01*
X138993915Y-70513150D01*
X138995141Y-70513165D01*
X138995145Y-70513165D01*
X139000000Y-70513224D01*
X139027588Y-70509273D01*
X139045451Y-70508000D01*
X149366000Y-70508000D01*
X149434121Y-70528002D01*
X149480614Y-70581658D01*
X149492000Y-70634000D01*
X149492000Y-107366000D01*
X149471998Y-107434121D01*
X149418342Y-107480614D01*
X149366000Y-107492000D01*
X112634000Y-107492000D01*
X112565879Y-107471998D01*
X112519386Y-107418342D01*
X112508000Y-107366000D01*
X112508000Y-103000000D01*
X115386526Y-103000000D01*
X115406391Y-103252403D01*
X115465495Y-103498591D01*
X115467388Y-103503162D01*
X115467389Y-103503164D01*
X115543592Y-103687133D01*
X115562384Y-103732502D01*
X115694672Y-103948376D01*
X115859102Y-104140898D01*
X116051624Y-104305328D01*
X116267498Y-104437616D01*
X116272068Y-104439509D01*
X116272072Y-104439511D01*
X116496836Y-104532611D01*
X116501409Y-104534505D01*
X116568300Y-104550564D01*
X116742784Y-104592454D01*
X116742790Y-104592455D01*
X116747597Y-104593609D01*
X116847416Y-104601465D01*
X116934345Y-104608307D01*
X116934352Y-104608307D01*
X116936801Y-104608500D01*
X117063199Y-104608500D01*
X117065648Y-104608307D01*
X117065655Y-104608307D01*
X117152584Y-104601465D01*
X117252403Y-104593609D01*
X117257210Y-104592455D01*
X117257216Y-104592454D01*
X117431700Y-104550564D01*
X117498591Y-104534505D01*
X117503164Y-104532611D01*
X117727928Y-104439511D01*
X117727932Y-104439509D01*
X117732502Y-104437616D01*
X117948376Y-104305328D01*
X118140898Y-104140898D01*
X118305328Y-103948376D01*
X118437616Y-103732502D01*
X118456409Y-103687133D01*
X118532611Y-103503164D01*
X118532612Y-103503162D01*
X118534505Y-103498591D01*
X118593609Y-103252403D01*
X118613474Y-103000000D01*
X118593609Y-102747597D01*
X118586908Y-102719682D01*
X118535660Y-102506221D01*
X118534505Y-102501409D01*
X118437616Y-102267498D01*
X118305328Y-102051624D01*
X118205832Y-101935129D01*
X118144106Y-101862858D01*
X118140898Y-101859102D01*
X118133699Y-101852953D01*
X118034925Y-101768592D01*
X117948376Y-101694672D01*
X117732502Y-101562384D01*
X117727932Y-101560491D01*
X117727928Y-101560489D01*
X117503164Y-101467389D01*
X117503162Y-101467388D01*
X117498591Y-101465495D01*
X117413968Y-101445179D01*
X117257216Y-101407546D01*
X117257210Y-101407545D01*
X117252403Y-101406391D01*
X117152584Y-101398535D01*
X117065655Y-101391693D01*
X117065648Y-101391693D01*
X117063199Y-101391500D01*
X116936801Y-101391500D01*
X116934352Y-101391693D01*
X116934345Y-101391693D01*
X116847416Y-101398535D01*
X116747597Y-101406391D01*
X116742790Y-101407545D01*
X116742784Y-101407546D01*
X116586032Y-101445179D01*
X116501409Y-101465495D01*
X116496838Y-101467388D01*
X116496836Y-101467389D01*
X116272072Y-101560489D01*
X116272068Y-101560491D01*
X116267498Y-101562384D01*
X116051624Y-101694672D01*
X115965075Y-101768592D01*
X115866302Y-101852953D01*
X115859102Y-101859102D01*
X115855894Y-101862858D01*
X115794169Y-101935129D01*
X115694672Y-102051624D01*
X115562384Y-102267498D01*
X115465495Y-102501409D01*
X115464340Y-102506221D01*
X115413093Y-102719682D01*
X115406391Y-102747597D01*
X115386526Y-103000000D01*
X112508000Y-103000000D01*
X112508000Y-98391406D01*
X115973718Y-98391406D01*
X115978999Y-98398461D01*
X116155375Y-98501527D01*
X116164658Y-98505974D01*
X116371298Y-98584883D01*
X116381196Y-98587759D01*
X116597948Y-98631857D01*
X116608178Y-98633076D01*
X116829209Y-98641182D01*
X116839518Y-98640714D01*
X117058918Y-98612608D01*
X117068983Y-98610468D01*
X117280852Y-98546905D01*
X117290447Y-98543144D01*
X117489073Y-98445838D01*
X117497931Y-98440559D01*
X117555392Y-98399572D01*
X117563792Y-98388874D01*
X117556805Y-98375721D01*
X116783106Y-97602021D01*
X116769163Y-97594408D01*
X116767329Y-97594539D01*
X116760715Y-97598790D01*
X115980475Y-98379031D01*
X115973718Y-98391406D01*
X112508000Y-98391406D01*
X112508000Y-97200638D01*
X115358188Y-97200638D01*
X115370922Y-97421468D01*
X115372356Y-97431670D01*
X115420980Y-97647439D01*
X115424068Y-97657292D01*
X115507281Y-97862220D01*
X115511929Y-97871421D01*
X115600392Y-98015781D01*
X115610848Y-98025242D01*
X115619626Y-98021458D01*
X116398274Y-97242811D01*
X116405887Y-97228868D01*
X116405756Y-97227034D01*
X116401505Y-97220420D01*
X115624157Y-96443073D01*
X115612625Y-96436776D01*
X115600343Y-96446399D01*
X115544762Y-96527877D01*
X115539674Y-96536833D01*
X115446547Y-96737459D01*
X115442984Y-96747146D01*
X115383876Y-96960280D01*
X115381945Y-96970400D01*
X115358440Y-97190349D01*
X115358188Y-97200638D01*
X112508000Y-97200638D01*
X112508000Y-88965469D01*
X113132095Y-88965469D01*
X113132392Y-88970622D01*
X113132392Y-88970625D01*
X113138067Y-89069041D01*
X113145427Y-89196697D01*
X113146564Y-89201743D01*
X113146565Y-89201749D01*
X113176558Y-89334836D01*
X113196346Y-89422642D01*
X113198288Y-89427424D01*
X113198289Y-89427428D01*
X113281540Y-89632450D01*
X113283484Y-89637237D01*
X113404501Y-89834719D01*
X113556147Y-90009784D01*
X113734349Y-90157730D01*
X113847073Y-90223600D01*
X113849070Y-90224767D01*
X113897794Y-90276405D01*
X113911500Y-90333555D01*
X113911500Y-91456233D01*
X113910973Y-91467416D01*
X113909298Y-91474909D01*
X113909547Y-91482835D01*
X113909547Y-91482836D01*
X113911438Y-91542986D01*
X113911500Y-91546945D01*
X113911500Y-91574856D01*
X113911997Y-91578790D01*
X113911997Y-91578791D01*
X113912005Y-91578856D01*
X113912938Y-91590693D01*
X113914327Y-91634889D01*
X113919978Y-91654339D01*
X113923987Y-91673700D01*
X113926526Y-91693797D01*
X113929445Y-91701168D01*
X113929445Y-91701170D01*
X113942804Y-91734912D01*
X113946649Y-91746142D01*
X113958982Y-91788593D01*
X113963015Y-91795412D01*
X113963017Y-91795417D01*
X113969293Y-91806028D01*
X113977988Y-91823776D01*
X113985448Y-91842617D01*
X113990110Y-91849033D01*
X113990110Y-91849034D01*
X114011436Y-91878387D01*
X114017952Y-91888307D01*
X114040458Y-91926362D01*
X114054779Y-91940683D01*
X114067619Y-91955716D01*
X114079528Y-91972107D01*
X114085634Y-91977158D01*
X114113605Y-92000298D01*
X114122384Y-92008288D01*
X117300282Y-95186187D01*
X117334308Y-95248499D01*
X117329243Y-95319315D01*
X117308482Y-95355343D01*
X117301617Y-95363686D01*
X117244353Y-95497614D01*
X117226981Y-95642232D01*
X117228455Y-95651088D01*
X117228455Y-95651091D01*
X117238656Y-95712380D01*
X117230110Y-95782860D01*
X117184815Y-95837531D01*
X117117153Y-95859035D01*
X117092270Y-95857113D01*
X116908343Y-95824350D01*
X116898091Y-95823381D01*
X116676911Y-95820679D01*
X116666627Y-95821399D01*
X116447988Y-95854855D01*
X116437961Y-95857244D01*
X116227721Y-95925961D01*
X116218211Y-95929958D01*
X116022020Y-96032089D01*
X116013302Y-96037578D01*
X115984256Y-96059386D01*
X115975803Y-96070711D01*
X115982546Y-96083040D01*
X116770295Y-96870790D01*
X117916599Y-98017093D01*
X117928609Y-98023651D01*
X117940347Y-98014683D01*
X117978305Y-97961859D01*
X117983616Y-97953020D01*
X118081613Y-97754737D01*
X118085412Y-97745142D01*
X118116578Y-97642565D01*
X118155519Y-97583201D01*
X118220373Y-97554314D01*
X118290549Y-97565076D01*
X118317189Y-97581894D01*
X118373686Y-97628383D01*
X118507614Y-97685647D01*
X118652232Y-97703019D01*
X118661088Y-97701545D01*
X118661090Y-97701545D01*
X118788123Y-97680402D01*
X118788126Y-97680401D01*
X118795913Y-97679105D01*
X118853142Y-97653864D01*
X119645067Y-97196646D01*
X120412158Y-96753766D01*
X120481153Y-96737028D01*
X120548245Y-96760248D01*
X120577800Y-96789806D01*
X120606414Y-96829995D01*
X120606428Y-96830014D01*
X120607403Y-96831383D01*
X120608444Y-96832689D01*
X120608452Y-96832700D01*
X121045056Y-97380605D01*
X121045071Y-97380623D01*
X121046123Y-97381943D01*
X121513974Y-97907971D01*
X121515177Y-97909185D01*
X121515184Y-97909192D01*
X122008381Y-98406712D01*
X122008392Y-98406722D01*
X122009588Y-98407929D01*
X122113029Y-98501559D01*
X122530233Y-98879194D01*
X122530243Y-98879203D01*
X122531514Y-98880353D01*
X122532846Y-98881433D01*
X122532850Y-98881437D01*
X122638770Y-98967362D01*
X123078223Y-99323860D01*
X123079582Y-99324846D01*
X123079593Y-99324854D01*
X123245511Y-99445179D01*
X123288914Y-99501364D01*
X123295051Y-99572095D01*
X123280658Y-99610180D01*
X122376136Y-101176858D01*
X122350895Y-101234087D01*
X122349599Y-101241874D01*
X122349598Y-101241877D01*
X122330719Y-101355308D01*
X122326981Y-101377768D01*
X122344353Y-101522386D01*
X122401617Y-101656314D01*
X122447580Y-101712172D01*
X122475418Y-101777480D01*
X122463527Y-101847474D01*
X122415683Y-101899928D01*
X122389429Y-101911995D01*
X122252314Y-101956811D01*
X122247726Y-101959199D01*
X122247722Y-101959201D01*
X122080499Y-102046252D01*
X122046872Y-102063757D01*
X122042739Y-102066860D01*
X122042736Y-102066862D01*
X121865790Y-102199717D01*
X121861655Y-102202822D01*
X121701639Y-102370269D01*
X121571119Y-102561604D01*
X121473602Y-102771686D01*
X121411707Y-102994874D01*
X121387095Y-103225174D01*
X121400427Y-103456402D01*
X121401564Y-103461448D01*
X121401565Y-103461454D01*
X121430519Y-103589931D01*
X121451346Y-103682347D01*
X121453288Y-103687129D01*
X121453289Y-103687133D01*
X121522567Y-103857743D01*
X121538484Y-103896942D01*
X121659501Y-104094424D01*
X121811147Y-104269489D01*
X121989349Y-104417435D01*
X122189322Y-104534289D01*
X122194147Y-104536131D01*
X122194148Y-104536132D01*
X122268665Y-104564588D01*
X122405694Y-104616914D01*
X122410760Y-104617945D01*
X122410761Y-104617945D01*
X122457136Y-104627380D01*
X122632656Y-104663090D01*
X122763324Y-104667881D01*
X122858949Y-104671388D01*
X122858953Y-104671388D01*
X122864113Y-104671577D01*
X122869233Y-104670921D01*
X122869235Y-104670921D01*
X122942270Y-104661565D01*
X123093847Y-104642147D01*
X123098795Y-104640662D01*
X123098802Y-104640661D01*
X123310747Y-104577074D01*
X123315690Y-104575591D01*
X123320324Y-104573321D01*
X123519049Y-104475967D01*
X123519052Y-104475965D01*
X123523684Y-104473696D01*
X123712243Y-104339199D01*
X123876303Y-104175710D01*
X124011458Y-103987622D01*
X124023440Y-103963377D01*
X124071553Y-103911171D01*
X124136397Y-103893205D01*
X129504513Y-103893205D01*
X129572634Y-103913207D01*
X129619127Y-103966863D01*
X129622495Y-103974976D01*
X129639661Y-104020765D01*
X129649385Y-104046705D01*
X129736739Y-104163261D01*
X129853295Y-104250615D01*
X129861704Y-104253767D01*
X129861705Y-104253768D01*
X129921164Y-104276058D01*
X129977929Y-104318699D01*
X130002629Y-104385261D01*
X129987422Y-104454609D01*
X129968029Y-104481091D01*
X129945585Y-104504578D01*
X129915431Y-104536132D01*
X129901639Y-104550564D01*
X129898725Y-104554836D01*
X129898724Y-104554837D01*
X129872276Y-104593609D01*
X129771119Y-104741899D01*
X129673602Y-104951981D01*
X129611707Y-105175169D01*
X129587095Y-105405469D01*
X129600427Y-105636697D01*
X129601564Y-105641743D01*
X129601565Y-105641749D01*
X129633741Y-105784523D01*
X129651346Y-105862642D01*
X129653288Y-105867424D01*
X129653289Y-105867428D01*
X129736461Y-106072256D01*
X129738484Y-106077237D01*
X129859501Y-106274719D01*
X130011147Y-106449784D01*
X130189349Y-106597730D01*
X130389322Y-106714584D01*
X130605694Y-106797209D01*
X130610760Y-106798240D01*
X130610761Y-106798240D01*
X130663846Y-106809040D01*
X130832656Y-106843385D01*
X130963324Y-106848176D01*
X131058949Y-106851683D01*
X131058953Y-106851683D01*
X131064113Y-106851872D01*
X131069233Y-106851216D01*
X131069235Y-106851216D01*
X131142270Y-106841860D01*
X131293847Y-106822442D01*
X131298795Y-106820957D01*
X131298802Y-106820956D01*
X131510747Y-106757369D01*
X131515690Y-106755886D01*
X131596236Y-106716427D01*
X131719049Y-106656262D01*
X131719052Y-106656260D01*
X131723684Y-106653991D01*
X131912243Y-106519494D01*
X132076303Y-106356005D01*
X132211458Y-106167917D01*
X132223440Y-106143672D01*
X132271553Y-106091466D01*
X132336397Y-106073500D01*
X132615107Y-106073500D01*
X132646442Y-106077459D01*
X132669970Y-106083500D01*
X132690224Y-106083500D01*
X132709934Y-106085051D01*
X132729943Y-106088220D01*
X132737835Y-106087474D01*
X132756580Y-106085702D01*
X132773962Y-106084059D01*
X132785819Y-106083500D01*
X133499551Y-106083500D01*
X133510734Y-106084027D01*
X133518227Y-106085702D01*
X133526153Y-106085453D01*
X133526154Y-106085453D01*
X133586304Y-106083562D01*
X133590263Y-106083500D01*
X133618174Y-106083500D01*
X133622109Y-106083003D01*
X133622174Y-106082995D01*
X133634011Y-106082062D01*
X133666269Y-106081048D01*
X133670288Y-106080922D01*
X133678207Y-106080673D01*
X133697661Y-106075021D01*
X133717018Y-106071013D01*
X133729248Y-106069468D01*
X133729249Y-106069468D01*
X133737115Y-106068474D01*
X133744486Y-106065555D01*
X133744488Y-106065555D01*
X133778230Y-106052196D01*
X133789460Y-106048351D01*
X133824301Y-106038229D01*
X133824302Y-106038229D01*
X133831911Y-106036018D01*
X133838730Y-106031985D01*
X133838735Y-106031983D01*
X133849346Y-106025707D01*
X133867094Y-106017012D01*
X133885935Y-106009552D01*
X133921705Y-105983564D01*
X133931625Y-105977048D01*
X133962853Y-105958580D01*
X133962856Y-105958578D01*
X133969680Y-105954542D01*
X133984001Y-105940221D01*
X133999035Y-105927380D01*
X134009012Y-105920131D01*
X134015425Y-105915472D01*
X134043616Y-105881395D01*
X134051606Y-105872616D01*
X135537293Y-104386929D01*
X138475923Y-104386929D01*
X138481204Y-104393984D01*
X138657580Y-104497050D01*
X138666863Y-104501497D01*
X138873503Y-104580406D01*
X138883401Y-104583282D01*
X139100153Y-104627380D01*
X139110383Y-104628599D01*
X139331414Y-104636705D01*
X139341723Y-104636237D01*
X139561123Y-104608131D01*
X139571188Y-104605991D01*
X139783057Y-104542428D01*
X139792652Y-104538667D01*
X139991278Y-104441361D01*
X140000136Y-104436082D01*
X140057597Y-104395095D01*
X140065997Y-104384397D01*
X140059010Y-104371244D01*
X139285311Y-103597544D01*
X139271368Y-103589931D01*
X139269534Y-103590062D01*
X139262920Y-103594313D01*
X138482680Y-104374554D01*
X138475923Y-104386929D01*
X135537293Y-104386929D01*
X137228687Y-102695535D01*
X137290999Y-102661509D01*
X137361814Y-102666574D01*
X137397839Y-102687333D01*
X137406186Y-102694201D01*
X137540114Y-102751465D01*
X137684732Y-102768837D01*
X137693588Y-102767363D01*
X137693592Y-102767363D01*
X137755278Y-102757096D01*
X137825758Y-102765643D01*
X137880429Y-102810937D01*
X137901933Y-102878599D01*
X137897381Y-102915059D01*
X137886080Y-102955807D01*
X137884150Y-102965923D01*
X137860645Y-103185872D01*
X137860393Y-103196161D01*
X137873127Y-103416991D01*
X137874561Y-103427193D01*
X137923185Y-103642962D01*
X137926273Y-103652815D01*
X138009486Y-103857743D01*
X138014134Y-103866944D01*
X138102597Y-104011304D01*
X138113053Y-104020765D01*
X138121831Y-104016981D01*
X138912158Y-103226655D01*
X139636908Y-103226655D01*
X139637039Y-103228489D01*
X139641290Y-103235103D01*
X140418807Y-104012619D01*
X140430813Y-104019175D01*
X140442552Y-104010207D01*
X140480510Y-103957382D01*
X140485821Y-103948543D01*
X140583818Y-103750260D01*
X140587617Y-103740665D01*
X140651915Y-103529040D01*
X140654094Y-103518959D01*
X140683202Y-103297861D01*
X140683721Y-103291186D01*
X140685244Y-103228887D01*
X140685050Y-103222169D01*
X140666785Y-103000000D01*
X143386526Y-103000000D01*
X143406391Y-103252403D01*
X143465495Y-103498591D01*
X143467388Y-103503162D01*
X143467389Y-103503164D01*
X143543592Y-103687133D01*
X143562384Y-103732502D01*
X143694672Y-103948376D01*
X143859102Y-104140898D01*
X144051624Y-104305328D01*
X144267498Y-104437616D01*
X144272068Y-104439509D01*
X144272072Y-104439511D01*
X144496836Y-104532611D01*
X144501409Y-104534505D01*
X144568300Y-104550564D01*
X144742784Y-104592454D01*
X144742790Y-104592455D01*
X144747597Y-104593609D01*
X144847416Y-104601465D01*
X144934345Y-104608307D01*
X144934352Y-104608307D01*
X144936801Y-104608500D01*
X145063199Y-104608500D01*
X145065648Y-104608307D01*
X145065655Y-104608307D01*
X145152584Y-104601465D01*
X145252403Y-104593609D01*
X145257210Y-104592455D01*
X145257216Y-104592454D01*
X145431700Y-104550564D01*
X145498591Y-104534505D01*
X145503164Y-104532611D01*
X145727928Y-104439511D01*
X145727932Y-104439509D01*
X145732502Y-104437616D01*
X145948376Y-104305328D01*
X146140898Y-104140898D01*
X146305328Y-103948376D01*
X146437616Y-103732502D01*
X146456409Y-103687133D01*
X146532611Y-103503164D01*
X146532612Y-103503162D01*
X146534505Y-103498591D01*
X146593609Y-103252403D01*
X146613474Y-103000000D01*
X146593609Y-102747597D01*
X146586908Y-102719682D01*
X146535660Y-102506221D01*
X146534505Y-102501409D01*
X146437616Y-102267498D01*
X146305328Y-102051624D01*
X146205832Y-101935129D01*
X146144106Y-101862858D01*
X146140898Y-101859102D01*
X146133699Y-101852953D01*
X146034925Y-101768592D01*
X145948376Y-101694672D01*
X145732502Y-101562384D01*
X145727932Y-101560491D01*
X145727928Y-101560489D01*
X145503164Y-101467389D01*
X145503162Y-101467388D01*
X145498591Y-101465495D01*
X145413968Y-101445179D01*
X145257216Y-101407546D01*
X145257210Y-101407545D01*
X145252403Y-101406391D01*
X145152584Y-101398535D01*
X145065655Y-101391693D01*
X145065648Y-101391693D01*
X145063199Y-101391500D01*
X144936801Y-101391500D01*
X144934352Y-101391693D01*
X144934345Y-101391693D01*
X144847416Y-101398535D01*
X144747597Y-101406391D01*
X144742790Y-101407545D01*
X144742784Y-101407546D01*
X144586032Y-101445179D01*
X144501409Y-101465495D01*
X144496838Y-101467388D01*
X144496836Y-101467389D01*
X144272072Y-101560489D01*
X144272068Y-101560491D01*
X144267498Y-101562384D01*
X144051624Y-101694672D01*
X143965075Y-101768592D01*
X143866302Y-101852953D01*
X143859102Y-101859102D01*
X143855894Y-101862858D01*
X143794169Y-101935129D01*
X143694672Y-102051624D01*
X143562384Y-102267498D01*
X143465495Y-102501409D01*
X143464340Y-102506221D01*
X143413093Y-102719682D01*
X143406391Y-102747597D01*
X143386526Y-103000000D01*
X140666785Y-103000000D01*
X140666779Y-102999923D01*
X140665096Y-102989761D01*
X140611210Y-102775231D01*
X140607889Y-102765476D01*
X140519693Y-102562641D01*
X140514815Y-102553543D01*
X140441724Y-102440561D01*
X140431038Y-102431358D01*
X140421473Y-102435761D01*
X139644521Y-103212712D01*
X139636908Y-103226655D01*
X138912158Y-103226655D01*
X139272500Y-102866313D01*
X140061492Y-102077320D01*
X140068510Y-102064467D01*
X140060736Y-102053796D01*
X140058402Y-102051953D01*
X140049820Y-102046252D01*
X139856178Y-101939356D01*
X139846772Y-101935129D01*
X139680599Y-101876284D01*
X139623062Y-101834690D01*
X139597146Y-101768592D01*
X139611080Y-101698977D01*
X139625358Y-101677457D01*
X139670883Y-101622132D01*
X139728147Y-101488204D01*
X139745519Y-101343586D01*
X139740240Y-101311867D01*
X139722902Y-101207695D01*
X139722901Y-101207692D01*
X139721605Y-101199905D01*
X139696364Y-101142676D01*
X138811577Y-99610180D01*
X138785699Y-99565358D01*
X138768961Y-99496363D01*
X138792181Y-99429271D01*
X138816467Y-99403681D01*
X139363225Y-98969549D01*
X139363233Y-98969542D01*
X139364557Y-98968491D01*
X139744385Y-98631857D01*
X139890143Y-98502674D01*
X139890144Y-98502673D01*
X139891401Y-98501559D01*
X139892584Y-98500390D01*
X139892594Y-98500381D01*
X140281694Y-98116005D01*
X140392223Y-98006818D01*
X140393357Y-98005569D01*
X140393370Y-98005556D01*
X140864397Y-97486995D01*
X140865557Y-97485718D01*
X140938032Y-97396697D01*
X140992052Y-97330343D01*
X141310018Y-96939783D01*
X141311013Y-96938415D01*
X141311023Y-96938403D01*
X141394254Y-96824055D01*
X141445105Y-96754192D01*
X141501364Y-96710888D01*
X141572106Y-96704874D01*
X141609975Y-96719224D01*
X143176858Y-97623864D01*
X143234087Y-97649105D01*
X143241874Y-97650401D01*
X143241877Y-97650402D01*
X143368910Y-97671545D01*
X143368912Y-97671545D01*
X143377768Y-97673019D01*
X143522386Y-97655647D01*
X143656314Y-97598383D01*
X143708758Y-97555229D01*
X143774069Y-97527390D01*
X143844063Y-97539281D01*
X143896517Y-97587125D01*
X143909054Y-97614851D01*
X143909914Y-97617595D01*
X143911051Y-97622642D01*
X143912993Y-97627424D01*
X143912995Y-97627431D01*
X143960793Y-97745142D01*
X143998189Y-97837237D01*
X144000888Y-97841641D01*
X144112424Y-98023651D01*
X144119206Y-98034719D01*
X144270852Y-98209784D01*
X144449054Y-98357730D01*
X144649027Y-98474584D01*
X144865399Y-98557209D01*
X144870465Y-98558240D01*
X144870466Y-98558240D01*
X144923551Y-98569040D01*
X145092361Y-98603385D01*
X145223029Y-98608176D01*
X145318654Y-98611683D01*
X145318658Y-98611683D01*
X145323818Y-98611872D01*
X145328938Y-98611216D01*
X145328940Y-98611216D01*
X145401975Y-98601860D01*
X145553552Y-98582442D01*
X145558500Y-98580957D01*
X145558507Y-98580956D01*
X145770452Y-98517369D01*
X145775395Y-98515886D01*
X145804640Y-98501559D01*
X145978754Y-98416262D01*
X145978757Y-98416260D01*
X145983389Y-98413991D01*
X146171948Y-98279494D01*
X146336008Y-98116005D01*
X146471163Y-97927917D01*
X146480418Y-97909192D01*
X146571489Y-97724922D01*
X146571490Y-97724920D01*
X146573783Y-97720280D01*
X146641113Y-97498671D01*
X146671345Y-97269041D01*
X146672327Y-97228868D01*
X146672950Y-97203365D01*
X146672950Y-97203361D01*
X146673032Y-97200000D01*
X146666737Y-97123434D01*
X146654478Y-96974318D01*
X146654477Y-96974312D01*
X146654054Y-96969167D01*
X146609002Y-96789806D01*
X146598889Y-96749544D01*
X146598888Y-96749540D01*
X146597630Y-96744533D01*
X146594367Y-96737028D01*
X146507335Y-96536868D01*
X146507333Y-96536865D01*
X146505275Y-96532131D01*
X146379469Y-96337665D01*
X146223592Y-96166358D01*
X146219541Y-96163159D01*
X146219537Y-96163155D01*
X146045883Y-96026012D01*
X146045880Y-96026010D01*
X146041828Y-96022810D01*
X145958312Y-95976707D01*
X145908341Y-95926274D01*
X145893205Y-95866398D01*
X145893205Y-90495487D01*
X145913207Y-90427366D01*
X145966863Y-90380873D01*
X145974976Y-90377505D01*
X146038295Y-90353768D01*
X146038296Y-90353767D01*
X146046705Y-90350615D01*
X146163261Y-90263261D01*
X146250615Y-90146705D01*
X146275180Y-90081178D01*
X146317822Y-90024414D01*
X146384383Y-89999714D01*
X146453732Y-90014921D01*
X146473647Y-90028464D01*
X146538724Y-90082492D01*
X146629349Y-90157730D01*
X146829322Y-90274584D01*
X147045694Y-90357209D01*
X147050760Y-90358240D01*
X147050761Y-90358240D01*
X147103846Y-90369040D01*
X147272656Y-90403385D01*
X147402089Y-90408131D01*
X147498949Y-90411683D01*
X147498953Y-90411683D01*
X147504113Y-90411872D01*
X147509233Y-90411216D01*
X147509235Y-90411216D01*
X147583166Y-90401745D01*
X147733847Y-90382442D01*
X147738795Y-90380957D01*
X147738802Y-90380956D01*
X147950747Y-90317369D01*
X147955690Y-90315886D01*
X148036281Y-90276405D01*
X148159049Y-90216262D01*
X148159052Y-90216260D01*
X148163684Y-90213991D01*
X148352243Y-90079494D01*
X148516303Y-89916005D01*
X148651458Y-89727917D01*
X148698641Y-89632450D01*
X148751784Y-89524922D01*
X148751785Y-89524920D01*
X148754078Y-89520280D01*
X148821408Y-89298671D01*
X148851640Y-89069041D01*
X148853327Y-89000000D01*
X148847032Y-88923434D01*
X148834773Y-88774318D01*
X148834772Y-88774312D01*
X148834349Y-88769167D01*
X148777925Y-88544533D01*
X148775866Y-88539797D01*
X148687630Y-88336868D01*
X148687628Y-88336865D01*
X148685570Y-88332131D01*
X148559764Y-88137665D01*
X148403887Y-87966358D01*
X148399836Y-87963159D01*
X148399832Y-87963155D01*
X148226178Y-87826012D01*
X148226175Y-87826010D01*
X148222123Y-87822810D01*
X148138607Y-87776707D01*
X148088636Y-87726274D01*
X148073500Y-87666398D01*
X148073500Y-87093767D01*
X148074027Y-87082584D01*
X148075702Y-87075091D01*
X148075093Y-87055699D01*
X148073562Y-87007014D01*
X148073500Y-87003055D01*
X148073500Y-86975144D01*
X148072995Y-86971144D01*
X148072062Y-86959301D01*
X148070922Y-86923029D01*
X148070673Y-86915110D01*
X148065018Y-86895646D01*
X148061014Y-86876306D01*
X148059493Y-86864267D01*
X148058500Y-86848482D01*
X148058500Y-86525450D01*
X148059027Y-86514267D01*
X148060702Y-86506774D01*
X148058562Y-86438683D01*
X148058500Y-86434726D01*
X148058500Y-86406826D01*
X148057996Y-86402835D01*
X148057063Y-86390993D01*
X148055923Y-86354718D01*
X148055674Y-86346793D01*
X148050021Y-86327334D01*
X148046012Y-86307975D01*
X148045846Y-86306665D01*
X148043474Y-86287885D01*
X148040558Y-86280519D01*
X148040556Y-86280513D01*
X148027200Y-86246780D01*
X148023355Y-86235550D01*
X148013230Y-86200699D01*
X148013230Y-86200698D01*
X148011019Y-86193089D01*
X148000705Y-86175648D01*
X147992008Y-86157895D01*
X147987472Y-86146440D01*
X147984552Y-86139065D01*
X147958563Y-86103294D01*
X147952047Y-86093374D01*
X147933578Y-86062145D01*
X147929542Y-86055320D01*
X147915221Y-86040999D01*
X147902380Y-86025965D01*
X147895131Y-86015988D01*
X147890472Y-86009575D01*
X147856395Y-85981384D01*
X147847616Y-85973394D01*
X144715536Y-82841313D01*
X144681510Y-82779001D01*
X144686575Y-82708185D01*
X144707336Y-82672157D01*
X144708500Y-82670742D01*
X144714201Y-82663814D01*
X144771465Y-82529886D01*
X144788837Y-82385268D01*
X144776915Y-82313638D01*
X144785461Y-82243157D01*
X144830756Y-82188486D01*
X144898417Y-82166982D01*
X144926325Y-82169480D01*
X145073176Y-82199357D01*
X145083406Y-82200576D01*
X145304437Y-82208682D01*
X145314746Y-82208214D01*
X145534146Y-82180108D01*
X145544211Y-82177968D01*
X145756080Y-82114405D01*
X145765675Y-82110644D01*
X145964301Y-82013338D01*
X145973159Y-82008059D01*
X146030620Y-81967072D01*
X146039020Y-81956374D01*
X146032032Y-81943220D01*
X144887445Y-80798632D01*
X145609931Y-80798632D01*
X145610062Y-80800466D01*
X145614313Y-80807080D01*
X146391830Y-81584596D01*
X146403836Y-81591152D01*
X146415575Y-81582184D01*
X146453533Y-81529359D01*
X146458844Y-81520520D01*
X146556841Y-81322237D01*
X146560640Y-81312642D01*
X146624938Y-81101017D01*
X146627117Y-81090936D01*
X146656225Y-80869838D01*
X146656744Y-80863163D01*
X146658267Y-80800864D01*
X146658073Y-80794146D01*
X146639802Y-80571900D01*
X146638119Y-80561738D01*
X146584233Y-80347208D01*
X146580912Y-80337453D01*
X146492716Y-80134618D01*
X146487838Y-80125520D01*
X146414747Y-80012538D01*
X146404061Y-80003335D01*
X146394496Y-80007738D01*
X145617544Y-80784689D01*
X145609931Y-80798632D01*
X144887445Y-80798632D01*
X144886313Y-80797500D01*
X144099387Y-80010575D01*
X144087853Y-80004277D01*
X144075570Y-80013900D01*
X144019990Y-80095377D01*
X144014902Y-80104333D01*
X143921775Y-80304959D01*
X143918212Y-80314646D01*
X143899643Y-80381602D01*
X143862164Y-80441900D01*
X143798035Y-80472363D01*
X143727617Y-80463320D01*
X143698166Y-80445225D01*
X143682147Y-80432044D01*
X143642132Y-80399117D01*
X143508204Y-80341853D01*
X143363586Y-80324481D01*
X143354730Y-80325955D01*
X143354728Y-80325955D01*
X143227695Y-80347098D01*
X143227692Y-80347099D01*
X143219905Y-80348395D01*
X143162676Y-80373636D01*
X142303229Y-80869838D01*
X141605578Y-81272627D01*
X141536583Y-81289365D01*
X141469491Y-81266145D01*
X141440191Y-81236945D01*
X141366179Y-81133756D01*
X141366178Y-81133754D01*
X141365197Y-81132387D01*
X140924558Y-80583363D01*
X140454873Y-80058971D01*
X140034847Y-79638211D01*
X144451031Y-79638211D01*
X144457774Y-79650540D01*
X145232712Y-80425479D01*
X145246655Y-80433092D01*
X145248489Y-80432961D01*
X145255103Y-80428710D01*
X146034517Y-79649295D01*
X146041534Y-79636444D01*
X146033760Y-79625774D01*
X146031425Y-79623930D01*
X146022843Y-79618229D01*
X145829201Y-79511333D01*
X145819795Y-79507106D01*
X145611295Y-79433272D01*
X145601332Y-79430640D01*
X145383570Y-79391850D01*
X145373319Y-79390881D01*
X145152139Y-79388179D01*
X145141855Y-79388899D01*
X144923216Y-79422355D01*
X144913189Y-79424744D01*
X144702949Y-79493461D01*
X144693439Y-79497458D01*
X144497248Y-79599589D01*
X144488530Y-79605078D01*
X144459484Y-79626886D01*
X144451031Y-79638211D01*
X140034847Y-79638211D01*
X139957517Y-79560746D01*
X139945757Y-79550175D01*
X139435202Y-79091276D01*
X139433946Y-79090147D01*
X138885691Y-78648551D01*
X138791300Y-78580599D01*
X138743391Y-78546109D01*
X138699793Y-78490076D01*
X138693409Y-78419367D01*
X138707888Y-78380851D01*
X139445605Y-77103087D01*
X139616364Y-76807324D01*
X139641605Y-76750095D01*
X139654170Y-76674606D01*
X139664045Y-76615272D01*
X139664045Y-76615270D01*
X139665519Y-76606414D01*
X139648147Y-76461796D01*
X139590883Y-76327868D01*
X139544757Y-76271812D01*
X139516919Y-76206504D01*
X139528809Y-76136510D01*
X139576654Y-76084056D01*
X139605845Y-76071068D01*
X139682288Y-76048134D01*
X139708190Y-76040363D01*
X139712824Y-76038093D01*
X139911549Y-75940739D01*
X139911552Y-75940737D01*
X139916184Y-75938468D01*
X140104743Y-75803971D01*
X140268803Y-75640482D01*
X140403958Y-75452394D01*
X140421996Y-75415898D01*
X140504284Y-75249399D01*
X140504285Y-75249397D01*
X140506578Y-75244757D01*
X140573908Y-75023148D01*
X140576956Y-75000000D01*
X143386526Y-75000000D01*
X143406391Y-75252403D01*
X143407545Y-75257210D01*
X143407546Y-75257216D01*
X143441543Y-75398824D01*
X143465495Y-75498591D01*
X143467388Y-75503162D01*
X143467389Y-75503164D01*
X143522530Y-75636285D01*
X143562384Y-75732502D01*
X143694672Y-75948376D01*
X143859102Y-76140898D01*
X144051624Y-76305328D01*
X144267498Y-76437616D01*
X144272068Y-76439509D01*
X144272072Y-76439511D01*
X144496836Y-76532611D01*
X144501409Y-76534505D01*
X144586032Y-76554821D01*
X144742784Y-76592454D01*
X144742790Y-76592455D01*
X144747597Y-76593609D01*
X144847416Y-76601465D01*
X144934345Y-76608307D01*
X144934352Y-76608307D01*
X144936801Y-76608500D01*
X145063199Y-76608500D01*
X145065648Y-76608307D01*
X145065655Y-76608307D01*
X145152584Y-76601465D01*
X145252403Y-76593609D01*
X145257210Y-76592455D01*
X145257216Y-76592454D01*
X145413968Y-76554821D01*
X145498591Y-76534505D01*
X145503164Y-76532611D01*
X145727928Y-76439511D01*
X145727932Y-76439509D01*
X145732502Y-76437616D01*
X145948376Y-76305328D01*
X146140898Y-76140898D01*
X146305328Y-75948376D01*
X146437616Y-75732502D01*
X146477471Y-75636285D01*
X146532611Y-75503164D01*
X146532612Y-75503162D01*
X146534505Y-75498591D01*
X146558457Y-75398824D01*
X146592454Y-75257216D01*
X146592455Y-75257210D01*
X146593609Y-75252403D01*
X146613474Y-75000000D01*
X146593609Y-74747597D01*
X146588867Y-74727842D01*
X146535660Y-74506221D01*
X146534505Y-74501409D01*
X146494856Y-74405687D01*
X146439511Y-74272072D01*
X146439509Y-74272068D01*
X146437616Y-74267498D01*
X146305328Y-74051624D01*
X146140898Y-73859102D01*
X145948376Y-73694672D01*
X145732502Y-73562384D01*
X145727932Y-73560491D01*
X145727928Y-73560489D01*
X145503164Y-73467389D01*
X145503162Y-73467388D01*
X145498591Y-73465495D01*
X145413968Y-73445179D01*
X145257216Y-73407546D01*
X145257210Y-73407545D01*
X145252403Y-73406391D01*
X145152584Y-73398535D01*
X145065655Y-73391693D01*
X145065648Y-73391693D01*
X145063199Y-73391500D01*
X144936801Y-73391500D01*
X144934352Y-73391693D01*
X144934345Y-73391693D01*
X144847416Y-73398535D01*
X144747597Y-73406391D01*
X144742790Y-73407545D01*
X144742784Y-73407546D01*
X144586032Y-73445179D01*
X144501409Y-73465495D01*
X144496838Y-73467388D01*
X144496836Y-73467389D01*
X144272072Y-73560489D01*
X144272068Y-73560491D01*
X144267498Y-73562384D01*
X144051624Y-73694672D01*
X143859102Y-73859102D01*
X143694672Y-74051624D01*
X143562384Y-74267498D01*
X143560491Y-74272068D01*
X143560489Y-74272072D01*
X143505144Y-74405687D01*
X143465495Y-74501409D01*
X143464340Y-74506221D01*
X143411134Y-74727842D01*
X143406391Y-74747597D01*
X143386526Y-75000000D01*
X140576956Y-75000000D01*
X140604140Y-74793518D01*
X140604687Y-74771123D01*
X140605745Y-74727842D01*
X140605745Y-74727838D01*
X140605827Y-74724477D01*
X140588595Y-74514877D01*
X140587273Y-74498795D01*
X140587272Y-74498789D01*
X140586849Y-74493644D01*
X140530425Y-74269010D01*
X140480975Y-74155283D01*
X140440130Y-74061345D01*
X140440128Y-74061342D01*
X140438070Y-74056608D01*
X140312264Y-73862142D01*
X140295683Y-73843919D01*
X140186842Y-73724305D01*
X140156387Y-73690835D01*
X140152336Y-73687636D01*
X140152332Y-73687632D01*
X139978677Y-73550488D01*
X139978672Y-73550485D01*
X139974623Y-73547287D01*
X139970107Y-73544794D01*
X139970104Y-73544792D01*
X139776379Y-73437850D01*
X139776375Y-73437848D01*
X139771855Y-73435353D01*
X139766986Y-73433629D01*
X139766982Y-73433627D01*
X139558403Y-73359765D01*
X139558399Y-73359764D01*
X139553528Y-73358039D01*
X139548435Y-73357132D01*
X139548432Y-73357131D01*
X139330595Y-73318328D01*
X139330589Y-73318327D01*
X139325506Y-73317422D01*
X139252596Y-73316531D01*
X139099081Y-73314656D01*
X139099079Y-73314656D01*
X139093911Y-73314593D01*
X138864964Y-73349627D01*
X138644814Y-73421583D01*
X138640226Y-73423971D01*
X138640222Y-73423973D01*
X138524752Y-73484083D01*
X138439372Y-73528529D01*
X138435239Y-73531632D01*
X138435236Y-73531634D01*
X138258290Y-73664489D01*
X138254155Y-73667594D01*
X138094139Y-73835041D01*
X138091225Y-73839313D01*
X138091224Y-73839314D01*
X137975332Y-74009206D01*
X137963619Y-74026376D01*
X137962903Y-74027919D01*
X137912586Y-74076567D01*
X137854074Y-74090977D01*
X132489557Y-74090977D01*
X132421436Y-74070975D01*
X132374943Y-74017319D01*
X132371575Y-74009206D01*
X132353768Y-73961705D01*
X132353767Y-73961703D01*
X132350615Y-73953295D01*
X132263261Y-73836739D01*
X132146705Y-73749385D01*
X132138296Y-73746233D01*
X132138295Y-73746232D01*
X132079804Y-73724305D01*
X132023039Y-73681664D01*
X131998339Y-73615103D01*
X132013546Y-73545754D01*
X132035093Y-73517073D01*
X132072636Y-73479660D01*
X132072640Y-73479655D01*
X132076303Y-73476005D01*
X132211458Y-73287917D01*
X132228387Y-73253665D01*
X132311784Y-73084922D01*
X132311785Y-73084920D01*
X132314078Y-73080280D01*
X132381408Y-72858671D01*
X132411640Y-72629041D01*
X132413327Y-72560000D01*
X132407032Y-72483434D01*
X132394773Y-72334318D01*
X132394772Y-72334312D01*
X132394349Y-72329167D01*
X132359085Y-72188775D01*
X132339184Y-72109544D01*
X132339183Y-72109540D01*
X132337925Y-72104533D01*
X132333575Y-72094528D01*
X132247630Y-71896868D01*
X132247628Y-71896865D01*
X132245570Y-71892131D01*
X132119764Y-71697665D01*
X131963887Y-71526358D01*
X131959836Y-71523159D01*
X131959832Y-71523155D01*
X131786177Y-71386011D01*
X131786172Y-71386008D01*
X131782123Y-71382810D01*
X131777607Y-71380317D01*
X131777604Y-71380315D01*
X131583879Y-71273373D01*
X131583875Y-71273371D01*
X131579355Y-71270876D01*
X131574486Y-71269152D01*
X131574482Y-71269150D01*
X131365903Y-71195288D01*
X131365899Y-71195287D01*
X131361028Y-71193562D01*
X131355935Y-71192655D01*
X131355932Y-71192654D01*
X131138095Y-71153851D01*
X131138089Y-71153850D01*
X131133006Y-71152945D01*
X131060096Y-71152054D01*
X130906581Y-71150179D01*
X130906579Y-71150179D01*
X130901411Y-71150116D01*
X130672464Y-71185150D01*
X130452314Y-71257106D01*
X130447726Y-71259494D01*
X130447722Y-71259496D01*
X130421065Y-71273373D01*
X130246872Y-71364052D01*
X130242739Y-71367155D01*
X130242736Y-71367157D01*
X130217625Y-71386011D01*
X130061655Y-71503117D01*
X129901639Y-71670564D01*
X129898725Y-71674836D01*
X129898724Y-71674837D01*
X129880189Y-71702009D01*
X129771119Y-71861899D01*
X129770403Y-71863442D01*
X129720086Y-71912090D01*
X129661574Y-71926500D01*
X128518768Y-71926500D01*
X128507585Y-71925973D01*
X128500092Y-71924298D01*
X128492166Y-71924547D01*
X128492165Y-71924547D01*
X128432002Y-71926438D01*
X128428044Y-71926500D01*
X128400144Y-71926500D01*
X128396154Y-71927004D01*
X128384320Y-71927936D01*
X128340111Y-71929326D01*
X128332495Y-71931539D01*
X128332493Y-71931539D01*
X128320652Y-71934979D01*
X128301293Y-71938988D01*
X128299983Y-71939154D01*
X128281203Y-71941526D01*
X128273837Y-71944442D01*
X128273831Y-71944444D01*
X128240098Y-71957800D01*
X128228868Y-71961645D01*
X128194017Y-71971770D01*
X128186407Y-71973981D01*
X128179584Y-71978016D01*
X128168966Y-71984295D01*
X128151213Y-71992992D01*
X128143568Y-71996019D01*
X128132383Y-72000448D01*
X128125968Y-72005109D01*
X128096612Y-72026437D01*
X128086695Y-72032951D01*
X128048638Y-72055458D01*
X128034314Y-72069782D01*
X128019287Y-72082617D01*
X128002893Y-72094528D01*
X127997840Y-72100636D01*
X127997838Y-72100638D01*
X127974708Y-72128598D01*
X127966718Y-72137378D01*
X127932749Y-72171347D01*
X127924460Y-72178890D01*
X127917982Y-72183000D01*
X127912559Y-72188775D01*
X127871372Y-72232636D01*
X127868616Y-72235480D01*
X127848865Y-72255230D01*
X127846385Y-72258427D01*
X127838682Y-72267447D01*
X127808414Y-72299679D01*
X127804594Y-72306628D01*
X127799936Y-72313039D01*
X127799108Y-72312437D01*
X127786349Y-72329429D01*
X124811313Y-75304464D01*
X124749001Y-75338490D01*
X124678185Y-75333425D01*
X124642157Y-75312664D01*
X124640742Y-75311500D01*
X124633814Y-75305799D01*
X124499886Y-75248535D01*
X124355268Y-75231163D01*
X124346412Y-75232637D01*
X124346410Y-75232637D01*
X124321206Y-75236832D01*
X124287064Y-75242515D01*
X124216585Y-75233969D01*
X124161914Y-75188675D01*
X124140409Y-75121013D01*
X124145820Y-75081595D01*
X124146915Y-75077990D01*
X124149094Y-75067913D01*
X124178202Y-74846815D01*
X124178721Y-74840140D01*
X124180244Y-74777841D01*
X124180050Y-74771123D01*
X124161779Y-74548877D01*
X124160096Y-74538715D01*
X124106210Y-74324185D01*
X124102889Y-74314430D01*
X124014693Y-74111595D01*
X124009815Y-74102497D01*
X123936724Y-73989515D01*
X123926038Y-73980312D01*
X123916473Y-73984715D01*
X123126710Y-74774477D01*
X122767500Y-75133687D01*
X121977683Y-75923505D01*
X121970924Y-75935884D01*
X121976205Y-75942938D01*
X122152580Y-76046004D01*
X122161863Y-76050451D01*
X122360908Y-76126460D01*
X122417411Y-76169448D01*
X122441704Y-76236159D01*
X122426074Y-76305414D01*
X122413260Y-76324222D01*
X122369117Y-76377868D01*
X122311853Y-76511796D01*
X122294481Y-76656414D01*
X122295955Y-76665270D01*
X122295955Y-76665272D01*
X122311276Y-76757320D01*
X122318395Y-76800095D01*
X122343636Y-76857324D01*
X122592140Y-77287746D01*
X123243009Y-78415084D01*
X123259747Y-78484079D01*
X123236527Y-78551171D01*
X123207150Y-78580597D01*
X123150490Y-78621087D01*
X123149174Y-78622140D01*
X123149164Y-78622147D01*
X122833212Y-78874820D01*
X122600697Y-79060767D01*
X122599421Y-79061906D01*
X122095881Y-79511333D01*
X122075486Y-79529536D01*
X121927090Y-79677157D01*
X121588580Y-80013900D01*
X121576394Y-80026022D01*
X121104882Y-80548771D01*
X120662329Y-81096254D01*
X120635232Y-81133756D01*
X120507247Y-81310886D01*
X120451138Y-81354387D01*
X120380418Y-81360648D01*
X120342117Y-81346211D01*
X120283974Y-81312642D01*
X118783142Y-80446136D01*
X118725913Y-80420895D01*
X118718126Y-80419599D01*
X118718123Y-80419598D01*
X118591090Y-80398455D01*
X118591088Y-80398455D01*
X118582232Y-80396981D01*
X118437614Y-80414353D01*
X118303686Y-80471617D01*
X118288092Y-80484449D01*
X118249329Y-80516345D01*
X118184018Y-80544184D01*
X118114024Y-80532293D01*
X118061570Y-80484449D01*
X118047065Y-80449747D01*
X118045094Y-80441900D01*
X118038220Y-80414533D01*
X118036161Y-80409797D01*
X117947925Y-80206868D01*
X117947923Y-80206865D01*
X117945865Y-80202131D01*
X117820059Y-80007665D01*
X117792193Y-79977040D01*
X117770429Y-79953122D01*
X117664182Y-79836358D01*
X117660131Y-79833159D01*
X117660127Y-79833155D01*
X117486472Y-79696011D01*
X117486467Y-79696008D01*
X117482418Y-79692810D01*
X117477902Y-79690317D01*
X117477899Y-79690315D01*
X117284174Y-79583373D01*
X117284170Y-79583371D01*
X117279650Y-79580876D01*
X117274781Y-79579152D01*
X117274777Y-79579150D01*
X117066198Y-79505288D01*
X117066194Y-79505287D01*
X117061323Y-79503562D01*
X117056230Y-79502655D01*
X117056227Y-79502654D01*
X116838390Y-79463851D01*
X116838384Y-79463850D01*
X116833301Y-79462945D01*
X116760391Y-79462054D01*
X116606876Y-79460179D01*
X116606874Y-79460179D01*
X116601706Y-79460116D01*
X116372759Y-79495150D01*
X116152609Y-79567106D01*
X116148021Y-79569494D01*
X116148017Y-79569496D01*
X115951756Y-79671663D01*
X115947167Y-79674052D01*
X115943034Y-79677155D01*
X115943031Y-79677157D01*
X115917920Y-79696011D01*
X115761950Y-79813117D01*
X115601934Y-79980564D01*
X115599020Y-79984836D01*
X115599019Y-79984837D01*
X115585758Y-80004277D01*
X115471414Y-80171899D01*
X115373897Y-80381981D01*
X115312002Y-80605169D01*
X115287390Y-80835469D01*
X115287687Y-80840622D01*
X115287687Y-80840625D01*
X115291904Y-80913766D01*
X115300722Y-81066697D01*
X115301859Y-81071743D01*
X115301860Y-81071749D01*
X115307088Y-81094947D01*
X115351641Y-81292642D01*
X115353583Y-81297424D01*
X115353584Y-81297428D01*
X115403642Y-81420705D01*
X115438779Y-81507237D01*
X115559796Y-81704719D01*
X115711442Y-81879784D01*
X115889644Y-82027730D01*
X115894111Y-82030340D01*
X116004365Y-82094767D01*
X116053089Y-82146405D01*
X116066795Y-82203555D01*
X116066795Y-87513885D01*
X116046793Y-87582006D01*
X115993137Y-87628499D01*
X115985027Y-87631866D01*
X115975898Y-87635288D01*
X115946705Y-87646232D01*
X115946704Y-87646233D01*
X115938295Y-87649385D01*
X115821739Y-87736739D01*
X115734385Y-87853295D01*
X115731233Y-87861704D01*
X115731232Y-87861705D01*
X115710538Y-87916906D01*
X115667897Y-87973671D01*
X115601335Y-87998371D01*
X115531986Y-87983164D01*
X115509167Y-87966666D01*
X115508887Y-87966358D01*
X115376373Y-87861705D01*
X115331177Y-87826011D01*
X115331172Y-87826008D01*
X115327123Y-87822810D01*
X115322607Y-87820317D01*
X115322604Y-87820315D01*
X115128879Y-87713373D01*
X115128875Y-87713371D01*
X115124355Y-87710876D01*
X115119486Y-87709152D01*
X115119482Y-87709150D01*
X114910903Y-87635288D01*
X114910899Y-87635287D01*
X114906028Y-87633562D01*
X114900935Y-87632655D01*
X114900932Y-87632654D01*
X114683095Y-87593851D01*
X114683089Y-87593850D01*
X114678006Y-87592945D01*
X114605096Y-87592054D01*
X114451581Y-87590179D01*
X114451579Y-87590179D01*
X114446411Y-87590116D01*
X114217464Y-87625150D01*
X113997314Y-87697106D01*
X113992726Y-87699494D01*
X113992722Y-87699496D01*
X113844401Y-87776707D01*
X113791872Y-87804052D01*
X113787739Y-87807155D01*
X113787736Y-87807157D01*
X113639319Y-87918592D01*
X113606655Y-87943117D01*
X113446639Y-88110564D01*
X113443725Y-88114836D01*
X113443724Y-88114837D01*
X113428152Y-88137665D01*
X113316119Y-88301899D01*
X113218602Y-88511981D01*
X113156707Y-88735169D01*
X113132095Y-88965469D01*
X112508000Y-88965469D01*
X112508000Y-75000000D01*
X115386526Y-75000000D01*
X115406391Y-75252403D01*
X115407545Y-75257210D01*
X115407546Y-75257216D01*
X115441543Y-75398824D01*
X115465495Y-75498591D01*
X115467388Y-75503162D01*
X115467389Y-75503164D01*
X115522530Y-75636285D01*
X115562384Y-75732502D01*
X115694672Y-75948376D01*
X115859102Y-76140898D01*
X116051624Y-76305328D01*
X116267498Y-76437616D01*
X116272068Y-76439509D01*
X116272072Y-76439511D01*
X116496836Y-76532611D01*
X116501409Y-76534505D01*
X116586032Y-76554821D01*
X116742784Y-76592454D01*
X116742790Y-76592455D01*
X116747597Y-76593609D01*
X116847416Y-76601465D01*
X116934345Y-76608307D01*
X116934352Y-76608307D01*
X116936801Y-76608500D01*
X117063199Y-76608500D01*
X117065648Y-76608307D01*
X117065655Y-76608307D01*
X117152584Y-76601465D01*
X117252403Y-76593609D01*
X117257210Y-76592455D01*
X117257216Y-76592454D01*
X117413968Y-76554821D01*
X117498591Y-76534505D01*
X117503164Y-76532611D01*
X117727928Y-76439511D01*
X117727932Y-76439509D01*
X117732502Y-76437616D01*
X117948376Y-76305328D01*
X118140898Y-76140898D01*
X118305328Y-75948376D01*
X118437616Y-75732502D01*
X118477471Y-75636285D01*
X118532611Y-75503164D01*
X118532612Y-75503162D01*
X118534505Y-75498591D01*
X118558457Y-75398824D01*
X118592454Y-75257216D01*
X118592455Y-75257210D01*
X118593609Y-75252403D01*
X118613474Y-75000000D01*
X118593609Y-74747597D01*
X118593013Y-74745115D01*
X121355393Y-74745115D01*
X121368127Y-74965945D01*
X121369561Y-74976147D01*
X121418185Y-75191916D01*
X121421273Y-75201769D01*
X121504486Y-75406697D01*
X121509134Y-75415898D01*
X121597597Y-75560258D01*
X121608053Y-75569719D01*
X121616831Y-75565935D01*
X122395479Y-74787288D01*
X122403092Y-74773345D01*
X122402961Y-74771511D01*
X122398710Y-74764897D01*
X121621362Y-73987550D01*
X121609830Y-73981253D01*
X121597548Y-73990876D01*
X121541967Y-74072354D01*
X121536879Y-74081310D01*
X121443752Y-74281936D01*
X121440189Y-74291623D01*
X121381081Y-74504757D01*
X121379150Y-74514877D01*
X121355645Y-74734826D01*
X121355393Y-74745115D01*
X118593013Y-74745115D01*
X118588867Y-74727842D01*
X118535660Y-74506221D01*
X118534505Y-74501409D01*
X118494856Y-74405687D01*
X118439511Y-74272072D01*
X118439509Y-74272068D01*
X118437616Y-74267498D01*
X118305328Y-74051624D01*
X118140898Y-73859102D01*
X117948376Y-73694672D01*
X117818670Y-73615188D01*
X121973008Y-73615188D01*
X121979751Y-73627517D01*
X122754689Y-74402456D01*
X122768632Y-74410069D01*
X122770466Y-74409938D01*
X122777080Y-74405687D01*
X123556494Y-73626272D01*
X123563511Y-73613421D01*
X123555737Y-73602751D01*
X123553402Y-73600907D01*
X123544820Y-73595206D01*
X123351178Y-73488310D01*
X123341772Y-73484083D01*
X123133272Y-73410249D01*
X123123309Y-73407617D01*
X122905547Y-73368827D01*
X122895296Y-73367858D01*
X122674116Y-73365156D01*
X122663832Y-73365876D01*
X122445193Y-73399332D01*
X122435166Y-73401721D01*
X122224926Y-73470438D01*
X122215416Y-73474435D01*
X122019225Y-73576566D01*
X122010507Y-73582055D01*
X121981461Y-73603863D01*
X121973008Y-73615188D01*
X117818670Y-73615188D01*
X117732502Y-73562384D01*
X117727932Y-73560491D01*
X117727928Y-73560489D01*
X117503164Y-73467389D01*
X117503162Y-73467388D01*
X117498591Y-73465495D01*
X117413968Y-73445179D01*
X117257216Y-73407546D01*
X117257210Y-73407545D01*
X117252403Y-73406391D01*
X117152584Y-73398535D01*
X117065655Y-73391693D01*
X117065648Y-73391693D01*
X117063199Y-73391500D01*
X116936801Y-73391500D01*
X116934352Y-73391693D01*
X116934345Y-73391693D01*
X116847416Y-73398535D01*
X116747597Y-73406391D01*
X116742790Y-73407545D01*
X116742784Y-73407546D01*
X116586032Y-73445179D01*
X116501409Y-73465495D01*
X116496838Y-73467388D01*
X116496836Y-73467389D01*
X116272072Y-73560489D01*
X116272068Y-73560491D01*
X116267498Y-73562384D01*
X116051624Y-73694672D01*
X115859102Y-73859102D01*
X115694672Y-74051624D01*
X115562384Y-74267498D01*
X115560491Y-74272068D01*
X115560489Y-74272072D01*
X115505144Y-74405687D01*
X115465495Y-74501409D01*
X115464340Y-74506221D01*
X115411134Y-74727842D01*
X115406391Y-74747597D01*
X115386526Y-75000000D01*
X112508000Y-75000000D01*
X112508000Y-70634000D01*
X112528002Y-70565879D01*
X112581658Y-70519386D01*
X112634000Y-70508000D01*
X123118366Y-70508000D01*
X123139270Y-70509746D01*
X123159034Y-70513071D01*
X123165154Y-70513146D01*
X123166706Y-70513165D01*
X123166711Y-70513165D01*
X123171573Y-70513224D01*
X123176396Y-70512533D01*
X123179319Y-70512343D01*
X123187112Y-70511617D01*
X123562085Y-70495245D01*
X123562096Y-70495244D01*
X123564845Y-70495124D01*
X123806042Y-70463370D01*
X123952400Y-70444102D01*
X123952406Y-70444101D01*
X123955125Y-70443743D01*
X124339441Y-70358542D01*
X124342066Y-70357714D01*
X124342071Y-70357713D01*
X124712241Y-70240999D01*
X124712249Y-70240996D01*
X124714869Y-70240170D01*
X125078551Y-70089528D01*
X125427721Y-69907762D01*
X125759719Y-69696256D01*
X126012877Y-69502001D01*
X126069844Y-69458289D01*
X126069848Y-69458286D01*
X126072020Y-69456619D01*
X126362247Y-69190674D01*
X126628192Y-68900447D01*
X126632626Y-68894669D01*
X128367001Y-68894669D01*
X128367371Y-68901490D01*
X128372895Y-68952352D01*
X128376521Y-68967604D01*
X128421676Y-69088054D01*
X128430214Y-69103649D01*
X128506715Y-69205724D01*
X128519276Y-69218285D01*
X128621351Y-69294786D01*
X128636946Y-69303324D01*
X128757394Y-69348478D01*
X128772649Y-69352105D01*
X128823514Y-69357631D01*
X128830328Y-69358000D01*
X129452885Y-69358000D01*
X129468124Y-69353525D01*
X129469329Y-69352135D01*
X129471000Y-69344452D01*
X129471000Y-68272115D01*
X129466525Y-68256876D01*
X129465135Y-68255671D01*
X129457452Y-68254000D01*
X128385116Y-68254000D01*
X128369877Y-68258475D01*
X128368672Y-68259865D01*
X128367001Y-68267548D01*
X128367001Y-68894669D01*
X126632626Y-68894669D01*
X126641205Y-68883489D01*
X126691981Y-68817316D01*
X126867829Y-68588146D01*
X127079335Y-68256148D01*
X127261101Y-67906978D01*
X127411743Y-67543296D01*
X127416155Y-67529305D01*
X127529286Y-67170498D01*
X127529287Y-67170493D01*
X127530115Y-67167868D01*
X127615316Y-66783552D01*
X127618531Y-66759137D01*
X127637170Y-66617554D01*
X127665892Y-66552627D01*
X127725158Y-66513535D01*
X127762092Y-66508000D01*
X128506275Y-66508000D01*
X128574396Y-66528002D01*
G37*
%TD.AperFunction*%
%TD*%
M02*
