%FSLAX45Y45*%
G04 Gerber Fmt 4.5, Leading zero omitted, Abs format (unit mm)*
G04 Created by KiCad (PCBNEW (6.0.1-0)) date 2022-03-28 18:36:19*
%MOMM*%
%LPD*%
G01*
G04 APERTURE LIST*
%TA.AperFunction,Profile*%
%ADD10C,0.100000*%
%TD*%
%ADD11C,0.200000*%
%ADD12C,0.220000*%
G04 APERTURE END LIST*
D10*
X14350000Y-8900000D02*
G75*
G03*
X14350000Y-8900000I-1250000J0D01*
G01*
X12317157Y-7000000D02*
G75*
G03*
X12717157Y-6600000I0J400000D01*
G01*
X13900000Y-7000000D02*
X15000000Y-7000000D01*
X15000000Y-10800000D02*
X11200000Y-10800000D01*
X12717157Y-6600000D02*
X13500000Y-6600000D01*
X13500000Y-6600000D02*
G75*
G03*
X13900000Y-7000000I400000J0D01*
G01*
X15000000Y-7000000D02*
X15000000Y-10800000D01*
X11200000Y-7000000D02*
X12317157Y-7000000D01*
X11200000Y-10800000D02*
X11200000Y-7000000D01*
D11*
D12*
X11590000Y-7390000D02*
X11810000Y-7610000D01*
X11810000Y-7390000D02*
X11590000Y-7610000D01*
X11590000Y-10190000D02*
X11810000Y-10410000D01*
X11810000Y-10190000D02*
X11590000Y-10410000D01*
X14390000Y-7390000D02*
X14610000Y-7610000D01*
X14610000Y-7390000D02*
X14390000Y-7610000D01*
X14390000Y-10190000D02*
X14610000Y-10410000D01*
X14610000Y-10190000D02*
X14390000Y-10410000D01*
D11*
X11452619Y-11115476D02*
X11452619Y-10915476D01*
X11500238Y-10915476D01*
X11528809Y-10925000D01*
X11547857Y-10944048D01*
X11557381Y-10963095D01*
X11566905Y-11001190D01*
X11566905Y-11029762D01*
X11557381Y-11067857D01*
X11547857Y-11086905D01*
X11528809Y-11105952D01*
X11500238Y-11115476D01*
X11452619Y-11115476D01*
X11652619Y-11115476D02*
X11652619Y-10982143D01*
X11652619Y-11020238D02*
X11662143Y-11001190D01*
X11671667Y-10991667D01*
X11690714Y-10982143D01*
X11709762Y-10982143D01*
X11776428Y-11115476D02*
X11776428Y-10982143D01*
X11776428Y-10915476D02*
X11766905Y-10925000D01*
X11776428Y-10934524D01*
X11785952Y-10925000D01*
X11776428Y-10915476D01*
X11776428Y-10934524D01*
X11900238Y-11115476D02*
X11881190Y-11105952D01*
X11871667Y-11086905D01*
X11871667Y-10915476D01*
X12005000Y-11115476D02*
X11985952Y-11105952D01*
X11976428Y-11086905D01*
X11976428Y-10915476D01*
X12233571Y-11115476D02*
X12233571Y-10915476D01*
X12300238Y-11058333D01*
X12366905Y-10915476D01*
X12366905Y-11115476D01*
X12547857Y-11115476D02*
X12547857Y-11010714D01*
X12538333Y-10991667D01*
X12519286Y-10982143D01*
X12481190Y-10982143D01*
X12462143Y-10991667D01*
X12547857Y-11105952D02*
X12528809Y-11115476D01*
X12481190Y-11115476D01*
X12462143Y-11105952D01*
X12452619Y-11086905D01*
X12452619Y-11067857D01*
X12462143Y-11048810D01*
X12481190Y-11039286D01*
X12528809Y-11039286D01*
X12547857Y-11029762D01*
X12643095Y-10982143D02*
X12643095Y-11182143D01*
X12643095Y-10991667D02*
X12662143Y-10982143D01*
X12700238Y-10982143D01*
X12719286Y-10991667D01*
X12728809Y-11001190D01*
X12738333Y-11020238D01*
X12738333Y-11077381D01*
X12728809Y-11096429D01*
X12719286Y-11105952D01*
X12700238Y-11115476D01*
X12662143Y-11115476D01*
X12643095Y-11105952D01*
X12824048Y-11096429D02*
X12833571Y-11105952D01*
X12824048Y-11115476D01*
X12814524Y-11105952D01*
X12824048Y-11096429D01*
X12824048Y-11115476D01*
X12824048Y-10991667D02*
X12833571Y-11001190D01*
X12824048Y-11010714D01*
X12814524Y-11001190D01*
X12824048Y-10991667D01*
X12824048Y-11010714D01*
X10995000Y-11345000D02*
X11195000Y-11545000D01*
X11195000Y-11345000D02*
X10995000Y-11545000D01*
X11443095Y-11354524D02*
X11452619Y-11345000D01*
X11471667Y-11335476D01*
X11519286Y-11335476D01*
X11538333Y-11345000D01*
X11547857Y-11354524D01*
X11557381Y-11373571D01*
X11557381Y-11392619D01*
X11547857Y-11421190D01*
X11433571Y-11535476D01*
X11557381Y-11535476D01*
X11643095Y-11516428D02*
X11652619Y-11525952D01*
X11643095Y-11535476D01*
X11633571Y-11525952D01*
X11643095Y-11516428D01*
X11643095Y-11535476D01*
X11728809Y-11354524D02*
X11738333Y-11345000D01*
X11757381Y-11335476D01*
X11805000Y-11335476D01*
X11824048Y-11345000D01*
X11833571Y-11354524D01*
X11843095Y-11373571D01*
X11843095Y-11392619D01*
X11833571Y-11421190D01*
X11719286Y-11535476D01*
X11843095Y-11535476D01*
X11966905Y-11335476D02*
X11985952Y-11335476D01*
X12005000Y-11345000D01*
X12014524Y-11354524D01*
X12024048Y-11373571D01*
X12033571Y-11411667D01*
X12033571Y-11459286D01*
X12024048Y-11497381D01*
X12014524Y-11516428D01*
X12005000Y-11525952D01*
X11985952Y-11535476D01*
X11966905Y-11535476D01*
X11947857Y-11525952D01*
X11938333Y-11516428D01*
X11928809Y-11497381D01*
X11919286Y-11459286D01*
X11919286Y-11411667D01*
X11928809Y-11373571D01*
X11938333Y-11354524D01*
X11947857Y-11345000D01*
X11966905Y-11335476D01*
X12157381Y-11335476D02*
X12176428Y-11335476D01*
X12195476Y-11345000D01*
X12205000Y-11354524D01*
X12214524Y-11373571D01*
X12224048Y-11411667D01*
X12224048Y-11459286D01*
X12214524Y-11497381D01*
X12205000Y-11516428D01*
X12195476Y-11525952D01*
X12176428Y-11535476D01*
X12157381Y-11535476D01*
X12138333Y-11525952D01*
X12128809Y-11516428D01*
X12119286Y-11497381D01*
X12109762Y-11459286D01*
X12109762Y-11411667D01*
X12119286Y-11373571D01*
X12128809Y-11354524D01*
X12138333Y-11345000D01*
X12157381Y-11335476D01*
X12309762Y-11535476D02*
X12309762Y-11402143D01*
X12309762Y-11421190D02*
X12319286Y-11411667D01*
X12338333Y-11402143D01*
X12366905Y-11402143D01*
X12385952Y-11411667D01*
X12395476Y-11430714D01*
X12395476Y-11535476D01*
X12395476Y-11430714D02*
X12405000Y-11411667D01*
X12424048Y-11402143D01*
X12452619Y-11402143D01*
X12471667Y-11411667D01*
X12481190Y-11430714D01*
X12481190Y-11535476D01*
X12576428Y-11535476D02*
X12576428Y-11402143D01*
X12576428Y-11421190D02*
X12585952Y-11411667D01*
X12605000Y-11402143D01*
X12633571Y-11402143D01*
X12652619Y-11411667D01*
X12662143Y-11430714D01*
X12662143Y-11535476D01*
X12662143Y-11430714D02*
X12671667Y-11411667D01*
X12690714Y-11402143D01*
X12719286Y-11402143D01*
X12738333Y-11411667D01*
X12747857Y-11430714D01*
X12747857Y-11535476D01*
X13138333Y-11325952D02*
X12966905Y-11583095D01*
X13395476Y-11335476D02*
X13414524Y-11335476D01*
X13433571Y-11345000D01*
X13443095Y-11354524D01*
X13452619Y-11373571D01*
X13462143Y-11411667D01*
X13462143Y-11459286D01*
X13452619Y-11497381D01*
X13443095Y-11516428D01*
X13433571Y-11525952D01*
X13414524Y-11535476D01*
X13395476Y-11535476D01*
X13376428Y-11525952D01*
X13366905Y-11516428D01*
X13357381Y-11497381D01*
X13347857Y-11459286D01*
X13347857Y-11411667D01*
X13357381Y-11373571D01*
X13366905Y-11354524D01*
X13376428Y-11345000D01*
X13395476Y-11335476D01*
X13547857Y-11516428D02*
X13557381Y-11525952D01*
X13547857Y-11535476D01*
X13538333Y-11525952D01*
X13547857Y-11516428D01*
X13547857Y-11535476D01*
X13681190Y-11335476D02*
X13700238Y-11335476D01*
X13719286Y-11345000D01*
X13728809Y-11354524D01*
X13738333Y-11373571D01*
X13747857Y-11411667D01*
X13747857Y-11459286D01*
X13738333Y-11497381D01*
X13728809Y-11516428D01*
X13719286Y-11525952D01*
X13700238Y-11535476D01*
X13681190Y-11535476D01*
X13662143Y-11525952D01*
X13652619Y-11516428D01*
X13643095Y-11497381D01*
X13633571Y-11459286D01*
X13633571Y-11411667D01*
X13643095Y-11373571D01*
X13652619Y-11354524D01*
X13662143Y-11345000D01*
X13681190Y-11335476D01*
X13862143Y-11421190D02*
X13843095Y-11411667D01*
X13833571Y-11402143D01*
X13824048Y-11383095D01*
X13824048Y-11373571D01*
X13833571Y-11354524D01*
X13843095Y-11345000D01*
X13862143Y-11335476D01*
X13900238Y-11335476D01*
X13919286Y-11345000D01*
X13928809Y-11354524D01*
X13938333Y-11373571D01*
X13938333Y-11383095D01*
X13928809Y-11402143D01*
X13919286Y-11411667D01*
X13900238Y-11421190D01*
X13862143Y-11421190D01*
X13843095Y-11430714D01*
X13833571Y-11440238D01*
X13824048Y-11459286D01*
X13824048Y-11497381D01*
X13833571Y-11516428D01*
X13843095Y-11525952D01*
X13862143Y-11535476D01*
X13900238Y-11535476D01*
X13919286Y-11525952D01*
X13928809Y-11516428D01*
X13938333Y-11497381D01*
X13938333Y-11459286D01*
X13928809Y-11440238D01*
X13919286Y-11430714D01*
X13900238Y-11421190D01*
X14109762Y-11335476D02*
X14071667Y-11335476D01*
X14052619Y-11345000D01*
X14043095Y-11354524D01*
X14024048Y-11383095D01*
X14014524Y-11421190D01*
X14014524Y-11497381D01*
X14024048Y-11516428D01*
X14033571Y-11525952D01*
X14052619Y-11535476D01*
X14090714Y-11535476D01*
X14109762Y-11525952D01*
X14119286Y-11516428D01*
X14128809Y-11497381D01*
X14128809Y-11449762D01*
X14119286Y-11430714D01*
X14109762Y-11421190D01*
X14090714Y-11411667D01*
X14052619Y-11411667D01*
X14033571Y-11421190D01*
X14024048Y-11430714D01*
X14014524Y-11449762D01*
X14300238Y-11335476D02*
X14262143Y-11335476D01*
X14243095Y-11345000D01*
X14233571Y-11354524D01*
X14214524Y-11383095D01*
X14205000Y-11421190D01*
X14205000Y-11497381D01*
X14214524Y-11516428D01*
X14224048Y-11525952D01*
X14243095Y-11535476D01*
X14281190Y-11535476D01*
X14300238Y-11525952D01*
X14309762Y-11516428D01*
X14319286Y-11497381D01*
X14319286Y-11449762D01*
X14309762Y-11430714D01*
X14300238Y-11421190D01*
X14281190Y-11411667D01*
X14243095Y-11411667D01*
X14224048Y-11421190D01*
X14214524Y-11430714D01*
X14205000Y-11449762D01*
X14395476Y-11335476D02*
X14395476Y-11373571D01*
X14471667Y-11335476D02*
X14471667Y-11373571D01*
X14766905Y-11611667D02*
X14757381Y-11602143D01*
X14738333Y-11573571D01*
X14728809Y-11554524D01*
X14719286Y-11525952D01*
X14709762Y-11478333D01*
X14709762Y-11440238D01*
X14719286Y-11392619D01*
X14728809Y-11364048D01*
X14738333Y-11345000D01*
X14757381Y-11316428D01*
X14766905Y-11306905D01*
X14928809Y-11402143D02*
X14928809Y-11535476D01*
X14881190Y-11325952D02*
X14833571Y-11468809D01*
X14957381Y-11468809D01*
X15185952Y-11535476D02*
X15185952Y-11335476D01*
X15271667Y-11535476D02*
X15271667Y-11430714D01*
X15262143Y-11411667D01*
X15243095Y-11402143D01*
X15214524Y-11402143D01*
X15195476Y-11411667D01*
X15185952Y-11421190D01*
X15395476Y-11535476D02*
X15376428Y-11525952D01*
X15366905Y-11516428D01*
X15357381Y-11497381D01*
X15357381Y-11440238D01*
X15366905Y-11421190D01*
X15376428Y-11411667D01*
X15395476Y-11402143D01*
X15424048Y-11402143D01*
X15443095Y-11411667D01*
X15452619Y-11421190D01*
X15462143Y-11440238D01*
X15462143Y-11497381D01*
X15452619Y-11516428D01*
X15443095Y-11525952D01*
X15424048Y-11535476D01*
X15395476Y-11535476D01*
X15576428Y-11535476D02*
X15557381Y-11525952D01*
X15547857Y-11506905D01*
X15547857Y-11335476D01*
X15728809Y-11525952D02*
X15709762Y-11535476D01*
X15671667Y-11535476D01*
X15652619Y-11525952D01*
X15643095Y-11506905D01*
X15643095Y-11430714D01*
X15652619Y-11411667D01*
X15671667Y-11402143D01*
X15709762Y-11402143D01*
X15728809Y-11411667D01*
X15738333Y-11430714D01*
X15738333Y-11449762D01*
X15643095Y-11468809D01*
X15814524Y-11525952D02*
X15833571Y-11535476D01*
X15871667Y-11535476D01*
X15890714Y-11525952D01*
X15900238Y-11506905D01*
X15900238Y-11497381D01*
X15890714Y-11478333D01*
X15871667Y-11468809D01*
X15843095Y-11468809D01*
X15824048Y-11459286D01*
X15814524Y-11440238D01*
X15814524Y-11430714D01*
X15824048Y-11411667D01*
X15843095Y-11402143D01*
X15871667Y-11402143D01*
X15890714Y-11411667D01*
X15966905Y-11611667D02*
X15976428Y-11602143D01*
X15995476Y-11573571D01*
X16005000Y-11554524D01*
X16014524Y-11525952D01*
X16024048Y-11478333D01*
X16024048Y-11440238D01*
X16014524Y-11392619D01*
X16005000Y-11364048D01*
X15995476Y-11345000D01*
X15976428Y-11316428D01*
X15966905Y-11306905D01*
X16328809Y-11611667D02*
X16319286Y-11602143D01*
X16300238Y-11573571D01*
X16290714Y-11554524D01*
X16281190Y-11525952D01*
X16271667Y-11478333D01*
X16271667Y-11440238D01*
X16281190Y-11392619D01*
X16290714Y-11364048D01*
X16300238Y-11345000D01*
X16319286Y-11316428D01*
X16328809Y-11306905D01*
X16405000Y-11402143D02*
X16405000Y-11535476D01*
X16405000Y-11421190D02*
X16414524Y-11411667D01*
X16433571Y-11402143D01*
X16462143Y-11402143D01*
X16481190Y-11411667D01*
X16490714Y-11430714D01*
X16490714Y-11535476D01*
X16614524Y-11535476D02*
X16595476Y-11525952D01*
X16585952Y-11516428D01*
X16576428Y-11497381D01*
X16576428Y-11440238D01*
X16585952Y-11421190D01*
X16595476Y-11411667D01*
X16614524Y-11402143D01*
X16643095Y-11402143D01*
X16662143Y-11411667D01*
X16671667Y-11421190D01*
X16681190Y-11440238D01*
X16681190Y-11497381D01*
X16671667Y-11516428D01*
X16662143Y-11525952D01*
X16643095Y-11535476D01*
X16614524Y-11535476D01*
X16738333Y-11402143D02*
X16814524Y-11402143D01*
X16766905Y-11335476D02*
X16766905Y-11506905D01*
X16776428Y-11525952D01*
X16795476Y-11535476D01*
X16814524Y-11535476D01*
X17033571Y-11402143D02*
X17033571Y-11602143D01*
X17033571Y-11411667D02*
X17052619Y-11402143D01*
X17090714Y-11402143D01*
X17109762Y-11411667D01*
X17119286Y-11421190D01*
X17128810Y-11440238D01*
X17128810Y-11497381D01*
X17119286Y-11516428D01*
X17109762Y-11525952D01*
X17090714Y-11535476D01*
X17052619Y-11535476D01*
X17033571Y-11525952D01*
X17243095Y-11535476D02*
X17224048Y-11525952D01*
X17214524Y-11506905D01*
X17214524Y-11335476D01*
X17405000Y-11535476D02*
X17405000Y-11430714D01*
X17395476Y-11411667D01*
X17376429Y-11402143D01*
X17338333Y-11402143D01*
X17319286Y-11411667D01*
X17405000Y-11525952D02*
X17385952Y-11535476D01*
X17338333Y-11535476D01*
X17319286Y-11525952D01*
X17309762Y-11506905D01*
X17309762Y-11487857D01*
X17319286Y-11468809D01*
X17338333Y-11459286D01*
X17385952Y-11459286D01*
X17405000Y-11449762D01*
X17471667Y-11402143D02*
X17547857Y-11402143D01*
X17500238Y-11335476D02*
X17500238Y-11506905D01*
X17509762Y-11525952D01*
X17528810Y-11535476D01*
X17547857Y-11535476D01*
X17690714Y-11525952D02*
X17671667Y-11535476D01*
X17633571Y-11535476D01*
X17614524Y-11525952D01*
X17605000Y-11506905D01*
X17605000Y-11430714D01*
X17614524Y-11411667D01*
X17633571Y-11402143D01*
X17671667Y-11402143D01*
X17690714Y-11411667D01*
X17700238Y-11430714D01*
X17700238Y-11449762D01*
X17605000Y-11468809D01*
X17871667Y-11535476D02*
X17871667Y-11335476D01*
X17871667Y-11525952D02*
X17852619Y-11535476D01*
X17814524Y-11535476D01*
X17795476Y-11525952D01*
X17785952Y-11516428D01*
X17776429Y-11497381D01*
X17776429Y-11440238D01*
X17785952Y-11421190D01*
X17795476Y-11411667D01*
X17814524Y-11402143D01*
X17852619Y-11402143D01*
X17871667Y-11411667D01*
X17947857Y-11611667D02*
X17957381Y-11602143D01*
X17976429Y-11573571D01*
X17985952Y-11554524D01*
X17995476Y-11525952D01*
X18005000Y-11478333D01*
X18005000Y-11440238D01*
X17995476Y-11392619D01*
X17985952Y-11364048D01*
X17976429Y-11345000D01*
X17957381Y-11316428D01*
X17947857Y-11306905D01*
M02*
