%TF.GenerationSoftware,KiCad,Pcbnew,(6.0.1-0)*%
%TF.CreationDate,2022-03-28T18:36:01+02:00*%
%TF.ProjectId,Ring_Light_PCB,52696e67-5f4c-4696-9768-745f5043422e,1.0*%
%TF.SameCoordinates,Original*%
%TF.FileFunction,Soldermask,Bot*%
%TF.FilePolarity,Negative*%
%FSLAX46Y46*%
G04 Gerber Fmt 4.6, Leading zero omitted, Abs format (unit mm)*
G04 Created by KiCad (PCBNEW (6.0.1-0)) date 2022-03-28 18:36:01*
%MOMM*%
%LPD*%
G01*
G04 APERTURE LIST*
G04 Aperture macros list*
%AMRoundRect*
0 Rectangle with rounded corners*
0 $1 Rounding radius*
0 $2 $3 $4 $5 $6 $7 $8 $9 X,Y pos of 4 corners*
0 Add a 4 corners polygon primitive as box body*
4,1,4,$2,$3,$4,$5,$6,$7,$8,$9,$2,$3,0*
0 Add four circle primitives for the rounded corners*
1,1,$1+$1,$2,$3*
1,1,$1+$1,$4,$5*
1,1,$1+$1,$6,$7*
1,1,$1+$1,$8,$9*
0 Add four rect primitives between the rounded corners*
20,1,$1+$1,$2,$3,$4,$5,0*
20,1,$1+$1,$4,$5,$6,$7,0*
20,1,$1+$1,$6,$7,$8,$9,0*
20,1,$1+$1,$8,$9,$2,$3,0*%
%AMRotRect*
0 Rectangle, with rotation*
0 The origin of the aperture is its center*
0 $1 length*
0 $2 width*
0 $3 Rotation angle, in degrees counterclockwise*
0 Add horizontal line*
21,1,$1,$2,0,0,$3*%
G04 Aperture macros list end*
%ADD10R,1.700000X1.700000*%
%ADD11O,1.700000X1.700000*%
%ADD12RotRect,1.800000X1.800000X210.000000*%
%ADD13C,1.800000*%
%ADD14C,2.200000*%
%ADD15RotRect,1.800000X1.800000X330.000000*%
%ADD16RotRect,1.800000X1.800000X240.000000*%
%ADD17RotRect,1.800000X1.800000X300.000000*%
%ADD18R,1.800000X1.800000*%
%ADD19RotRect,1.800000X1.800000X120.000000*%
%ADD20RotRect,1.800000X1.800000X150.000000*%
%ADD21RotRect,1.800000X1.800000X60.000000*%
%ADD22RotRect,1.800000X1.800000X30.000000*%
%ADD23C,2.000000*%
%ADD24RoundRect,0.250000X-0.565685X-0.070711X-0.070711X-0.565685X0.565685X0.070711X0.070711X0.565685X0*%
%ADD25RoundRect,0.250000X0.070711X-0.565685X0.565685X-0.070711X-0.070711X0.565685X-0.565685X0.070711X0*%
%ADD26RoundRect,0.250000X-0.070711X0.565685X-0.565685X0.070711X0.070711X-0.565685X0.565685X-0.070711X0*%
%ADD27RoundRect,0.250000X0.565685X0.070711X0.070711X0.565685X-0.565685X-0.070711X-0.070711X-0.565685X0*%
G04 APERTURE END LIST*
D10*
%TO.C,J1*%
X129725000Y-68000000D03*
D11*
X132265000Y-68000000D03*
%TD*%
D12*
%TO.C,D11*%
X118970000Y-95960000D03*
D13*
X116770295Y-97230000D03*
%TD*%
D14*
%TO.C,REF\u002A\u002A*%
X117000000Y-103000000D03*
%TD*%
D15*
%TO.C,D1*%
X143060000Y-95930000D03*
D13*
X145259705Y-97200000D03*
%TD*%
D16*
%TO.C,D4*%
X124070000Y-101060000D03*
D13*
X122800000Y-103259705D03*
%TD*%
D14*
%TO.C,REF\u002A\u002A*%
X145000000Y-103000000D03*
%TD*%
%TO.C,REF\u002A\u002A*%
X145000000Y-75000000D03*
%TD*%
D17*
%TO.C,D12*%
X138002500Y-101025818D03*
D13*
X139272500Y-103225523D03*
%TD*%
D18*
%TO.C,D5*%
X144900000Y-89000000D03*
D13*
X147440000Y-89000000D03*
%TD*%
D18*
%TO.C,D8*%
X131000000Y-102900000D03*
D13*
X131000000Y-105440000D03*
%TD*%
D19*
%TO.C,D10*%
X124037500Y-76974182D03*
D13*
X122767500Y-74774477D03*
%TD*%
D18*
%TO.C,D6*%
X131000000Y-75100000D03*
D13*
X131000000Y-72560000D03*
%TD*%
D20*
%TO.C,D3*%
X118900000Y-82140000D03*
D13*
X116700295Y-80870000D03*
%TD*%
D14*
%TO.C,REF\u002A\u002A*%
X117000000Y-75000000D03*
%TD*%
D21*
%TO.C,D2*%
X137922500Y-76924182D03*
D13*
X139192500Y-74724477D03*
%TD*%
D22*
%TO.C,D9*%
X143045818Y-82067500D03*
D13*
X145245523Y-80797500D03*
%TD*%
D18*
%TO.C,D7*%
X117085000Y-89000000D03*
D13*
X114545000Y-89000000D03*
%TD*%
D23*
%TO.C,FID2*%
X114000000Y-72000000D03*
%TD*%
D24*
%TO.C,R3*%
X119792893Y-77892893D03*
X121207107Y-79307107D03*
%TD*%
D25*
%TO.C,R4*%
X119792893Y-100207107D03*
X121207107Y-98792893D03*
%TD*%
D23*
%TO.C,FID1*%
X148000000Y-106000000D03*
%TD*%
D26*
%TO.C,R2*%
X142207107Y-77792893D03*
X140792893Y-79207107D03*
%TD*%
D27*
%TO.C,R1*%
X142214214Y-100214214D03*
X140800000Y-98800000D03*
%TD*%
M02*
