%TF.GenerationSoftware,KiCad,Pcbnew,(6.0.1-0)*%
%TF.CreationDate,2022-03-28T18:36:01+02:00*%
%TF.ProjectId,Ring_Light_PCB,52696e67-5f4c-4696-9768-745f5043422e,1.0*%
%TF.SameCoordinates,Original*%
%TF.FileFunction,Legend,Bot*%
%TF.FilePolarity,Positive*%
%FSLAX46Y46*%
G04 Gerber Fmt 4.6, Leading zero omitted, Abs format (unit mm)*
G04 Created by KiCad (PCBNEW (6.0.1-0)) date 2022-03-28 18:36:01*
%MOMM*%
%LPD*%
G01*
G04 APERTURE LIST*
G04 Aperture macros list*
%AMRoundRect*
0 Rectangle with rounded corners*
0 $1 Rounding radius*
0 $2 $3 $4 $5 $6 $7 $8 $9 X,Y pos of 4 corners*
0 Add a 4 corners polygon primitive as box body*
4,1,4,$2,$3,$4,$5,$6,$7,$8,$9,$2,$3,0*
0 Add four circle primitives for the rounded corners*
1,1,$1+$1,$2,$3*
1,1,$1+$1,$4,$5*
1,1,$1+$1,$6,$7*
1,1,$1+$1,$8,$9*
0 Add four rect primitives between the rounded corners*
20,1,$1+$1,$2,$3,$4,$5,0*
20,1,$1+$1,$4,$5,$6,$7,0*
20,1,$1+$1,$6,$7,$8,$9,0*
20,1,$1+$1,$8,$9,$2,$3,0*%
%AMRotRect*
0 Rectangle, with rotation*
0 The origin of the aperture is its center*
0 $1 length*
0 $2 width*
0 $3 Rotation angle, in degrees counterclockwise*
0 Add horizontal line*
21,1,$1,$2,0,0,$3*%
G04 Aperture macros list end*
%ADD10C,0.150000*%
%ADD11C,0.120000*%
%ADD12R,1.700000X1.700000*%
%ADD13O,1.700000X1.700000*%
%ADD14RotRect,1.800000X1.800000X210.000000*%
%ADD15C,1.800000*%
%ADD16C,2.200000*%
%ADD17RotRect,1.800000X1.800000X330.000000*%
%ADD18RotRect,1.800000X1.800000X240.000000*%
%ADD19RotRect,1.800000X1.800000X300.000000*%
%ADD20R,1.800000X1.800000*%
%ADD21RotRect,1.800000X1.800000X120.000000*%
%ADD22RotRect,1.800000X1.800000X150.000000*%
%ADD23RotRect,1.800000X1.800000X60.000000*%
%ADD24RotRect,1.800000X1.800000X30.000000*%
%ADD25C,2.000000*%
%ADD26RoundRect,0.250000X-0.565685X-0.070711X-0.070711X-0.565685X0.565685X0.070711X0.070711X0.565685X0*%
%ADD27RoundRect,0.250000X0.070711X-0.565685X0.565685X-0.070711X-0.070711X0.565685X-0.565685X0.070711X0*%
%ADD28RoundRect,0.250000X-0.070711X0.565685X-0.565685X0.070711X0.070711X-0.565685X0.565685X-0.070711X0*%
%ADD29RoundRect,0.250000X0.565685X0.070711X0.070711X0.565685X-0.565685X-0.070711X-0.070711X-0.565685X0*%
G04 APERTURE END LIST*
D10*
%TO.C,J1*%
X131333333Y-69952380D02*
X131333333Y-70666666D01*
X131380952Y-70809523D01*
X131476190Y-70904761D01*
X131619047Y-70952380D01*
X131714285Y-70952380D01*
X130333333Y-70952380D02*
X130904761Y-70952380D01*
X130619047Y-70952380D02*
X130619047Y-69952380D01*
X130714285Y-70095238D01*
X130809523Y-70190476D01*
X130904761Y-70238095D01*
%TO.C,R3*%
X121852030Y-77037267D02*
X121279610Y-77138282D01*
X121447969Y-76633206D02*
X120740862Y-77340312D01*
X121010236Y-77609687D01*
X121111251Y-77643358D01*
X121178595Y-77643358D01*
X121279610Y-77609687D01*
X121380625Y-77508671D01*
X121414297Y-77407656D01*
X121414297Y-77340312D01*
X121380625Y-77239297D01*
X121111251Y-76969923D01*
X121380625Y-77980076D02*
X121818358Y-78417809D01*
X121852030Y-77912732D01*
X121953045Y-78013748D01*
X122054061Y-78047419D01*
X122121404Y-78047419D01*
X122222419Y-78013748D01*
X122390778Y-77845389D01*
X122424450Y-77744374D01*
X122424450Y-77677030D01*
X122390778Y-77576015D01*
X122188748Y-77373984D01*
X122087732Y-77340312D01*
X122020389Y-77340312D01*
%TO.C,R4*%
X119887732Y-98627030D02*
X119786717Y-98054610D01*
X120291793Y-98222969D02*
X119584687Y-97515862D01*
X119315312Y-97785236D01*
X119281641Y-97886251D01*
X119281641Y-97953595D01*
X119315312Y-98054610D01*
X119416328Y-98155625D01*
X119517343Y-98189297D01*
X119584687Y-98189297D01*
X119685702Y-98155625D01*
X119955076Y-97886251D01*
X118810236Y-98761717D02*
X119281641Y-99233122D01*
X118709221Y-98323984D02*
X119382656Y-98660702D01*
X118944923Y-99098435D01*
%TO.C,R2*%
X143137732Y-79777030D02*
X143036717Y-79204610D01*
X143541793Y-79372969D02*
X142834687Y-78665862D01*
X142565312Y-78935236D01*
X142531641Y-79036251D01*
X142531641Y-79103595D01*
X142565312Y-79204610D01*
X142666328Y-79305625D01*
X142767343Y-79339297D01*
X142834687Y-79339297D01*
X142935702Y-79305625D01*
X143205076Y-79036251D01*
X142228595Y-79406641D02*
X142161251Y-79406641D01*
X142060236Y-79440312D01*
X141891877Y-79608671D01*
X141858206Y-79709687D01*
X141858206Y-79777030D01*
X141891877Y-79878045D01*
X141959221Y-79945389D01*
X142093908Y-80012732D01*
X142902030Y-80012732D01*
X142464297Y-80450465D01*
%TO.C,R1*%
X140627030Y-100162267D02*
X140054610Y-100263282D01*
X140222969Y-99758206D02*
X139515862Y-100465312D01*
X139785236Y-100734687D01*
X139886251Y-100768358D01*
X139953595Y-100768358D01*
X140054610Y-100734687D01*
X140155625Y-100633671D01*
X140189297Y-100532656D01*
X140189297Y-100465312D01*
X140155625Y-100364297D01*
X139886251Y-100094923D01*
X141300465Y-100835702D02*
X140896404Y-100431641D01*
X141098435Y-100633671D02*
X140391328Y-101340778D01*
X140425000Y-101172419D01*
X140425000Y-101037732D01*
X140391328Y-100936717D01*
D11*
%TO.C,R3*%
X119819718Y-78959165D02*
X120140835Y-79280282D01*
X120859165Y-77919718D02*
X121180282Y-78240835D01*
%TO.C,R4*%
X120859165Y-100180282D02*
X121180282Y-99859165D01*
X119819718Y-99140835D02*
X120140835Y-98819718D01*
%TO.C,R2*%
X142180282Y-78859165D02*
X141859165Y-79180282D01*
X141140835Y-77819718D02*
X140819718Y-78140835D01*
%TO.C,R1*%
X142187389Y-99147942D02*
X141866272Y-98826825D01*
X141147942Y-100187389D02*
X140826825Y-99866272D01*
%TD*%
%LPC*%
D12*
%TO.C,J1*%
X129725000Y-68000000D03*
D13*
X132265000Y-68000000D03*
%TD*%
D14*
%TO.C,D11*%
X118970000Y-95960000D03*
D15*
X116770295Y-97230000D03*
%TD*%
D16*
%TO.C,REF\u002A\u002A*%
X117000000Y-103000000D03*
%TD*%
D17*
%TO.C,D1*%
X143060000Y-95930000D03*
D15*
X145259705Y-97200000D03*
%TD*%
D18*
%TO.C,D4*%
X124070000Y-101060000D03*
D15*
X122800000Y-103259705D03*
%TD*%
D16*
%TO.C,REF\u002A\u002A*%
X145000000Y-103000000D03*
%TD*%
%TO.C,REF\u002A\u002A*%
X145000000Y-75000000D03*
%TD*%
D19*
%TO.C,D12*%
X138002500Y-101025818D03*
D15*
X139272500Y-103225523D03*
%TD*%
D20*
%TO.C,D5*%
X144900000Y-89000000D03*
D15*
X147440000Y-89000000D03*
%TD*%
D20*
%TO.C,D8*%
X131000000Y-102900000D03*
D15*
X131000000Y-105440000D03*
%TD*%
D21*
%TO.C,D10*%
X124037500Y-76974182D03*
D15*
X122767500Y-74774477D03*
%TD*%
D20*
%TO.C,D6*%
X131000000Y-75100000D03*
D15*
X131000000Y-72560000D03*
%TD*%
D22*
%TO.C,D3*%
X118900000Y-82140000D03*
D15*
X116700295Y-80870000D03*
%TD*%
D16*
%TO.C,REF\u002A\u002A*%
X117000000Y-75000000D03*
%TD*%
D23*
%TO.C,D2*%
X137922500Y-76924182D03*
D15*
X139192500Y-74724477D03*
%TD*%
D24*
%TO.C,D9*%
X143045818Y-82067500D03*
D15*
X145245523Y-80797500D03*
%TD*%
D20*
%TO.C,D7*%
X117085000Y-89000000D03*
D15*
X114545000Y-89000000D03*
%TD*%
D25*
%TO.C,FID2*%
X114000000Y-72000000D03*
%TD*%
D26*
%TO.C,R3*%
X119792893Y-77892893D03*
X121207107Y-79307107D03*
%TD*%
D27*
%TO.C,R4*%
X119792893Y-100207107D03*
X121207107Y-98792893D03*
%TD*%
D25*
%TO.C,FID1*%
X148000000Y-106000000D03*
%TD*%
D28*
%TO.C,R2*%
X142207107Y-77792893D03*
X140792893Y-79207107D03*
%TD*%
D29*
%TO.C,R1*%
X142214214Y-100214214D03*
X140800000Y-98800000D03*
%TD*%
M02*
